<?xml version="1.0" encoding="UTF-8" standalone="no"?>
<svg width="27px" height="29px" viewBox="0 0 27 29" version="1.1" xmlns="http://www.w3.org/2000/svg" xmlns:xlink="http://www.w3.org/1999/xlink">
    <!-- Generator: sketchtool 40.3 (33839) - http://www.bohemiancoding.com/sketch -->
    <title>C871DA6E-88D6-4A20-9286-2B0A2D40705B</title>
    <desc>Created with sketchtool.</desc>
    <defs></defs>
    <g id="Page-1" stroke="none" stroke-width="1" fill="none" fill-rule="evenodd">
        <g id="icons" transform="translate(-584.000000, -278.000000)" fill="#DDDEDF">
            <g id="unlocked-grey" transform="translate(584.000000, 278.000000)">
                <path d="M23.0824373,12.6738351 L3.29749104,12.6738351 L2.47311828,12.6738351 C1.10927599,12.6738351 0,13.7670346 0,15.1111111 L0,26.4850657 C0,27.8291422 1.10927599,28.9223417 2.47311828,28.9223417 L23.90681,28.9223417 C25.2706523,28.9223417 26.3799283,27.8291422 26.3799283,26.4850657 L26.3799283,15.1111111 C26.3799283,13.7670346 25.2706523,12.6738351 23.90681,12.6738351 L23.0824373,12.6738351 Z M24.7311828,26.4850657 C24.7311828,26.9328746 24.3612043,27.297491 23.90681,27.297491 L2.47311828,27.297491 C2.01872401,27.297491 1.64874552,26.9328746 1.64874552,26.4850657 L1.64874552,15.1111111 C1.64874552,14.6633023 2.01872401,14.2986858 2.47311828,14.2986858 L4.1218638,14.2986858 L7.41935484,14.2986858 L18.9605735,14.2986858 L22.2580645,14.2986858 L23.90681,14.2986858 C24.3612043,14.2986858 24.7311828,14.6633023 24.7311828,15.1111111 L24.7311828,26.4850657 L24.7311828,26.4850657 Z" id="Shape-Copy"></path>
                <path d="M13.1899642,17.7921147 C12.2808459,17.7921147 11.5412186,18.5210227 11.5412186,19.4169654 C11.5412186,20.0155603 11.8752545,20.5338877 12.3655914,20.8156368 L12.3655914,22.6666667 C12.3655914,23.1154504 12.7345806,23.479092 13.1899642,23.479092 C13.6453477,23.479092 14.0143369,23.1154504 14.0143369,22.6666667 L14.0143369,20.8156368 C14.5046738,20.5338877 14.8387097,20.0155603 14.8387097,19.4169654 C14.8387097,18.5210227 14.0990824,17.7921147 13.1899642,17.7921147 L13.1899642,17.7921147 Z" id="Shape-Copy-2"></path>
                <path d="M23.0992348,7.31182796 C21.9982797,3.11169087 18.1207731,0 13.5197133,0 C8.06500358,0 3.62724014,4.37344803 3.62724014,9.74910394 L3.62724014,12.9988053 L24.2365591,12.9988053 L23.8243728,12.9988053 L16.9820789,12.9988053 L8.5734767,12.9988053 L8.5734767,9.74910394 C8.5734767,7.06127599 10.7923584,4.87455197 13.5197133,4.87455197 C15.1613279,4.87455197 16.6187266,5.6667853 17.5189268,6.8836749 C17.6206243,7.02114949 17.7152105,7.16404383 17.8021475,7.31182796 L19.6335569,7.31182796 C18.6532458,4.9321277 16.2820846,3.24970131 13.5197133,3.24970131 C9.88324014,3.24970131 6.92473118,6.16533333 6.92473118,9.74910394 L6.92473118,12.9988053 L5.27598566,12.9988053 L5.27598566,9.74910394 C5.27598566,5.26939068 8.97412186,1.62485066 13.5197133,1.62485066 C17.2040454,1.62485066 20.3316362,4.01915576 21.3845485,7.31182796 L23.0992348,7.31182796 Z" id="Combined-Shape"></path>
            </g>
        </g>
    </g>
</svg>