<?xml version="1.0" encoding="UTF-8" standalone="no"?>
<svg width="31px" height="27px" viewBox="0 0 31 27" version="1.1" xmlns="http://www.w3.org/2000/svg" xmlns:xlink="http://www.w3.org/1999/xlink">
    <!-- Generator: sketchtool 40.3 (33839) - http://www.bohemiancoding.com/sketch -->
    <title>293155B5-6BB7-438B-B4E2-EEC8B6A01F45</title>
    <desc>Created with sketchtool.</desc>
    <defs>
        <polygon id="path-1" points="30.5233651 21.149619 30.5233651 0.227746032 0 0.227746032 0 21.149619 30.5233651 21.149619"></polygon>
    </defs>
    <g id="Page-1" stroke="none" stroke-width="1" fill="none" fill-rule="evenodd">
        <g id="icons" transform="translate(-621.000000, -673.000000)">
            <g id="education" transform="translate(621.000000, 672.000000)">
                <path d="M3.30663492,21.9854794 C3.00873016,21.9854794 2.76695238,21.7437016 2.76695238,21.4457968 L2.76695238,13.6430667 C2.76695238,13.3440825 3.00873016,13.1033841 3.30663492,13.1033841 C3.60453968,13.1033841 3.84631746,13.3440825 3.84631746,13.6430667 L3.84631746,21.4457968 C3.84631746,21.7437016 3.60453968,21.9854794 3.30663492,21.9854794" id="Fill-10" fill="#8B8F90"></path>
                <g id="Group-3" transform="translate(0.000000, 0.851727)">
                    <mask id="mask-2" fill="white">
                        <use xlink:href="#path-1"></use>
                    </mask>
                    <g id="Clip-2"></g>
                    <path d="M1.5051746,10.6916508 L15.2616825,19.9590794 L29.0181905,10.6873333 L15.2616825,1.4188254 L1.5051746,10.6916508 Z M15.2616825,21.149619 C15.1559048,21.149619 15.0512063,21.1193968 14.9605397,21.057873 L0.238,11.1395873 C0.089047619,11.0392063 -0.00053968254,10.8719048 -0.00053968254,10.6916508 C-0.00053968254,10.5124762 0.089047619,10.3440952 0.238,10.2437143 L14.9605397,0.320031746 C15.141873,0.196984127 15.3814921,0.196984127 15.5628254,0.320031746 L30.2853651,10.2393968 C30.4343175,10.3397778 30.5239048,10.5070794 30.5239048,10.6873333 C30.5239048,10.8665079 30.4343175,11.0338095 30.2853651,11.1341905 L15.5628254,21.057873 C15.4721587,21.1193968 15.3674603,21.149619 15.2616825,21.149619 L15.2616825,21.149619 Z" id="Fill-1" fill="#05BDD3" mask="url(#mask-2)"></path>
                </g>
                <polygon id="Fill-4" fill="#8B8F90" points="15.2615746 23.6617333 6.40754286 17.6971619 6.7648127 22.0869397 15.2615746 27.8356381 23.7583365 22.0826222 24.1156063 17.6939238"></polygon>
                <path d="M16.396419,11.5408952 C16.396419,12.1680063 15.8880381,12.6753079 15.2620063,12.6753079 C14.6348952,12.6753079 14.1265143,12.1680063 14.1265143,11.5408952 C14.1265143,10.9137841 14.6348952,10.4064825 15.2620063,10.4064825 C15.8880381,10.4064825 16.396419,10.9137841 16.396419,11.5408952" id="Fill-6" fill="#05BDD3"></path>
                <path d="M5.08132698,21.911327 C5.08132698,22.8913905 4.28691429,23.6858032 3.30685079,23.6858032 C2.3267873,23.6858032 1.5323746,22.8913905 1.5323746,21.911327 C1.5323746,20.9312635 2.3267873,20.1368508 3.30685079,20.1368508 C4.28691429,20.1368508 5.08132698,20.9312635 5.08132698,21.911327" id="Fill-8" fill="#05BDD3"></path>
            </g>
        </g>
    </g>
</svg>