<?xml version="1.0" encoding="UTF-8" standalone="no"?>
<svg width="27px" height="30px" viewBox="0 0 27 30" version="1.1" xmlns="http://www.w3.org/2000/svg" xmlns:xlink="http://www.w3.org/1999/xlink">
    <!-- Generator: sketchtool 40.3 (33839) - http://www.bohemiancoding.com/sketch -->
    <title>CE38C1DD-2654-4D12-B2BD-6FD72FA654B4</title>
    <desc>Created with sketchtool.</desc>
    <defs></defs>
    <g id="Page-1" stroke="none" stroke-width="1" fill="none" fill-rule="evenodd">
        <g id="icons" transform="translate(-641.000000, -277.000000)" fill="#19BED3">
            <g id="locked-blue" transform="translate(641.000000, 277.000000)">
                <path d="M23.90681,12.9988053 L23.0824373,12.9988053 L23.0824373,9.74910394 C23.0824373,4.37344803 18.6446738,0 13.1899642,0 C7.73525448,0 3.29749104,4.37344803 3.29749104,9.74910394 L3.29749104,12.9988053 L2.47311828,12.9988053 C1.10927599,12.9988053 0,14.0920048 0,15.4360812 L0,26.8100358 C0,28.1541123 1.10927599,29.2473118 2.47311828,29.2473118 L23.90681,29.2473118 C25.2706523,29.2473118 26.3799283,28.1541123 26.3799283,26.8100358 L26.3799283,15.4360812 C26.3799283,14.0920048 25.2706523,12.9988053 23.90681,12.9988053 L23.90681,12.9988053 Z M4.94623656,9.74910394 C4.94623656,5.26939068 8.64437276,1.62485066 13.1899642,1.62485066 C17.7355556,1.62485066 21.4336918,5.26939068 21.4336918,9.74910394 L21.4336918,12.9988053 L19.7849462,12.9988053 L19.7849462,9.74910394 C19.7849462,6.16533333 16.8264373,3.24970131 13.1899642,3.24970131 C9.55349104,3.24970131 6.59498208,6.16533333 6.59498208,9.74910394 L6.59498208,12.9988053 L4.94623656,12.9988053 L4.94623656,9.74910394 L4.94623656,9.74910394 Z M18.1362007,9.74910394 L18.1362007,12.9988053 L8.2437276,12.9988053 L8.2437276,9.74910394 C8.2437276,7.06127599 10.4626093,4.87455197 13.1899642,4.87455197 C15.917319,4.87455197 18.1362007,7.06127599 18.1362007,9.74910394 L18.1362007,9.74910394 Z M24.7311828,26.8100358 C24.7311828,27.2578447 24.3612043,27.6224612 23.90681,27.6224612 L2.47311828,27.6224612 C2.01872401,27.6224612 1.64874552,27.2578447 1.64874552,26.8100358 L1.64874552,15.4360812 C1.64874552,14.9882724 2.01872401,14.6236559 2.47311828,14.6236559 L4.1218638,14.6236559 L7.41935484,14.6236559 L18.9605735,14.6236559 L22.2580645,14.6236559 L23.90681,14.6236559 C24.3612043,14.6236559 24.7311828,14.9882724 24.7311828,15.4360812 L24.7311828,26.8100358 L24.7311828,26.8100358 Z" id="Shape"></path>
                <path d="M13.1899642,18.1170848 C12.2808459,18.1170848 11.5412186,18.8459928 11.5412186,19.7419355 C11.5412186,20.3405305 11.8752545,20.8588578 12.3655914,21.1406069 L12.3655914,22.9916368 C12.3655914,23.4404205 12.7345806,23.8040621 13.1899642,23.8040621 C13.6453477,23.8040621 14.0143369,23.4404205 14.0143369,22.9916368 L14.0143369,21.1406069 C14.5046738,20.8588578 14.8387097,20.3405305 14.8387097,19.7419355 C14.8387097,18.8459928 14.0990824,18.1170848 13.1899642,18.1170848 L13.1899642,18.1170848 Z" id="Shape"></path>
            </g>
        </g>
    </g>
</svg>