<?xml version="1.0" encoding="UTF-8" standalone="no"?>
<svg width="16px" height="16px" viewBox="0 0 16 16" version="1.1" xmlns="http://www.w3.org/2000/svg" xmlns:xlink="http://www.w3.org/1999/xlink">
    <!-- Generator: sketchtool 40.3 (33839) - http://www.bohemiancoding.com/sketch -->
    <title>DC448CAD-75C6-44E3-8F76-0B6CB7762284</title>
    <desc>Created with sketchtool.</desc>
    <defs></defs>
    <g id="Page-1" stroke="none" stroke-width="1" fill="none" fill-rule="evenodd">
        <g id="icons" transform="translate(-547.000000, -213.000000)" fill="#8C8F90">
            <path d="M560.155317,213 C558.625557,213 557.385286,214.240271 557.385286,215.770031 C557.385286,215.890237 557.395536,216.007959 557.410445,216.123817 L551.14697,217.840255 C550.71491,217.334269 550.073498,217.012476 549.355675,217.012476 C548.054525,217.012476 547,218.067311 547,219.368462 C547,220.669612 548.054525,221.724137 549.355675,221.724137 C549.708219,221.724137 550.041505,221.644621 550.341866,221.505777 L554.359622,224.348181 C554.242522,224.654754 554.17574,224.986487 554.17574,225.334371 C554.17574,226.864132 555.4157,228.104402 556.945771,228.104402 C558.475531,228.104402 559.715802,226.864132 559.715802,225.334371 C559.715802,223.8043 558.475531,222.564341 556.945771,222.564341 C556.327965,222.564341 555.759547,222.768723 555.29891,223.110395 L551.470317,220.401865 C551.623448,220.089701 551.711662,219.739642 551.711662,219.368462 C551.711662,219.344234 551.708866,219.320938 551.707934,219.297021 L558.044092,217.560704 C558.551942,218.159252 559.308901,218.540062 560.155317,218.540062 C561.685077,218.540062 562.925348,217.299791 562.925348,215.770031 C562.925348,214.240271 561.685077,213 560.155317,213" id="share-grey"></path>
        </g>
    </g>
</svg>