<?xml version="1.0" encoding="UTF-8" standalone="no"?>
<svg width="17px" height="16px" viewBox="0 0 17 16" version="1.1" xmlns="http://www.w3.org/2000/svg" xmlns:xlink="http://www.w3.org/1999/xlink">
    <!-- Generator: sketchtool 40.3 (33839) - http://www.bohemiancoding.com/sketch -->
    <title>14167789-8AE3-4CC9-832A-A7CAB16C428A</title>
    <desc>Created with sketchtool.</desc>
    <defs></defs>
    <g id="Page-1" stroke="none" stroke-width="1" fill="none" fill-rule="evenodd" stroke-linejoin="round">
        <g id="icons" transform="translate(-604.000000, -158.000000)" stroke="#8C8F90" stroke-width="1.3">
            <path d="M612.13175,172.504006 L606.90875,167.346792 C606.8525,167.301166 606.776,167.226928 606.6785,167.124078 C606.58025,167.021227 606.42575,166.834086 606.2135,166.562654 C606.002,166.291995 605.81225,166.013603 605.64425,165.728251 C605.477,165.442125 605.32775,165.097228 605.1965,164.690467 C605.06525,164.285251 605,163.891636 605,163.508847 C605,162.252216 605.354,161.270883 606.06275,160.56253 C606.7715,159.854177 607.751,159.5 609.00125,159.5 C609.347,159.5 609.70025,159.561092 610.06025,159.684048 C610.42025,159.807005 610.75475,159.973267 611.0645,160.181287 C611.37425,160.390082 611.6405,160.585729 611.864,160.768231 C612.08675,160.950732 612.299,161.144834 612.5,161.350534 C612.701,161.144834 612.91325,160.950732 613.136,160.768231 C613.3595,160.585729 613.62575,160.390082 613.9355,160.181287 C614.24525,159.973267 614.57975,159.807005 614.93975,159.684048 C615.29975,159.561092 615.653,159.5 615.99875,159.5 C617.249,159.5 618.2285,159.854177 618.93725,160.56253 C619.64525,161.270883 620,162.252216 620,163.508847 C620,164.771664 619.361,166.056135 618.083,167.364578 L612.86825,172.504006 C612.76775,172.606856 612.64475,172.657895 612.5,172.657895 C612.35525,172.657895 612.23225,172.606856 612.13175,172.504006 Z" id="favorite-grey"></path>
        </g>
    </g>
</svg>