<?xml version="1.0" encoding="UTF-8" standalone="no"?>
<svg width="17px" height="17px" viewBox="0 0 17 17" version="1.1" xmlns="http://www.w3.org/2000/svg" xmlns:xlink="http://www.w3.org/1999/xlink">
    <!-- Generator: sketchtool 40.3 (33839) - http://www.bohemiancoding.com/sketch -->
    <title>E33A4BDC-05C6-4271-AD38-BAB78CC21F1A</title>
    <desc>Created with sketchtool.</desc>
    <defs></defs>
    <g id="Page-1" stroke="none" stroke-width="1" fill="none" fill-rule="evenodd">
        <g id="icons" transform="translate(-390.000000, -163.000000)" fill="#0084FF">
            <g id="fb-messenger-small" transform="translate(390.000000, 163.000000)">
                <g id="Facebook_Messenger_1_">
                    <path d="M8.02867384,0 C3.59455197,0 0,3.33699379 0,7.45341615 C0,9.79900621 1.16749883,11.8912298 2.99205236,13.2574907 L2.99205236,16.0993789 L5.725741,14.5951304 C6.4553031,14.7975652 7.22820009,14.9068323 8.02867384,14.9068323 C12.4627957,14.9068323 16.0573477,11.5698385 16.0573477,7.45341615 C16.0573477,3.33699379 12.4627957,0 8.02867384,0 L8.02867384,0 Z M8.82655446,10.0372671 L6.78198535,7.85093168 L2.7925822,10.0372671 L7.18092567,5.36645963 L9.27536232,7.55279503 L13.2148979,5.36645963 L8.82655446,10.0372671 L8.82655446,10.0372671 Z" id="Shape"></path>
                </g>
            </g>
        </g>
    </g>
</svg>