<?xml version="1.0" encoding="UTF-8" standalone="no"?>
<svg width="37px" height="37px" viewBox="0 0 37 37" version="1.1" xmlns="http://www.w3.org/2000/svg" xmlns:xlink="http://www.w3.org/1999/xlink">
    <!-- Generator: sketchtool 40.3 (33839) - http://www.bohemiancoding.com/sketch -->
    <title>DE44A8EA-0F0F-46A8-9064-5F27D2B616D1</title>
    <desc>Created with sketchtool.</desc>
    <defs>
        <path d="M16.5,33.0739868 C25.6126984,33.0739868 33,25.6866852 33,16.5739868 C33,7.46128844 25.6126984,0.0739868157 16.5,0.0739868157 C7.38730163,0.0739868157 0,7.46128844 0,16.5739868 C0,25.6866852 7.38730163,33.0739868 16.5,33.0739868 Z" id="path-1"></path>
        <mask id="mask-2" maskContentUnits="userSpaceOnUse" maskUnits="objectBoundingBox" x="-1.6" y="-1.6" width="36.2" height="36.2">
            <rect x="-1.6" y="-1.52601318" width="36.2" height="36.2" fill="white"></rect>
            <use xlink:href="#path-1" fill="black"></use>
        </mask>
    </defs>
    <g id="Page-1" stroke="none" stroke-width="1" fill="none" fill-rule="evenodd">
        <g id="icons" transform="translate(-446.000000, -888.000000)">
            <g id="instagram" transform="translate(448.000000, 890.000000)">
                <use id="Oval-18-Copy-3" stroke="#19BED3" mask="url(#mask-2)" stroke-width="3.2" xlink:href="#path-1"></use>
                <path d="M22.1748026,13.0940873 C22.1748026,13.3955949 21.9737976,13.5965999 21.67229,13.5965999 L19.6622398,13.5965999 C19.3607322,13.5965999 19.1597272,13.3955949 19.1597272,13.0940873 L19.1597272,11.0840371 C19.1597272,10.7825295 19.3607322,10.5815245 19.6622398,10.5815245 L21.67229,10.5815245 C21.9737976,10.5815245 22.1748026,10.7825295 22.1748026,11.0840371 L22.1748026,13.0940873 Z M10.8820666,22.641826 C10.6573492,22.641826 10.5075377,22.4910722 10.5075377,22.2649416 L10.5075377,15.8579064 L12.080559,15.8579064 C12.0056533,16.0840371 12.0056533,16.3855446 12.0056533,16.6116753 C12.0056533,19.0991124 14.0281093,21.1342883 16.5,21.1342883 C18.9718907,21.1342883 20.9943467,19.0991124 20.9943467,16.6116753 C20.9943467,16.3855446 20.9943467,16.0840371 20.919441,15.8579064 L22.4924623,15.8579064 L22.4924623,22.2649416 C22.4924623,22.4910722 22.3426508,22.641826 22.1179334,22.641826 L10.8820666,22.641826 Z M16.5376884,13.5965999 C18.1959799,13.5965999 19.5527638,14.9533838 19.5527638,16.6116753 C19.5527638,18.2699667 18.1959799,19.6267506 16.5376884,19.6267506 C14.879397,19.6267506 13.5226131,18.2699667 13.5226131,16.6116753 C13.5226131,14.9533838 14.879397,13.5965999 16.5376884,13.5965999 L16.5376884,13.5965999 Z M10.5,9.07398682 C9.675,9.07398682 9,9.74898682 9,10.5739868 L9,22.5739868 C9,23.3989868 9.675,24.0739868 10.5,24.0739868 L22.5,24.0739868 C23.325,24.0739868 24,23.3989868 24,22.5739868 L24,10.5739868 C24,9.74898682 23.325,9.07398682 22.5,9.07398682 L10.5,9.07398682 Z" id="Page-1" fill="#FFFFFF"></path>
            </g>
        </g>
    </g>
</svg>