<?xml version="1.0" encoding="UTF-8" standalone="no"?>
<svg width="13px" height="18px" viewBox="0 0 13 18" version="1.1" xmlns="http://www.w3.org/2000/svg" xmlns:xlink="http://www.w3.org/1999/xlink">
    <!-- Generator: sketchtool 40.3 (33839) - http://www.bohemiancoding.com/sketch -->
    <title>6EA38692-A09B-49CC-BC8E-5D467FEC1675</title>
    <desc>Created with sketchtool.</desc>
    <defs></defs>
    <g id="Page-1" stroke="none" stroke-width="1" fill="none" fill-rule="evenodd">
        <g id="icons" transform="translate(-549.000000, -485.000000)" fill="#DEDFE0">
            <path d="M561.609414,491.271751 C561.609414,487.789845 558.788071,485 555.305264,485 C551.823358,485 549.001115,487.774546 549.001115,491.256452 C549.001115,491.312249 549.007414,491.376146 549.009214,491.376146 L549.001115,491.376146 C548.918319,495.25763 553.470266,501.248597 555.305264,502.99 C557.140262,501.248597 561.692209,495.25763 561.609414,491.376146 L561.600414,491.376146 C561.602214,491.375246 561.609414,491.327548 561.609414,491.271751 M555.305264,488.95078 C556.621891,488.95078 557.688332,490.018121 557.688332,491.334748 C557.688332,492.652275 556.621891,493.717815 555.305264,493.717815 C553.987737,493.717815 552.921297,492.652275 552.921297,491.334748 C552.921297,490.018121 553.987737,488.95078 555.305264,488.95078" id="location"></path>
        </g>
    </g>
</svg>