<?xml version="1.0" encoding="UTF-8" standalone="no"?>
<svg width="13px" height="18px" viewBox="0 0 13 18" version="1.1" xmlns="http://www.w3.org/2000/svg" xmlns:xlink="http://www.w3.org/1999/xlink">
    <!-- Generator: sketchtool 40.3 (33839) - http://www.bohemiancoding.com/sketch -->
    <title>58652142-0EC7-4168-95A9-B06C880FD36C</title>
    <desc>Created with sketchtool.</desc>
    <defs></defs>
    <g id="Page-1" stroke="none" stroke-width="1" fill="none" fill-rule="evenodd">
        <g id="icons" transform="translate(-438.000000, -489.000000)" fill="#34C6D9">
            <path d="M449.037642,494.752834 L448.511111,494.752834 C448.511111,493.855782 448.49161,492.568707 448.452608,492.354195 C448.121088,490.287075 446.560998,489 444.396372,489 C442.251247,489 440.710658,490.267574 440.340136,492.295692 C440.301134,492.549206 440.281633,493.836281 440.262132,494.752834 L439.735601,494.752834 C438.780045,494.752834 438,495.630385 438,496.722449 L438,504.230385 C438,505.322449 438.780045,506.2 439.735601,506.2 L449.037642,506.2 C449.993197,506.2 450.773243,505.322449 450.773243,504.230385 L450.773243,496.722449 C450.773243,495.649887 449.993197,494.752834 449.037642,494.752834 L449.037642,494.752834 Z M445.91746,503.294331 L442.875283,503.294331 L443.869841,500.798186 C443.284807,500.583673 442.875283,500.018141 442.875283,499.374603 C442.875283,498.536054 443.557823,497.853515 444.396372,497.853515 C445.234921,497.853515 445.91746,498.536054 445.91746,499.374603 C445.91746,500.037642 445.507937,500.583673 444.922902,500.798186 L445.91746,503.294331 L445.91746,503.294331 Z M442.114739,494.752834 C442.13424,493.914286 442.13424,492.822222 442.173243,492.588209 C442.446259,491.047619 443.694331,490.833107 444.396372,490.833107 C445.117914,490.833107 446.365986,491.06712 446.639002,492.627211 C446.658503,492.841723 446.678005,493.914286 446.678005,494.752834 L442.114739,494.752834 L442.114739,494.752834 Z" id="lock-small"></path>
        </g>
    </g>
</svg>