<?xml version="1.0" encoding="UTF-8" standalone="no"?>
<svg width="30px" height="29px" viewBox="0 0 30 29" version="1.1" xmlns="http://www.w3.org/2000/svg" xmlns:xlink="http://www.w3.org/1999/xlink">
    <!-- Generator: sketchtool 40.3 (33839) - http://www.bohemiancoding.com/sketch -->
    <title>95F7C477-C102-44C6-852F-C021A8ED74C3</title>
    <desc>Created with sketchtool.</desc>
    <defs>
        <polygon id="path-1" points="4.35616944e-20 0.772714286 4.35616944e-20 3.89845223 29.2111071 3.89845223 29.2111071 0.772714286 0 0.772714286"></polygon>
        <polygon id="path-3" points="0 28.0391786 29.2114286 28.0391786 29.2114286 -0.000107142856 0 -0.000107142856"></polygon>
    </defs>
    <g id="Page-1" stroke="none" stroke-width="1" fill="none" fill-rule="evenodd">
        <g id="icons" transform="translate(-699.000000, -623.000000)">
            <g id="beach" transform="translate(699.000000, 623.000000)">
                <g id="Group-3" transform="translate(0.000000, 20.539179)">
                    <mask id="mask-2" fill="white">
                        <use xlink:href="#path-1"></use>
                    </mask>
                    <g id="Clip-2"></g>
                    <path d="M29.2111071,3.89807143 C28.0946786,3.89807143 27.06075,3.44485714 26.3750357,2.65307143 L25.6839643,1.85807143 L25.0925357,1.50664286 L25.4975357,1.85807143 L24.8075357,2.65307143 C24.12075,3.44485714 23.0878929,3.89807143 21.9714643,3.89807143 C20.8539643,3.89807143 19.8211071,3.44485714 19.1353929,2.65307143 L18.4443214,1.85807143 L17.8528929,1.50664286 L18.2578929,1.85807143 L17.5678929,2.65307143 C16.8811071,3.44485714 15.8471786,3.89807143 14.73075,3.89807143 C13.6143214,3.89807143 12.5814643,3.44485714 11.8946786,2.65307143 L11.2036071,1.85807143 L10.61325,1.50664286 L11.01825,1.85807143 L10.3271786,2.65307143 C9.64039286,3.44485714 8.60753571,3.89807143 7.49110714,3.89807143 C6.37467857,3.89807143 5.34075,3.44485714 4.65396429,2.65307143 L3.96396429,1.85807143 L3.37253571,1.50664286 L3.77753571,1.85807143 L3.08646429,2.65307143 C2.35146429,3.50164286 1.19753571,3.96557143 -0.000321428572,3.89057143 L0.0671785714,2.82128571 C0.926464286,2.87057143 1.75789286,2.55021429 2.27646429,1.95128571 L2.96753571,1.15521429 C3.41110714,0.645214286 4.32932143,0.645214286 4.77289286,1.15521429 L5.46396429,1.95128571 C6.42825,3.06342857 8.55289286,3.06342857 9.51717857,1.95128571 L10.20825,1.15521429 C10.6518214,0.645214286 11.5700357,0.645214286 12.0136071,1.15521429 L12.7046786,1.95128571 C13.6689643,3.06342857 15.7936071,3.06342857 16.7578929,1.95128571 L17.4478929,1.15521429 C17.8925357,0.645214286 18.81075,0.645214286 19.2543214,1.15521429 L19.9453929,1.95128571 C20.4275357,2.50735714 21.16575,2.82664286 21.9714643,2.82664286 C22.7761071,2.82664286 23.5153929,2.50735714 23.9975357,1.95128571 L24.6875357,1.15521429 C25.1311071,0.645214286 26.0503929,0.645214286 26.4939643,1.15521429 L27.1839643,1.95128571 C27.6671786,2.50735714 28.4053929,2.82664286 29.2111071,2.82664286 L29.2111071,3.89807143 Z" id="Fill-1" fill="#05BED4" mask="url(#mask-2)"></path>
                </g>
                <path d="M0.250071429,28.0391786 C0.167571429,28.0391786 0.084,28.0370357 0.000428571428,28.0316786 L0.0668571429,26.9623929 C0.941142857,27.0181071 1.75864286,26.69025 2.27721429,26.0934643 L2.96721429,25.2963214 C3.41078571,24.7863214 4.33007143,24.78525 4.77364286,25.2973929 L5.46364286,26.0923929 C6.429,27.2056071 8.55257143,27.2056071 9.51685714,26.0923929 L10.2079286,25.2963214 C10.6515,24.7863214 11.5697143,24.78525 12.0132857,25.2973929 L12.7043571,26.0923929 C13.6686429,27.2056071 15.7932857,27.2056071 16.7575714,26.0923929 L17.4486429,25.2963214 C17.8922143,24.7863214 18.8104286,24.78525 19.254,25.2973929 L19.9450714,26.0923929 C20.4272143,26.6484643 21.1654286,26.96775 21.9711429,26.96775 C22.7757857,26.96775 23.5150714,26.6484643 23.9972143,26.0934643 L24.6882857,25.2963214 C25.1318571,24.7863214 26.0500714,24.78525 26.4936429,25.2973929 L27.1847143,26.0923929 C27.6668571,26.6484643 28.4050714,26.96775 29.2107857,26.96775 L29.2107857,28.0391786 C28.0954286,28.0391786 27.0615,27.5859643 26.3747143,26.79525 L25.6836429,26.00025 L25.4972143,26.00025 L24.8072143,26.79525 C24.1204286,27.5859643 23.0875714,28.0391786 21.9711429,28.0391786 C20.8536429,28.0391786 19.8218571,27.5859643 19.1350714,26.7941786 L18.444,26.00025 L18.2586429,26.00025 L17.5675714,26.79525 C16.8807857,27.5859643 15.8479286,28.0391786 14.7315,28.0391786 C13.6150714,28.0391786 12.5811429,27.5859643 11.8943571,26.79525 L11.2043571,26.00025 L11.0179286,26.00025 L10.3268571,26.79525 C9.64114286,27.5859643 8.60721429,28.0391786 7.49078571,28.0391786 C6.37435714,28.0391786 5.34042857,27.5859643 4.65364286,26.79525 L3.96364286,26.00025 L3.77721429,26.00025 L3.08614286,26.79525 C2.4015,27.5838214 1.35578571,28.0391786 0.250071429,28.0391786" id="Fill-4" fill="#05BED4"></path>
                <path d="M17.7623571,7.56064286 C17.7623571,9.29528571 16.3566429,10.701 14.622,10.701 C12.8873571,10.701 11.4816429,9.29528571 11.4816429,7.56064286 C11.4816429,5.826 12.8873571,4.42028571 14.622,4.42028571 C16.3566429,4.42028571 17.7623571,5.826 17.7623571,7.56064286" id="Fill-6" fill="#8C8F90"></path>
                <mask id="mask-4" fill="white">
                    <use xlink:href="#path-3"></use>
                </mask>
                <g id="Clip-9"></g>
                <polygon id="Fill-8" fill="#05BED4" mask="url(#mask-4)" points="7.06178571 8.09667857 10.0082143 8.09667857 10.0082143 7.02525 7.06178571 7.02525"></polygon>
                <polygon id="Fill-10" fill="#05BED4" mask="url(#mask-4)" points="19.2353571 8.09667857 22.1828571 8.09667857 22.1828571 7.02525 19.2353571 7.02525"></polygon>
                <polygon id="Fill-11" fill="#05BED4" mask="url(#mask-4)" points="9.65432143 13.2856071 8.89682143 12.5281071 10.98075 10.4441786 11.73825 11.2016786"></polygon>
                <polygon id="Fill-12" fill="#05BED4" mask="url(#mask-4)" points="18.2634643 4.677 17.5059643 3.9195 19.5888214 1.83557143 20.3463214 2.59307143"></polygon>
                <polygon id="Fill-13" fill="#05BED4" mask="url(#mask-4)" points="14.0860714 15.1209643 15.1575 15.1209643 15.1575 12.1745357 14.0860714 12.1745357"></polygon>
                <polygon id="Fill-14" fill="#05BED4" mask="url(#mask-4)" points="14.0860714 2.94739286 15.1575 2.94739286 15.1575 0.000964285715 14.0860714 0.000964285715"></polygon>
                <polygon id="Fill-15" fill="#05BED4" mask="url(#mask-4)" points="19.5891429 13.2856071 17.5062857 11.2016786 18.2637857 10.4441786 20.3466429 12.5281071"></polygon>
                <polygon id="Fill-16" fill="#05BED4" mask="url(#mask-4)" points="10.9810714 4.677 8.89714286 2.59307143 9.65464286 1.83557143 11.7385714 3.9195"></polygon>
            </g>
        </g>
    </g>
</svg>