<?xml version="1.0" encoding="UTF-8" standalone="no"?>
<svg width="29px" height="43px" viewBox="0 0 29 43" version="1.1" xmlns="http://www.w3.org/2000/svg" xmlns:xlink="http://www.w3.org/1999/xlink">
    <!-- Generator: sketchtool 40.3 (33839) - http://www.bohemiancoding.com/sketch -->
    <title>6DAAAF03-DC06-4776-9863-51E2EB157EDA</title>
    <desc>Created with sketchtool.</desc>
    <defs>
        <polygon id="path-1" points="31 23.3210369 31 46.5616069 0 46.5616069 0 23.3210369 0 0.0804669225 31 0.0804669225"></polygon>
    </defs>
    <g id="Page-1" stroke="none" stroke-width="1" fill="none" fill-rule="evenodd">
        <g id="icons" transform="translate(-689.000000, -143.000000)">
            <g id="map-pin" transform="translate(688.000000, 142.000000)">
                <g id="Group-9">
                    <g id="Page-1">
                        <path d="M28.8670009,15.520578 C28.8670009,22.8455653 15.5000284,42.7990481 15.5000284,42.7990481 C15.5000284,42.7990481 2.13305596,22.8455653 2.13305596,15.520578 C2.13305596,8.19559063 8.11762018,2.25757479 15.5000284,2.25757479 C22.8824367,2.25757479 28.8670009,8.19559063 28.8670009,15.520578" id="Fill-1" fill="#FEFEFE"></path>
                        <g id="Group-5" transform="translate(0.000000, 0.060671)">
                            <mask id="mask-2" fill="white">
                                <use xlink:href="#path-1"></use>
                            </mask>
                            <g id="Clip-4"></g>
                            <path d="M15.5,4.31334028 C9.30554587,4.31334028 4.26605505,9.31363358 4.26605505,15.4599068 C4.26605505,16.961307 5.09722477,20.9489559 10.664,30.7878467 C12.4399587,33.9269456 14.2307064,36.8258994 15.5,38.8250855 C16.7692936,36.8258994 18.5600413,33.9269456 20.336,30.7878467 C25.9027752,20.9489559 26.733945,16.961307 26.733945,15.4599068 C26.733945,9.31363358 21.6944541,4.31334028 15.5,4.31334028 L15.5,4.31334028 Z M15.5,43.3125598 L13.8955229,40.9175545 C13.7706789,40.7311078 10.802422,36.2909238 7.78343119,30.9569936 C3.55530275,23.487019 1.5,18.3396629 1.5,15.2206634 C1.5,7.561056 7.78034862,1.32955639 15.5,1.32955639 C23.2196514,1.32955639 29.5,7.561056 29.5,15.2206634 C29.5,18.3396629 27.4446972,23.487019 23.2165688,30.9569936 C20.197578,36.2909238 17.2293211,40.7311078 17.1044771,40.9175545 L15.5,43.3125598 Z" id="Fill-3" fill="#19BED3" mask="url(#mask-2)"></path>
                        </g>
                        <path d="M15.5948202,20.9701202 C12.5615128,20.9701202 10.1025587,18.530292 10.1025587,15.520578 C10.1025587,12.5108639 12.5615128,10.0710357 15.5948202,10.0710357 C18.6281275,10.0710357 21.0870817,12.5108639 21.0870817,15.520578 C21.0870817,18.530292 18.6281275,20.9701202 15.5948202,20.9701202 Z" id="Fill-6"></path>
                        <path d="M15.5948486,11.4819935 C13.3504771,11.4819935 11.5246055,13.2936633 11.5246055,15.520578 C11.5246055,17.7474926 13.3504771,19.5591624 15.5948486,19.5591624 C17.8392202,19.5591624 19.6650917,17.7474926 19.6650917,15.520578 C19.6650917,13.2936633 17.8392202,11.4819935 15.5948486,11.4819935 M15.5948486,22.381078 C11.7822752,22.381078 8.68056881,19.3034969 8.68056881,15.520578 C8.68056881,11.7376591 11.7822752,8.66007793 15.5948486,8.66007793 C19.407422,8.66007793 22.5091284,11.7376591 22.5091284,15.520578 C22.5091284,19.3034969 19.407422,22.381078 15.5948486,22.381078" id="Fill-8" fill="#19BED3"></path>
                    </g>
                </g>
            </g>
        </g>
    </g>
</svg>