<?xml version="1.0" encoding="UTF-8" standalone="no"?>
<svg width="19px" height="18px" viewBox="0 0 19 18" version="1.1" xmlns="http://www.w3.org/2000/svg" xmlns:xlink="http://www.w3.org/1999/xlink">
    <!-- Generator: sketchtool 40.3 (33839) - http://www.bohemiancoding.com/sketch -->
    <title>178C1E35-D796-4B5A-9A3F-873B79E005EA</title>
    <desc>Created with sketchtool.</desc>
    <defs></defs>
    <g id="Page-1" stroke="none" stroke-width="1" fill="none" fill-rule="evenodd">
        <g id="icons" transform="translate(-626.000000, -506.000000)" fill="#DEDFE0">
            <g id="calendar-grey" transform="translate(626.000000, 506.000000)">
                <path d="M16.3611111,14.4404556 C16.3611111,14.9344556 15.9568333,15.3387333 15.4628333,15.3387333 L3.00938889,15.3387333 C2.51538889,15.3387333 2.11111111,14.9344556 2.11111111,14.4404556 L2.11111111,5.57484444 L16.3611111,5.57484444 L16.3611111,14.4404556 Z M16.5806667,1.68301111 L14.5033333,1.68301111 L14.5033333,0.583122222 C14.5033333,0.292844444 14.2658333,0.0553444444 13.9755556,0.0553444444 L12.8535,0.0553444444 C12.5632222,0.0553444444 12.3257222,0.292844444 12.3257222,0.583122222 L12.3257222,1.68301111 L5.86044444,1.68301111 L5.86044444,0.583122222 C5.86044444,0.292844444 5.62294444,0.0553444444 5.33266667,0.0553444444 L4.21166667,0.0553444444 C3.92138889,0.0553444444 3.68388889,0.292844444 3.68388889,0.583122222 L3.68388889,1.68301111 L1.89155556,1.68301111 C0.850777778,1.68301111 0,2.53378889 0,3.57456667 L0,15.8886778 C0,16.9284 0.850777778,17.7802333 1.89155556,17.7802333 L16.5806667,17.7802333 C17.6214444,17.7802333 18.4722222,16.9284 18.4722222,15.8886778 L18.4722222,3.57456667 C18.4722222,2.53378889 17.6214444,1.68301111 16.5806667,1.68301111 L16.5806667,1.68301111 Z" id="Fill-1"></path>
                <path d="M4.09027778,9.55555556 L14.2943333,9.55555556 C14.5846111,9.55555556 14.8221111,9.31805556 14.8221111,9.02777778 L14.8221111,7.90677778 C14.8221111,7.61544444 14.5846111,7.37794444 14.2943333,7.37794444 L4.09027778,7.37794444 C3.8,7.37794444 3.5625,7.61544444 3.5625,7.90677778 L3.5625,9.02777778 C3.5625,9.31805556 3.8,9.55555556 4.09027778,9.55555556" id="Fill-4"></path>
                <path d="M4.09027778,13.1400111 L14.2943333,13.1400111 C14.5846111,13.1400111 14.8221111,12.9025111 14.8221111,12.6122333 L14.8221111,11.4912333 C14.8221111,11.1999 14.5846111,10.9624 14.2943333,10.9624 L4.09027778,10.9624 C3.8,10.9624 3.5625,11.1999 3.5625,11.4912333 L3.5625,12.6122333 C3.5625,12.9025111 3.8,13.1400111 4.09027778,13.1400111" id="Fill-6"></path>
            </g>
        </g>
    </g>
</svg>