<?xml version="1.0" encoding="UTF-8" standalone="no"?>
<svg width="15px" height="14px" viewBox="0 0 15 14" version="1.1" xmlns="http://www.w3.org/2000/svg" xmlns:xlink="http://www.w3.org/1999/xlink">
    <!-- Generator: sketchtool 40.3 (33839) - http://www.bohemiancoding.com/sketch -->
    <title>87232A80-036A-43BA-A76D-39674E54A5FB</title>
    <desc>Created with sketchtool.</desc>
    <defs></defs>
    <g id="Page-1" stroke="none" stroke-width="1" fill="none" fill-rule="evenodd">
        <g id="icons" transform="translate(-605.000000, -214.000000)" fill="#FC5754">
            <path d="M612.13175,227.004006 L606.90875,221.846792 C606.8525,221.801166 606.776,221.726928 606.6785,221.624078 C606.58025,221.521227 606.42575,221.334086 606.2135,221.062654 C606.002,220.791995 605.81225,220.513603 605.64425,220.228251 C605.477,219.942125 605.32775,219.597228 605.1965,219.190467 C605.06525,218.785251 605,218.391636 605,218.008847 C605,216.752216 605.354,215.770883 606.06275,215.06253 C606.7715,214.354177 607.751,214 609.00125,214 C609.347,214 609.70025,214.061092 610.06025,214.184048 C610.42025,214.307005 610.75475,214.473267 611.0645,214.681287 C611.37425,214.890082 611.6405,215.085729 611.864,215.268231 C612.08675,215.450732 612.299,215.644834 612.5,215.850534 C612.701,215.644834 612.91325,215.450732 613.136,215.268231 C613.3595,215.085729 613.62575,214.890082 613.9355,214.681287 C614.24525,214.473267 614.57975,214.307005 614.93975,214.184048 C615.29975,214.061092 615.653,214 615.99875,214 C617.249,214 618.2285,214.354177 618.93725,215.06253 C619.64525,215.770883 620,216.752216 620,218.008847 C620,219.271664 619.361,220.556135 618.083,221.864578 L612.86825,227.004006 C612.76775,227.106856 612.64475,227.157895 612.5,227.157895 C612.35525,227.157895 612.23225,227.106856 612.13175,227.004006 Z" id="favorite-red"></path>
        </g>
    </g>
</svg>