<?xml version="1.0" encoding="UTF-8" standalone="no"?>
<svg width="89px" height="79px" viewBox="0 0 89 79" version="1.1" xmlns="http://www.w3.org/2000/svg" xmlns:xlink="http://www.w3.org/1999/xlink">
    <!-- Generator: sketchtool 40.3 (33839) - http://www.bohemiancoding.com/sketch -->
    <title>54A4A2E4-520E-46E6-9805-6063EB31EC5F</title>
    <desc>Created with sketchtool.</desc>
    <defs></defs>
    <g id="Page-1" stroke="none" stroke-width="1" fill="none" fill-rule="evenodd">
        <g id="icons" transform="translate(-1058.000000, -460.000000)">
            <g id="manage-trip" transform="translate(1058.000000, 460.000000)">
                <path d="M6.35757536,3.51260081 C4.78385086,3.51260081 3.50327111,4.82455721 3.50327111,6.43684098 L3.50327111,60.9840189 C3.50327111,62.5963027 4.78385086,63.9082591 6.35757536,63.9082591 L81.7917795,63.9082591 C83.365504,63.9082591 84.6460837,62.5963027 84.6460837,60.9840189 L84.6460837,6.43684098 C84.6460837,4.82455721 83.365504,3.51260081 81.7917795,3.51260081 L6.35757536,3.51260081 Z M81.7917795,67.4208599 L6.35757536,67.4208599 C2.89298143,67.4208599 0.0746774194,64.533502 0.0746774194,60.9840189 L0.0746774194,6.43684098 C0.0746774194,2.88735786 2.89298143,0 6.35757536,0 L81.7917795,0 C85.2563734,0 88.0746774,2.88735786 88.0746774,6.43684098 L88.0746774,60.9840189 C88.0746774,64.533502 85.2563734,67.4208599 81.7917795,67.4208599 L81.7917795,67.4208599 Z" id="Fill-1" fill="#57BED0"></path>
                <path d="M86.3612844,48.5126008 L1.78984466,48.5126008 C0.843562023,48.5126008 0.0755645161,47.7257782 0.0755645161,46.7563004 C0.0755645161,45.7868226 0.843562023,45 1.78984466,45 L86.3612844,45 C87.307567,45 88.0755645,45.7868226 88.0755645,46.7563004 C88.0755645,47.7257782 87.307567,48.5126008 86.3612844,48.5126008" id="Fill-3" fill="#57BED0"></path>
                <path d="M42.6956452,59.3185038 C40.6544355,59.3185038 39,57.6798755 39,55.6592519 C39,53.6386283 40.6544355,52 42.6956452,52 C44.7377419,52 46.3921774,53.6386283 46.3921774,55.6592519 C46.3921774,57.6798755 44.7377419,59.3185038 42.6956452,59.3185038 Z" id="Fill-5" fill="#EDEDED"></path>
                <path d="M68.8175,78.5126008 L16.7741935,78.5126008 C15.7948387,78.5126008 15,77.7257782 15,76.7563004 C15,75.7868226 15.7948387,75 16.7741935,75 L68.8175,75 C69.7968548,75 70.5916935,75.7868226 70.5916935,76.7563004 C70.5916935,77.7257782 69.7968548,78.5126008 68.8175,78.5126008" id="Fill-7" fill="#57BED0"></path>
                <path d="M42.7741935,78.160172 C41.7948387,78.160172 41,77.3733494 41,76.4038716 L41,65.7563004 C41,64.7868226 41.7948387,64 42.7741935,64 C43.7535484,64 44.5483871,64.7868226 44.5483871,65.7563004 L44.5483871,76.4038716 C44.5483871,77.3733494 43.7535484,78.160172 42.7741935,78.160172" id="Fill-9" fill="#57BED0"></path>
                <path d="M50.9671368,24.4704417 C50.6948716,24.3754437 50.4275675,24.2667835 50.1662417,24.1448746 L49.6030105,24.5388108 C48.8295713,25.074639 47.784048,24.9829504 47.1156775,24.3206808 L46.3636175,23.5848991 C45.7013478,22.9165286 45.6096593,21.8710054 46.1454875,21.0975661 L46.536168,20.5408463 C46.4406683,20.3346538 46.3538504,20.1252056 46.2757143,19.9125017 L45.605046,19.7952976 C44.6797917,19.6276212 44.0053031,18.8245283 44,17.8842184 L44,16.8196139 C44.0037394,15.8780745 44.6785907,15.0731808 45.605046,14.9052791 L46.2757143,14.7880749 C46.35168,14.5710301 46.4384979,14.361582 46.536168,14.1597303 L46.1454875,13.6030105 C45.6096593,12.8295713 45.7013478,11.784048 46.3636175,11.1156775 L47.1156775,10.3636175 C47.784048,9.70134783 48.8295713,9.60965927 49.6030105,10.1454875 L50.162986,10.536168 C50.3691785,10.4406683 50.5786267,10.3538504 50.7913306,10.2757143 L50.9052791,9.60504601 C51.0729554,8.67979173 51.8760483,8.00530313 52.8163582,8 L53.8809628,8 C54.8225021,8.00373941 55.6273958,8.67859073 55.7952976,9.60504601 L55.9125017,10.2757143 C56.1295465,10.35168 56.3389947,10.4384979 56.5408463,10.536168 L57.0975661,10.1454875 C57.8710054,9.60965927 58.9165286,9.70134783 59.5848991,10.3636175 L60.3369592,11.1156775 C60.9992288,11.784048 61.0909174,12.8295713 60.5550892,13.6030105 L60.1611529,14.162986 C60.2832465,14.4242312 60.3919105,14.6915449 60.4867201,14.9638812 C60.6584346,15.4772266 60.381488,16.0325775 59.8681425,16.204292 C59.354797,16.3760065 58.7994462,16.0990599 58.6277317,15.5857144 C58.5141475,15.2343374 58.3658239,14.8951564 58.1849604,14.5732006 C57.9876846,14.242633 58.0029832,13.827021 58.2240284,13.5118517 L58.9532988,12.4798039 L58.2044944,11.7440221 L57.1757022,12.4765482 C56.8647855,12.6941008 56.4560015,12.7118741 56.127376,12.5221276 C55.7104111,12.28175 55.263873,12.0967869 54.7990621,11.9719191 C54.4318663,11.8737398 54.1549798,11.5714508 54.0893257,11.1970693 L53.8711957,9.93061315 L52.8196139,9.93061315 L52.6112509,11.1742796 C52.5455969,11.5486611 52.2687104,11.8509501 51.9015145,11.9491294 C51.4349322,12.0852968 50.9883193,12.2823319 50.5732006,12.5351503 C50.2388341,12.7266979 49.8230975,12.7037431 49.5118517,12.4765482 L48.4667812,11.7440221 L47.7309994,12.4960822 L48.4765482,13.5118517 C48.7037431,13.8230975 48.7266979,14.2388341 48.5351503,14.5732006 C48.2947727,14.9901655 48.1098096,15.4367036 47.9849418,15.9015145 C47.8867625,16.2687104 47.5844735,16.5455969 47.210092,16.6112509 L45.9306132,16.8293809 L45.9306132,17.8809628 L47.1742796,18.0893257 C47.5486611,18.1549798 47.8509501,18.4318663 47.9491294,18.7990621 C48.0852968,19.2656445 48.2823319,19.7122574 48.5351503,20.127376 C48.7248967,20.4560015 48.7071235,20.8647855 48.4895709,21.1757022 L47.7570448,22.2175171 L48.4960822,22.9532988 L49.5118517,22.2240284 C49.8227685,22.0064758 50.2315525,21.9887026 50.5601779,22.178449 C50.8871144,22.3624516 51.231793,22.5129758 51.5889701,22.6277317 C52.1005175,22.7994462 52.3760065,23.3533394 52.2042919,23.8648868 C52.0325774,24.3764342 51.4786842,24.6519232 50.9671368,24.4802087 L50.9671368,24.4704417 Z M68.2742861,27.8205276 C68.2742861,29.6219048 67.1891627,31.2459067 65.5249072,31.9352639 C63.8606517,32.6246211 61.9450108,32.2435765 60.6712448,30.9698104 C59.3974788,29.6960444 59.0164341,27.7804035 59.7057913,26.116148 C60.3951485,24.4518925 62.0191504,23.3667691 63.8205276,23.3667691 C66.2787836,23.3703552 68.2707,25.3622716 68.2742861,27.8205276 L68.2742861,27.8205276 Z M66.3208833,27.8205276 C66.3208833,26.8092281 65.7116912,25.8975077 64.7773723,25.5105002 C63.8430534,25.1234926 62.7676059,25.3374125 62.0525092,26.0525092 C61.3374125,26.7676059 61.1234926,27.8430534 61.5105002,28.7773723 C61.8975077,29.7116912 62.8092281,30.3208833 63.8205276,30.3208833 C65.2006923,30.3190897 66.3190897,29.2006923 66.3208833,27.8205276 L66.3208833,27.8205276 Z M75.8600005,27.1173026 L75.8600005,28.5237526 C75.8618467,29.6176224 75.0755137,30.5537986 73.9977565,30.7408649 L72.9298962,30.9296938 C72.797251,31.3192954 72.6395649,31.6999169 72.4578239,32.0691788 L73.0796571,32.9579771 C73.7095251,33.8522819 73.6036734,35.0702648 72.8289704,35.842502 L71.8359906,36.8354818 C71.0631535,37.6088986 69.8461398,37.7146662 68.9514658,37.0861685 L68.0691788,36.4578239 C67.7009112,36.6392967 67.32139,36.7969774 66.9329495,36.9298962 L66.7473762,37.9977565 C66.55908,39.0748057 65.6236487,39.860513 64.530264,39.8600005 L63.1173026,39.8600005 C62.0263771,39.8573537 61.0945719,39.0723867 60.9067017,37.9977565 L60.7211284,36.9298962 C60.3326594,36.7970528 59.9531334,36.6393701 59.5848991,36.4578239 L58.6863338,37.0829128 C57.7916598,37.7114105 56.5746461,37.605643 55.8018089,36.8322261 L54.8055734,35.8359906 C54.0321566,35.0631535 53.926389,33.8461398 54.5548867,32.9514658 L55.1799757,32.0691788 C55.0026539,31.698485 54.8493218,31.3167859 54.720926,30.9264381 L53.6530658,30.7376092 C52.5765215,30.5507519 51.7905609,29.6163931 51.7908217,28.5237526 L51.7908217,27.1173026 C51.7923392,26.0304926 52.5705882,25.1001561 53.6400431,24.9067017 L54.720926,24.7113614 C54.8538281,24.3229146 55.0115092,23.9433923 55.1929983,23.5751321 L54.5581424,22.6863338 C53.9296447,21.7916598 54.0354122,20.5746461 54.8088291,19.8018089 L55.8018089,18.8088291 C56.5746461,18.0354122 57.7916598,17.9296447 58.6863338,18.5581424 L59.5751321,19.1799757 C59.943579,19.0026153 60.3231148,18.8492785 60.7113614,18.720926 L60.9067017,17.6400431 C61.1001561,16.5705882 62.0304926,15.7923392 63.1173026,15.7908217 L64.5237526,15.7908217 C65.6171374,15.7903093 66.5525686,16.5760166 66.7408649,17.6530658 L66.9264381,18.720926 C67.3168728,18.8490837 67.698587,19.0024219 68.0691788,19.1799757 L68.9579771,18.5581424 C69.8526511,17.9296447 71.0696648,18.0354122 71.842502,18.8088291 L72.8354818,19.8018089 C73.6101847,20.5740461 73.7160365,21.7920289 73.0861685,22.6863338 L72.4643352,23.5751321 C72.6459966,23.9433142 72.8036824,24.3228476 72.9364076,24.7113614 L74.0042678,24.8969347 L74.0042678,24.8969347 C75.0799407,25.0882468 75.8626508,26.0247526 75.8600005,27.1173026 L75.8600005,27.1173026 Z M73.9065977,27.1173026 C73.9069878,26.9722244 73.8022609,26.8482057 73.6591666,26.8242922 L72.0020299,26.5345374 C71.6276484,26.4688833 71.3253595,26.1919968 71.2271801,25.824801 C71.0549875,25.1845052 70.7999774,24.5694165 70.4686086,23.9951137 C70.2816308,23.6681083 70.2993663,23.2627255 70.514188,22.9532988 L71.4908895,21.5761498 C71.5730154,21.4578611 71.5593412,21.2978724 71.4583328,21.1952363 L70.465353,20.2022565 C70.3633064,20.0999747 70.2023632,20.0862189 70.0844394,20.1696998 L68.7072904,21.1464012 C68.3963736,21.3639538 67.9875896,21.381727 67.6589642,21.1919806 C67.0847438,20.8604447 66.4696327,20.6054253 65.8292769,20.4334092 C65.4620811,20.3352298 65.1851946,20.0329408 65.1195405,19.6585594 L64.8135074,17.9786329 C64.7895938,17.8355387 64.6655751,17.7308117 64.520497,17.7312019 L63.1173026,17.7312019 C62.9722244,17.7308117 62.8482057,17.8355387 62.8242922,17.9786329 L62.5345374,19.6357697 C62.4688833,20.0101511 62.1919968,20.3124401 61.824801,20.4106195 C61.1844091,20.5825293 60.5692844,20.8375543 59.9951137,21.1691909 C59.6681083,21.3561688 59.2627255,21.3384333 58.9532988,21.1236115 L57.5761498,20.1469101 C57.457201,20.062948 57.2951037,20.076685 57.1919806,20.1794668 L56.1990008,21.1724466 C56.0979924,21.2750827 56.0843182,21.4350714 56.1664441,21.5533601 L57.1431455,22.9305091 C57.3606982,23.2414259 57.3784714,23.6502099 57.1887249,23.9788353 C56.8572894,24.5531052 56.6022756,25.1682029 56.4301535,25.8085227 C56.3345874,26.1877399 56.0220338,26.4733934 55.6357697,26.5345374 L53.9786329,26.8242922 C53.8355387,26.8482057 53.7308117,26.9722244 53.7312019,27.1173026 L53.7312019,28.5237526 C53.7308117,28.6688308 53.8355387,28.7928495 53.9786329,28.8167631 L55.6357697,29.1065178 C56.0101511,29.1721719 56.3124401,29.4490584 56.4106195,29.8162542 C56.5827063,30.456586 56.8377219,31.0716881 57.1691909,31.6459415 C57.3589373,31.974567 57.3411641,32.383351 57.1236115,32.6942677 L56.1469101,34.0714167 C56.0647841,34.1897054 56.0784584,34.3496941 56.1794668,34.4523303 L57.1724466,35.4453101 C57.2744932,35.5475918 57.4354364,35.5613477 57.5533601,35.4778668 L58.9305091,34.5011654 C59.2414259,34.2836127 59.6502099,34.2658395 59.9788353,34.455586 C60.5531052,34.7870215 61.1682029,35.0420353 61.8085227,35.2141574 C62.1858272,35.3087761 62.4710163,35.6182638 62.5345374,36.0020299 L62.8242922,37.6591666 C62.8482057,37.8022609 62.9722244,37.9069878 63.1173026,37.9065977 L64.5237526,37.9065977 C64.6688308,37.9069878 64.7928495,37.8022609 64.8167631,37.6591666 L65.1065178,36.0020299 C65.1721719,35.6276484 65.4490584,35.3253595 65.8162542,35.2271801 C66.456538,35.0549523 67.0716222,34.7999441 67.6459415,34.4686086 C67.974567,34.2788622 68.383351,34.2966354 68.6942677,34.514188 L70.0714167,35.4908895 C70.1897054,35.5730154 70.3496941,35.5593412 70.4523303,35.4583328 L71.4453101,34.465353 C71.5475918,34.3633064 71.5613477,34.2023632 71.4778668,34.0844394 L70.5011654,32.7072904 C70.2836127,32.3963736 70.2658395,31.9875896 70.455586,31.6589642 C70.7870215,31.0846943 71.0420353,30.4695967 71.2141574,29.8292769 C71.3123368,29.4620811 71.6146257,29.1851946 71.9890072,29.1195405 L73.6591666,28.8135074 C73.8022609,28.7895938 73.9069878,28.6655751 73.9065977,28.520497 L73.9065977,27.1173026 Z" id="Shape" fill="#FF7700"></path>
                <path d="M33.6833065,17.7563004 L12.8870968,17.7563004 C12.3965323,17.7563004 12,17.3637673 12,16.8781502 C12,16.3925331 12.3965323,16 12.8870968,16 L33.6833065,16 C34.1729839,16 34.5704032,16.3925331 34.5704032,16.8781502 C34.5704032,17.3637673 34.1729839,17.7563004 33.6833065,17.7563004" id="Fill-17" fill="#D1D2D4"></path>
                <path d="M33.6833065,22.7563004 L12.8870968,22.7563004 C12.3965323,22.7563004 12,22.3637673 12,21.8781502 C12,21.3925331 12.3965323,21 12.8870968,21 L33.6833065,21 C34.1729839,21 34.5704032,21.3925331 34.5704032,21.8781502 C34.5704032,22.3637673 34.1729839,22.7563004 33.6833065,22.7563004" id="Fill-19" fill="#D1D2D4"></path>
                <path d="M33.6833065,27.7563004 L12.8870968,27.7563004 C12.3965323,27.7563004 12,27.3637673 12,26.8781502 C12,26.3925331 12.3965323,26 12.8870968,26 L33.6833065,26 C34.1729839,26 34.5704032,26.3925331 34.5704032,26.8781502 C34.5704032,27.3637673 34.1729839,27.7563004 33.6833065,27.7563004" id="Fill-21" fill="#D1D2D4"></path>
                <path d="M33.6833065,32.7563004 L12.8870968,32.7563004 C12.3965323,32.7563004 12,32.3637673 12,31.8781502 C12,31.3925331 12.3965323,31 12.8870968,31 L33.6833065,31 C34.1729839,31 34.5704032,31.3925331 34.5704032,31.8781502 C34.5704032,32.3637673 34.1729839,32.7563004 33.6833065,32.7563004" id="Fill-23" fill="#D1D2D4"></path>
            </g>
        </g>
    </g>
</svg>