<?xml version="1.0" encoding="UTF-8" standalone="no"?>
<svg width="18px" height="17px" viewBox="0 0 18 17" version="1.1" xmlns="http://www.w3.org/2000/svg" xmlns:xlink="http://www.w3.org/1999/xlink">
    <!-- Generator: sketchtool 40.3 (33839) - http://www.bohemiancoding.com/sketch -->
    <title>62A775C5-CA5C-495A-B5E6-0E7080B4902E</title>
    <desc>Created with sketchtool.</desc>
    <defs>
        <polygon id="path-1" points="0 16.9716667 17.0609319 16.9716667 17.0609319 0 0 0"></polygon>
    </defs>
    <g id="Page-1" stroke="none" stroke-width="1" fill="none" fill-rule="evenodd">
        <g id="icons" transform="translate(-326.000000, -204.000000)">
            <g id="pnterest-small" transform="translate(326.000000, 204.000000)">
                <g id="Group-3">
                    <mask id="mask-2" fill="white">
                        <use xlink:href="#path-1"></use>
                    </mask>
                    <g id="Clip-2"></g>
                    <path d="M17.0609319,8.5 C17.0609319,13.1943611 13.2416527,17 8.53046595,17 C3.81927917,17 0,13.1943611 0,8.5 C0,3.80563889 3.81927917,0 8.53046595,0 C13.2416527,0 17.0609319,3.80563889 17.0609319,8.5" id="Fill-1" fill="#FFFFFF" mask="url(#mask-2)"></path>
                </g>
                <path d="M8.53069669,1 C4.37373335,1 1.00358423,4.35775598 1.00358423,8.5 C1.00358423,11.6774985 2.9874636,14.3914776 5.78769157,15.4840589 C5.7217007,14.8908645 5.66217048,13.9803801 5.81353415,13.3329246 C5.95059211,12.7475475 6.69633509,9.60453709 6.69633509,9.60453709 C6.69633509,9.60453709 6.47113548,9.15527284 6.47113548,8.49126303 C6.47113548,7.44834457 7.07751312,6.66983446 7.83294707,6.66983446 C8.47531973,6.66983446 8.78543068,7.14990803 8.78543068,7.72608829 C8.78543068,8.36986511 8.37425679,9.33185162 8.16197847,10.2234825 C7.98477222,10.9698038 8.53761881,11.5786327 9.27643967,11.5786327 C10.6142546,11.5786327 11.6428815,10.1729001 11.6428815,8.14408338 C11.6428815,6.34840589 10.3479837,5.09258124 8.49885494,5.09258124 C6.35715125,5.09258124 5.10009439,6.69328633 5.10009439,8.34779277 C5.10009439,8.99202943 5.34929069,9.68362968 5.66032458,10.0593194 C5.7217007,10.1333538 5.73093019,10.1986511 5.71247121,10.2745248 C5.65524836,10.5113427 5.52834284,11.0208461 5.50342321,11.1247701 C5.47065851,11.2622624 5.39405372,11.2912324 5.25145807,11.2254752 C4.31143428,10.7890865 3.72397709,9.41968118 3.72397709,8.31974249 C3.72397709,5.95386266 5.4489692,3.78111588 8.69728902,3.78111588 C11.3078509,3.78111588 13.3374163,5.63519313 13.3374163,8.11281422 C13.3374163,10.6975782 11.7014888,12.777897 9.43149514,12.777897 C8.6686776,12.777897 7.95200752,12.3828939 7.70650302,11.9166156 C7.70650302,11.9166156 7.32901679,13.3485592 7.23764481,13.6994175 C7.06736068,14.3510116 6.60865491,15.1676885 6.30177429,15.6656959 C7.00598456,15.8827406 7.75449638,16 8.53069669,16 C12.6871986,16 16.0573477,12.642244 16.0573477,8.5 C16.0573477,4.35775598 12.6871986,1 8.53069669,1" id="Fill-4" fill="#AA252A"></path>
            </g>
        </g>
    </g>
</svg>