<?xml version="1.0" encoding="UTF-8" standalone="no"?>
<svg width="17px" height="16px" viewBox="0 0 17 16" version="1.1" xmlns="http://www.w3.org/2000/svg" xmlns:xlink="http://www.w3.org/1999/xlink">
    <!-- Generator: sketchtool 40.3 (33839) - http://www.bohemiancoding.com/sketch -->
    <title>05873DE6-E403-4125-B456-F13BD7FE9407</title>
    <desc>Created with sketchtool.</desc>
    <defs></defs>
    <g id="Page-1" stroke="none" stroke-width="1" fill="none" fill-rule="evenodd">
        <g id="icons" transform="translate(-327.000000, -163.000000)" fill="#4F5758">
            <path d="M327.872466,172.018 C327.872466,170.477992 328.250462,169.08734 329.006466,167.846 C329.76247,166.60466 330.803126,165.636337 332.128466,164.941 C333.453806,164.245663 334.928458,163.898 336.552466,163.898 C338.540476,163.898 340.14346,164.448661 341.361466,165.55 C342.579472,166.651339 343.188466,168.125991 343.188466,169.974 C343.188466,171.411341 342.78247,172.629328 341.970466,173.628 C341.158462,174.626672 340.243804,175.126 339.226466,175.126 C338.638463,175.126 338.197467,174.967335 337.903466,174.65 C337.609464,174.332665 337.453133,173.917336 337.434466,173.404 C336.743796,174.552006 335.801139,175.126 334.606466,175.126 C333.645128,175.126 332.863469,174.743337 332.261466,173.978 C331.659463,173.212663 331.442465,172.251339 331.610466,171.094 C331.778467,169.936661 332.282462,168.994004 333.122466,168.266 C333.96247,167.537996 334.919127,167.174 335.992466,167.174 C337.065805,167.174 337.898796,167.52633 338.491466,168.231 C339.084136,168.93567 339.301133,169.829328 339.142466,170.912 L338.834466,172.998 C338.759799,173.502003 338.932464,173.754 339.352466,173.754 C339.856468,173.754 340.346464,173.392337 340.822466,172.669 C341.298468,171.945663 341.536466,171.042672 341.536466,169.96 C341.536466,168.522659 341.074471,167.367671 340.150466,166.495 C339.226461,165.622329 337.957141,165.186 336.342466,165.186 C334.373123,165.186 332.742139,165.843993 331.449466,167.16 C330.156793,168.476007 329.510466,170.095324 329.510466,172.018 C329.510466,173.660675 330.023794,174.941662 331.050466,175.861 C332.077138,176.780338 333.486457,177.258666 335.278466,177.296 L334.956466,178.584 C332.837789,178.546666 331.127472,177.944673 329.825466,176.778 C328.523459,175.611328 327.872466,174.024677 327.872466,172.018 L327.872466,172.018 Z M334.998466,173.754 C335.586469,173.754 336.13013,173.506669 336.629466,173.012 C337.128802,172.517331 337.434465,171.894337 337.546466,171.143 C337.658467,170.391663 337.534801,169.771002 337.175466,169.281 C336.816131,168.790998 336.342469,168.546 335.754466,168.546 C335.166463,168.546 334.622802,168.790998 334.123466,169.281 C333.62413,169.771002 333.318467,170.393996 333.206466,171.15 C333.094465,171.906004 333.218131,172.528998 333.577466,173.019 C333.936801,173.509002 334.410463,173.754 334.998466,173.754 L334.998466,173.754 Z" id="email"></path>
        </g>
    </g>
</svg>