<?xml version="1.0" encoding="UTF-8" standalone="no"?>
<svg width="19px" height="18px" viewBox="0 0 19 18" version="1.1" xmlns="http://www.w3.org/2000/svg" xmlns:xlink="http://www.w3.org/1999/xlink">
    <!-- Generator: sketchtool 40.3 (33839) - http://www.bohemiancoding.com/sketch -->
    <title>3D621BF3-AAC2-4B5D-9387-43FAC0D7C929</title>
    <desc>Created with sketchtool.</desc>
    <defs>
        <polygon id="path-1" points="18.4722222 9.08210556 18.4722222 17.9444444 0 17.9444444 0 9.08210556 0 0.219766667 18.4722222 0.219766667 18.4722222 9.08210556"></polygon>
    </defs>
    <g id="Page-1" stroke="none" stroke-width="1" fill="none" fill-rule="evenodd">
        <g id="icons" transform="translate(-668.000000, -506.000000)">
            <g id="calendar-blue" transform="translate(668.000000, 505.000000)">
                <g id="Group-21">
                    <g id="Group-3" transform="translate(0.000000, 0.835578)">
                        <mask id="mask-2" fill="white">
                            <use xlink:href="#path-1"></use>
                        </mask>
                        <g id="Clip-2"></g>
                        <path d="M16.3611111,14.6048778 C16.3611111,15.0988778 15.9568333,15.5031556 15.4628333,15.5031556 L3.00938889,15.5031556 C2.51538889,15.5031556 2.11111111,15.0988778 2.11111111,14.6048778 L2.11111111,5.73926667 L16.3611111,5.73926667 L16.3611111,14.6048778 Z M16.5806667,1.84743333 L14.5033333,1.84743333 L14.5033333,0.747544444 C14.5033333,0.457266667 14.2658333,0.219766667 13.9755556,0.219766667 L12.8535,0.219766667 C12.5632222,0.219766667 12.3257222,0.457266667 12.3257222,0.747544444 L12.3257222,1.84743333 L5.86044444,1.84743333 L5.86044444,0.747544444 C5.86044444,0.457266667 5.62294444,0.219766667 5.33266667,0.219766667 L4.21166667,0.219766667 C3.92138889,0.219766667 3.68388889,0.457266667 3.68388889,0.747544444 L3.68388889,1.84743333 L1.89155556,1.84743333 C0.850777778,1.84743333 0,2.69821111 0,3.73898889 L0,16.0531 C0,17.0928222 0.850777778,17.9446556 1.89155556,17.9446556 L16.5806667,17.9446556 C17.6214444,17.9446556 18.4722222,17.0928222 18.4722222,16.0531 L18.4722222,3.73898889 C18.4722222,2.69821111 17.6214444,1.84743333 16.5806667,1.84743333 L16.5806667,1.84743333 Z" id="Fill-1" fill="#1ABDD3" mask="url(#mask-2)"></path>
                    </g>
                    <path d="M4.09027778,10.5555556 L14.2943333,10.5555556 C14.5846111,10.5555556 14.8221111,10.3180556 14.8221111,10.0277778 L14.8221111,8.90677778 C14.8221111,8.61544444 14.5846111,8.37794444 14.2943333,8.37794444 L4.09027778,8.37794444 C3.8,8.37794444 3.5625,8.61544444 3.5625,8.90677778 L3.5625,10.0277778 C3.5625,10.3180556 3.8,10.5555556 4.09027778,10.5555556" id="Fill-4" fill="#1ABDD3"></path>
                    <path d="M4.09027778,14.1400111 L14.2943333,14.1400111 C14.5846111,14.1400111 14.8221111,13.9025111 14.8221111,13.6122333 L14.8221111,12.4912333 C14.8221111,12.1999 14.5846111,11.9624 14.2943333,11.9624 L4.09027778,11.9624 C3.8,11.9624 3.5625,12.1999 3.5625,12.4912333 L3.5625,13.6122333 C3.5625,13.9025111 3.8,14.1400111 4.09027778,14.1400111" id="Fill-6" fill="#1ABDD3"></path>
                </g>
            </g>
        </g>
    </g>
</svg>