<?xml version="1.0" encoding="UTF-8" standalone="no"?>
<svg width="14px" height="14px" viewBox="0 0 14 14" version="1.1" xmlns="http://www.w3.org/2000/svg" xmlns:xlink="http://www.w3.org/1999/xlink">
    <!-- Generator: sketchtool 40.3 (33839) - http://www.bohemiancoding.com/sketch -->
    <title>61AF11C0-57EF-4550-A84F-30E493E51673</title>
    <desc>Created with sketchtool.</desc>
    <defs></defs>
    <g id="Page-1" stroke="none" stroke-width="1" fill="none" fill-rule="evenodd">
        <g id="icons" transform="translate(-806.000000, -470.000000)" fill="#8C8F90">
            <g id="drag-active" transform="translate(806.000000, 470.000000)">
                <ellipse id="Oval-3" cx="1" cy="1" rx="1" ry="1"></ellipse>
                <ellipse id="Oval-3-Copy-4" cx="1" cy="5" rx="1" ry="1"></ellipse>
                <ellipse id="Oval-3-Copy" cx="5" cy="1" rx="1" ry="1"></ellipse>
                <ellipse id="Oval-3-Copy-5" cx="5" cy="5" rx="1" ry="1"></ellipse>
                <ellipse id="Oval-3-Copy-2" cx="9" cy="1" rx="1" ry="1"></ellipse>
                <ellipse id="Oval-3-Copy-6" cx="9" cy="5" rx="1" ry="1"></ellipse>
                <ellipse id="Oval-3-Copy-3" cx="13" cy="1" rx="1" ry="1"></ellipse>
                <ellipse id="Oval-3-Copy-7" cx="13" cy="5" rx="1" ry="1"></ellipse>
                <ellipse id="Oval-3-Copy-11" cx="1" cy="9" rx="1" ry="1"></ellipse>
                <circle id="Oval-3-Copy-10" cx="5" cy="9" r="1"></circle>
                <circle id="Oval-3-Copy-9" cx="9" cy="9" r="1"></circle>
                <circle id="Oval-3-Copy-8" cx="13" cy="9" r="1"></circle>
                <ellipse id="Oval-3-Copy-15" cx="1" cy="13" rx="1" ry="1"></ellipse>
                <circle id="Oval-3-Copy-14" cx="5" cy="13" r="1"></circle>
                <circle id="Oval-3-Copy-13" cx="9" cy="13" r="1"></circle>
                <circle id="Oval-3-Copy-12" cx="13" cy="13" r="1"></circle>
            </g>
        </g>
    </g>
</svg>