<?xml version="1.0" encoding="UTF-8" standalone="no"?>
<svg width="38px" height="38px" viewBox="0 0 38 38" version="1.1" xmlns="http://www.w3.org/2000/svg" xmlns:xlink="http://www.w3.org/1999/xlink">
    <!-- Generator: sketchtool 40.3 (33839) - http://www.bohemiancoding.com/sketch -->
    <title>4DC46B57-B240-4231-B15B-88E12454F01A</title>
    <desc>Created with sketchtool.</desc>
    <defs>
        <polygon id="path-1" points="37.876 37.8755 37.876 0 0.0002 0 0.0002 37.8755 37.876 37.8755"></polygon>
    </defs>
    <g id="Page-1" stroke="none" stroke-width="1" fill="none" fill-rule="evenodd">
        <g id="icons-2" transform="translate(-425.000000, -666.000000)">
            <g id="options" transform="translate(425.000000, 666.000000)">
                <mask id="mask-2" fill="white">
                    <use xlink:href="#path-1"></use>
                </mask>
                <g id="Clip-2"></g>
                <path d="M15.1162,31.6865 L17.8612,34.4315 C18.4552,35.0255 19.4222,35.0255 20.0152,34.4315 L24.5722,29.8745 C24.9912,29.4565 25.6122,29.3235 26.1682,29.5345 C26.7202,29.7455 27.0972,30.2605 27.1302,30.8515 C27.1792,31.7225 27.5432,32.5395 28.1542,33.1505 C29.4882,34.4845 31.8172,34.4845 33.1512,33.1505 C34.5292,31.7725 34.5292,29.5305 33.1512,28.1525 C32.5402,27.5405 31.7232,27.1775 30.8532,27.1295 C30.2622,27.0965 29.7462,26.7195 29.5352,26.1665 C29.3242,25.6145 29.4572,24.9895 29.8762,24.5715 L34.4322,20.0145 C35.0262,19.4205 35.0262,18.4545 34.4322,17.8605 L29.8762,13.3035 C29.4572,12.8855 29.3242,12.2605 29.5352,11.7075 C29.7452,11.1565 30.2622,10.7795 30.8522,10.7455 C31.7232,10.6965 32.5402,10.3325 33.1512,9.7215 C34.5292,8.3435 34.5292,6.1015 33.1512,4.7235 C31.7732,3.3465 29.5312,3.3465 28.1542,4.7235 C27.5422,5.3355 27.1792,6.1525 27.1302,7.0225 C27.0962,7.6135 26.7202,8.1285 26.1672,8.3395 C25.6122,8.5515 24.9892,8.4175 24.5722,7.9995 L20.0152,3.4425 C19.4212,2.8485 18.4542,2.8485 17.8612,3.4425 L13.3042,7.9995 C12.8872,8.4175 12.2632,8.5515 11.7082,8.3395 C11.1562,8.1285 10.7792,7.6135 10.7462,7.0225 C10.6972,6.1525 10.3332,5.3345 9.7212,4.7235 C8.3452,3.3455 6.1022,3.3475 4.7242,4.7235 C3.3472,6.1015 3.3472,8.3435 4.7252,9.7215 C5.3362,10.3325 6.1532,10.6965 7.0242,10.7455 C7.6152,10.7795 8.1312,11.1565 8.3412,11.7075 C8.5522,12.2605 8.4192,12.8855 8.0002,13.3035 L3.4442,17.8605 C2.8502,18.4545 2.8502,19.4205 3.4442,20.0145 L6.1892,22.7585 C6.4712,22.2705 6.8182,21.8175 7.2202,21.4145 C8.4552,20.1795 10.0962,19.4995 11.8412,19.4995 C13.5862,19.4995 15.2272,20.1795 16.4612,21.4145 C19.0082,23.9605 19.0092,28.1065 16.4612,30.6545 C16.0582,31.0575 15.6052,31.4035 15.1162,31.6865 M18.9382,37.8755 C17.7802,37.8755 16.6222,37.4345 15.7402,36.5525 L11.2892,32.1015 C10.8792,31.6925 10.7422,31.0825 10.9362,30.5375 C11.1312,29.9915 11.6222,29.6065 12.1992,29.5485 C13.0172,29.4655 13.7582,29.1145 14.3412,28.5325 C15.7182,27.1555 15.7182,24.9135 14.3402,23.5355 C13.0052,22.2015 10.6772,22.2015 9.3422,23.5355 C8.7612,24.1175 8.4092,24.8575 8.3262,25.6755 C8.2682,26.2515 7.8842,26.7445 7.3382,26.9385 C6.7932,27.1335 6.1832,26.9955 5.7742,26.5855 L1.3232,22.1355 C-0.4408,20.3725 -0.4408,17.5025 1.3232,15.7395 L4.1012,12.9605 C3.5552,12.6645 3.0502,12.2895 2.6032,11.8425 C0.0562,9.2945 0.0562,5.1495 2.6032,2.6025 C5.1512,0.0545 9.2972,0.0565 11.8432,2.6025 C12.2892,3.0485 12.6642,3.5535 12.9612,4.0995 L15.7402,1.3215 C16.5922,0.4685 17.7272,-0.0005 18.9382,-0.0005 C20.1482,-0.0005 21.2842,0.4685 22.1362,1.3215 L24.9152,4.0995 C25.2112,3.5535 25.5862,3.0485 26.0322,2.6025 L26.0332,2.6025 C28.5792,0.0565 32.7252,0.0555 35.2722,2.6025 C37.8202,5.1505 37.8202,9.2945 35.2722,11.8425 C34.8262,12.2895 34.3212,12.6645 33.7752,12.9595 L36.5532,15.7395 C38.3172,17.5025 38.3172,20.3725 36.5532,22.1355 L33.7762,24.9145 C34.3212,25.2095 34.8262,25.5845 35.2722,26.0315 C37.8202,28.5795 37.8202,32.7235 35.2722,35.2715 C34.0392,36.5055 32.3982,37.1855 30.6532,37.1855 C28.9082,37.1855 27.2662,36.5055 26.0332,35.2715 C25.5862,34.8255 25.2112,34.3205 24.9152,33.7745 L22.1372,36.5525 C21.2552,37.4345 20.0962,37.8755 18.9382,37.8755" id="Fill-1" fill="#56BDD2" mask="url(#mask-2)"></path>
            </g>
        </g>
    </g>
</svg>