<?xml version="1.0" encoding="UTF-8" standalone="no"?>
<svg width="37px" height="37px" viewBox="0 0 37 37" version="1.1" xmlns="http://www.w3.org/2000/svg" xmlns:xlink="http://www.w3.org/1999/xlink">
    <!-- Generator: sketchtool 40.3 (33839) - http://www.bohemiancoding.com/sketch -->
    <title>1B1F9D8C-59DC-4AF5-85A1-0CC52B52506F</title>
    <desc>Created with sketchtool.</desc>
    <defs>
        <ellipse id="path-1" cx="16.5" cy="16.5739868" rx="16.5" ry="16.5"></ellipse>
        <mask id="mask-2" maskContentUnits="userSpaceOnUse" maskUnits="objectBoundingBox" x="-1.6" y="-1.6" width="36.2" height="36.2">
            <rect x="-1.6" y="-1.52601318" width="36.2" height="36.2" fill="white"></rect>
            <use xlink:href="#path-1" fill="black"></use>
        </mask>
    </defs>
    <g id="Page-1" stroke="none" stroke-width="1" fill="none" fill-rule="evenodd">
        <g id="icons" transform="translate(-496.000000, -888.000000)">
            <g id="google+" transform="translate(498.000000, 890.000000)">
                <use id="Oval-18-Copy-4" stroke="#19BED3" mask="url(#mask-2)" stroke-width="3.2" xlink:href="#path-1"></use>
                <path d="M14.9203291,13.2012246 C14.7485857,11.8857299 13.76091,10.8293568 12.766907,10.7995277 C11.7732052,10.7696986 11.1064187,11.7766577 11.2784635,13.0927551 C11.4499057,14.4091538 12.3944948,15.5004781 13.3887991,15.5303073 C14.3818983,15.5604377 15.0917713,14.5179246 14.9203291,13.2012246 L14.9203291,13.2012246 Z M13.2565265,18.0850668 C11.7756157,18.069399 10.4489726,18.9956086 10.4489726,20.1083255 C10.4489726,21.2436403 11.518603,22.0737338 12.9995139,22.0737338 C15.0809243,22.0737338 15.8067665,21.301792 15.8067665,20.1664773 C15.8067665,20.0296851 15.7898935,19.8956046 15.7594617,19.7648386 C15.5967574,19.122759 15.0203622,18.8042803 14.2161809,18.2408412 C13.9239157,18.1450264 13.6021226,18.0892851 13.2565265,18.0850668 L13.2565265,18.0850668 Z M15.0206635,10.9956768 C15.8317748,11.4566725 16.307233,12.2051125 16.307233,13.183749 C16.307233,14.0063099 15.8127926,14.6538129 15.1749313,15.1566899 C14.5524365,15.646912 14.4340239,15.8524016 14.4340239,16.2694068 C14.4340239,16.6249459 15.1011117,17.230869 15.4497209,17.4791438 C16.4690335,18.2061912 16.7703378,18.8808116 16.7703378,20.0070873 C16.7703378,21.4123707 15.4497209,22.9818651 13.0073478,22.9818651 C10.8644713,22.9818651 9,21.9297103 9,20.5247281 C9,19.0977507 10.7059852,17.7210912 12.8485604,17.7210912 C13.0820713,17.7210912 13.2956961,17.7114494 13.5171548,17.7114494 C13.2239857,17.4240051 12.9922826,17.0660555 12.9922826,16.6312733 C12.9922826,16.3736581 13.0739361,16.1145364 13.1878291,15.8939816 C13.0712243,15.9024181 12.9525104,15.8831346 12.8301809,15.8831346 C11.0702622,15.8831346 9.89125826,14.5772816 9.89125826,13.0132107 C9.89125826,11.4828859 11.519507,10.0739868 13.2492952,10.0739868 L17.1074974,10.0739868 L16.2439591,10.9956768 L15.0206635,10.9956768 Z M21.3426313,13.3148164 L21.3426313,15.6050307 L20.4281726,15.6050307 L20.4281726,13.3148164 L18.1424778,13.3148164 L18.1424778,12.3783625 L20.4281726,12.3783625 L20.4281726,10.0884494 L21.3426313,10.0884494 L21.3426313,12.3783625 L23.6283261,12.3783625 L23.6283261,13.3148164 L21.3426313,13.3148164 Z" id="Fill-5" fill="#FFFFFF"></path>
            </g>
        </g>
    </g>
</svg>