<?xml version="1.0" encoding="UTF-8" standalone="no"?>
<svg width="45px" height="41px" viewBox="0 0 45 41" version="1.1" xmlns="http://www.w3.org/2000/svg" xmlns:xlink="http://www.w3.org/1999/xlink">
    <!-- Generator: sketchtool 40.3 (33839) - http://www.bohemiancoding.com/sketch -->
    <title>371F2B71-D70D-41A3-B2C9-E2648BC7DC0A</title>
    <desc>Created with sketchtool.</desc>
    <defs>
        <polygon id="path-1" points="20.1769 41 0 41 0 0.646 20.1769 0.646 40.3538 0.646 40.3538 41 20.1769 41"></polygon>
    </defs>
    <g id="Page-1" stroke="none" stroke-width="1" fill="none" fill-rule="evenodd">
        <g id="icons-2" transform="translate(-920.000000, -796.000000)">
            <g id="money" transform="translate(920.000000, 795.000000)">
                <g id="Group-3" transform="translate(0.000000, 0.353500)">
                    <mask id="mask-2" fill="white">
                        <use xlink:href="#path-1"></use>
                    </mask>
                    <g id="Clip-2"></g>
                    <path d="M20.1768,41 C9.0508,41 -0.0002,31.949 -0.0002,20.823 C-0.0002,15.646 1.9578,10.725 5.5128,6.965 C9.3648,2.891 14.5728,0.646 20.1778,0.646 C21.0058,0.646 21.6778,1.318 21.6778,2.146 C21.6778,2.975 21.0058,3.646 20.1778,3.646 C15.4058,3.646 10.9728,5.557 7.6928,9.025 C4.6668,12.227 2.9998,16.416 2.9998,20.823 C2.9998,30.295 10.7048,38 20.1768,38 C29.6488,38 37.3538,30.295 37.3538,20.823 C37.3538,19.995 38.0258,19.323 38.8538,19.323 C39.6818,19.323 40.3538,19.995 40.3538,20.823 C40.3538,31.949 31.3028,41 20.1768,41" id="Fill-1" fill="#56BDD2" mask="url(#mask-2)"></path>
                </g>
                <path d="M42.9854,27.4082 C42.5674,27.4082 42.1524,27.2352 41.8554,26.8952 L38.7024,23.2922 L35.1714,26.3822 C34.5474,26.9282 33.6004,26.8652 33.0544,26.2402 C32.5084,25.6172 32.5724,24.6702 33.1964,24.1242 L37.8564,20.0472 C38.4794,19.5012 39.4264,19.5632 39.9724,20.1882 L44.1134,24.9212 C44.6594,25.5442 44.5954,26.4912 43.9714,27.0372 C43.6874,27.2862 43.3364,27.4082 42.9854,27.4082" id="Fill-4" fill="#56BDD2"></path>
                <path d="M20.1797,21.3295 C18.9577,20.9045 17.8747,20.5335 17.8747,19.0995 C17.8747,17.9525 18.7247,17.3155 19.8397,17.1345 L19.8397,15.8075 L20.9547,15.8075 L20.9547,17.1025 C21.5917,17.1555 22.1757,17.3155 22.6117,17.4745 L22.3037,18.7595 C21.6657,18.4725 20.9447,18.3555 20.5517,18.3555 C19.9137,18.3555 19.4677,18.5895 19.4677,19.0995 C19.4677,19.5985 20.0627,19.8425 20.7637,20.0555 C22.0487,20.4485 22.8667,21.1175 22.8667,22.2535 C22.8667,23.3795 22.0907,24.1645 20.9547,24.3565 L20.9547,25.6835 L19.8397,25.6835 L19.8397,24.3885 C19.0537,24.3245 18.2887,24.1335 17.8217,23.8895 L18.1407,22.6885 C18.8307,22.9755 19.6267,23.1345 20.2647,23.1345 C20.9227,23.1345 21.2947,22.8165 21.2947,22.3595 C21.2947,21.8605 20.9017,21.5845 20.1797,21.3295 M20.3297,29.4665 C25.0607,29.4665 28.8967,25.6315 28.8967,20.9005 C28.8967,16.1695 25.0607,12.3345 20.3297,12.3345 C15.5987,12.3345 11.7637,16.1695 11.7637,20.9005 C11.7637,25.6315 15.5987,29.4665 20.3297,29.4665" id="Fill-6" fill="#56BDD2"></path>
            </g>
        </g>
    </g>
</svg>