<?xml version="1.0" encoding="UTF-8" standalone="no"?>
<svg width="43px" height="42px" viewBox="0 0 43 42" version="1.1" xmlns="http://www.w3.org/2000/svg" xmlns:xlink="http://www.w3.org/1999/xlink">
    <!-- Generator: sketchtool 40.3 (33839) - http://www.bohemiancoding.com/sketch -->
    <title>65AFB5B7-992A-4673-B5E1-DE666D371E68</title>
    <desc>Created with sketchtool.</desc>
    <defs>
        <polygon id="path-1" points="0 42 42.485 42 42.485 0.583 0 0.583"></polygon>
    </defs>
    <g id="Page-1" stroke="none" stroke-width="1" fill="none" fill-rule="evenodd">
        <g id="icons-2" transform="translate(-751.000000, -662.000000)">
            <g id="comments" transform="translate(751.000000, 661.000000)">
                <g id="Group-3" transform="translate(0.000000, 0.417000)">
                    <mask id="mask-2" fill="white">
                        <use xlink:href="#path-1"></use>
                    </mask>
                    <g id="Clip-2"></g>
                    <path d="M4.3535,3.583 C3.6075,3.583 2.9995,4.19 2.9995,4.937 L2.9995,27.58 C2.9995,28.326 3.6075,28.934 4.3535,28.934 L7.3125,28.934 C7.7115,28.934 8.0945,29.093 8.3765,29.376 C8.6585,29.66 8.8155,30.044 8.8125,30.443 L8.7685,37.16 L17.6795,29.309 C17.9535,29.066 18.3055,28.934 18.6705,28.934 L38.1315,28.934 C38.8775,28.934 39.4855,28.326 39.4855,27.58 L39.4855,4.937 C39.4855,4.19 38.8775,3.583 38.1315,3.583 L4.3535,3.583 Z M7.2465,42 C7.0355,42 6.8235,41.956 6.6245,41.865 C6.0855,41.62 5.7425,41.081 5.7465,40.49 L5.8025,31.934 L4.3535,31.934 C1.9535,31.934 -0.0005,29.98 -0.0005,27.58 L-0.0005,4.937 C-0.0005,2.536 1.9535,0.583 4.3535,0.583 L38.1315,0.583 C40.5325,0.583 42.4855,2.536 42.4855,4.937 L42.4855,27.58 C42.4855,29.98 40.5325,31.934 38.1315,31.934 L19.2375,31.934 L8.2375,41.625 C7.9575,41.872 7.6045,42 7.2465,42 L7.2465,42 Z" id="Fill-1" fill="#56BDD2" mask="url(#mask-2)"></path>
                </g>
                <path d="M22.4004,10.919 L8.5424,10.919 C7.9894,10.919 7.5424,10.472 7.5424,9.919 C7.5424,9.366 7.9894,8.919 8.5424,8.919 L22.4004,8.919 C22.9534,8.919 23.4004,9.366 23.4004,9.919 C23.4004,10.472 22.9534,10.919 22.4004,10.919" id="Fill-4" fill="#56BDD2"></path>
                <path d="M22.4004,16.4961 L8.5424,16.4961 C7.9894,16.4961 7.5424,16.0491 7.5424,15.4961 C7.5424,14.9431 7.9894,14.4961 8.5424,14.4961 L22.4004,14.4961 C22.9534,14.4961 23.4004,14.9431 23.4004,15.4961 C23.4004,16.0491 22.9534,16.4961 22.4004,16.4961" id="Fill-6" fill="#56BDD2"></path>
                <path d="M22.4004,22.0732 L8.5424,22.0732 C7.9894,22.0732 7.5424,21.6262 7.5424,21.0732 C7.5424,20.5202 7.9894,20.0732 8.5424,20.0732 L22.4004,20.0732 C22.9534,20.0732 23.4004,20.5202 23.4004,21.0732 C23.4004,21.6262 22.9534,22.0732 22.4004,22.0732" id="Fill-8" fill="#56BDD2"></path>
            </g>
        </g>
    </g>
</svg>