<?xml version="1.0" encoding="UTF-8" standalone="no"?>
<svg width="30px" height="29px" viewBox="0 0 30 29" version="1.1" xmlns="http://www.w3.org/2000/svg" xmlns:xlink="http://www.w3.org/1999/xlink">
    <!-- Generator: sketchtool 40.3 (33839) - http://www.bohemiancoding.com/sketch -->
    <title>69B830A8-302F-4390-978B-DB0C998F8931</title>
    <desc>Created with sketchtool.</desc>
    <defs></defs>
    <g id="Page-1" stroke="none" stroke-width="1" fill="none" fill-rule="evenodd">
        <g id="icons" transform="translate(-534.000000, -672.000000)">
            <g id="nightlife" transform="translate(534.000000, 672.000000)">
                <path d="M13.5267857,2.09796429 C6.65892857,2.09796429 1.07142857,7.68546429 1.07142857,14.5533214 C1.07142857,21.4211786 6.65892857,27.0086786 13.5267857,27.0086786 C20.3946429,27.0086786 25.9821429,21.4211786 25.9821429,14.5533214 C25.9821429,7.68546429 20.3946429,2.09796429 13.5267857,2.09796429 M13.5267857,28.0801071 C6.0675,28.0801071 0,22.0115357 0,14.5533214 C0,7.09510714 6.0675,1.02653571 13.5267857,1.02653571 C20.9860714,1.02653571 27.0535714,7.09510714 27.0535714,14.5533214 C27.0535714,22.0115357 20.9860714,28.0801071 13.5267857,28.0801071" id="Fill-1" fill="#fff"></path>
                <path d="M4.28571429,14.5533214 L3.21428571,14.5533214 C3.21428571,8.81796429 7.83964286,4.15189286 13.5267857,4.15189286 L13.5267857,5.22332143 C8.43107143,5.22332143 4.28571429,9.40832143 4.28571429,14.5533214" id="Fill-3" fill="#fff"></path>
                <path d="M6.71946429,14.5533214 L5.64803571,14.5533214 C5.64803571,10.17225 9.18267857,6.60760714 13.5273214,6.60760714 L13.5273214,7.67903571 C9.77410714,7.67903571 6.71946429,10.7626071 6.71946429,14.5533214" id="Fill-5" fill="#fff"></path>
                <path d="M13.5267857,10.93725 C11.5328571,10.93725 9.91071429,12.5593929 9.91071429,14.5533214 C9.91071429,16.54725 11.5328571,18.1693929 13.5267857,18.1693929 C15.5207143,18.1693929 17.1428571,16.54725 17.1428571,14.5533214 C17.1428571,12.5593929 15.5207143,10.93725 13.5267857,10.93725 M13.5267857,19.2408214 C10.9425,19.2408214 8.83928571,17.1386786 8.83928571,14.5533214 C8.83928571,11.9679643 10.9425,9.86582143 13.5267857,9.86582143 C16.1110714,9.86582143 18.2142857,11.9679643 18.2142857,14.5533214 C18.2142857,17.1386786 16.1110714,19.2408214 13.5267857,19.2408214" id="Fill-7" fill="#fff"></path>
                <path d="M16.116,14.5535357 C16.116,15.9838929 14.9567143,17.1431786 13.5263571,17.1431786 C12.0970714,17.1431786 10.9377857,15.9838929 10.9377857,14.5535357 C10.9377857,13.1231786 12.0970714,11.9638929 13.5263571,11.9638929 C14.9567143,11.9638929 16.116,13.1231786 16.116,14.5535357" id="Fill-9" fill="#fff"></path>
                <polygon id="Fill-11" fill="#fff" points="19.5243214 19.2193929 19.2253929 18.1908214 28.61325 15.4651071 26.5689643 2.19760714 27.6275357 2.03475 29.8143214 16.2311786"></polygon>
                <path d="M29.2146429,2.1165 C29.2146429,3.28542857 28.2675,4.23257143 27.0985714,4.23257143 C25.9296429,4.23257143 24.9814286,3.28542857 24.9814286,2.1165 C24.9814286,0.947571429 25.9296429,0.000428571428 27.0985714,0.000428571428 C28.2675,0.000428571428 29.2146429,0.947571429 29.2146429,2.1165" id="Fill-13" fill="#fff"></path>
                <path d="M20.7771429,18.7053214 C20.7771429,19.4799643 20.1492857,20.1078214 19.3746429,20.1078214 C18.6,20.1078214 17.9721429,19.4799643 17.9721429,18.7053214 C17.9721429,17.9306786 18.6,17.3028214 19.3746429,17.3028214 C20.1492857,17.3028214 20.7771429,17.9306786 20.7771429,18.7053214" id="Fill-15" fill="#fff"></path>
            </g>
        </g>
    </g>
</svg>