<?xml version="1.0" encoding="UTF-8" standalone="no"?>
<svg width="37px" height="37px" viewBox="0 0 37 37" version="1.1" xmlns="http://www.w3.org/2000/svg" xmlns:xlink="http://www.w3.org/1999/xlink">
    <!-- Generator: sketchtool 40.3 (33839) - http://www.bohemiancoding.com/sketch -->
    <title>8D744524-C128-4E90-9B8A-132360DDE741</title>
    <desc>Created with sketchtool.</desc>
    <defs>
        <ellipse id="path-1" cx="16.5" cy="16.5739868" rx="16.5" ry="16.5"></ellipse>
        <mask id="mask-2" maskContentUnits="userSpaceOnUse" maskUnits="objectBoundingBox" x="-1.6" y="-1.6" width="36.2" height="36.2">
            <rect x="-1.6" y="-1.52601318" width="36.2" height="36.2" fill="white"></rect>
            <use xlink:href="#path-1" fill="black"></use>
        </mask>
    </defs>
    <g id="Page-1" stroke="none" stroke-width="1" fill="none" fill-rule="evenodd">
        <g id="icons" transform="translate(-296.000000, -888.000000)">
            <g id="facebook" transform="translate(298.000000, 890.000000)">
                <use id="Oval-18" stroke="#19BED3" mask="url(#mask-2)" stroke-width="3.2" xlink:href="#path-1"></use>
                <path d="M17.9766439,11.3771573 L19.3765039,11.3771573 L19.3765039,9.07398682 L17.6605757,9.07398682 L17.6605757,9.08423116 C14.9759539,9.17974464 14.4242657,10.7016329 14.3766596,12.3003538 L14.3715374,12.3003538 L14.3715374,14.1491573 L13,14.1491573 L13,16.4523277 L14.3715374,16.4523277 L14.3715374,23.8234373 L17.1131057,23.8234373 L17.1131057,16.4523277 L19.1698091,16.4523277 L19.57657,14.1491573 L17.1131057,14.1491573 L17.1131057,12.4799312 C17.1131057,11.9421029 17.4683435,11.3771573 17.9766439,11.3771573 L17.9766439,11.3771573 Z" id="Fill-1" fill="#FFFFFF"></path>
            </g>
        </g>
    </g>
</svg>