<?xml version="1.0" encoding="UTF-8" standalone="no"?>
<svg width="15px" height="15px" viewBox="0 0 15 15" version="1.1" xmlns="http://www.w3.org/2000/svg" xmlns:xlink="http://www.w3.org/1999/xlink">
    <!-- Generator: sketchtool 40.3 (33839) - http://www.bohemiancoding.com/sketch -->
    <title>0B679755-0561-41D8-AEEA-4C1149F2E0BC</title>
    <desc>Created with sketchtool.</desc>
    <defs></defs>
    <g id="Page-1" stroke="none" stroke-width="1" fill="none" fill-rule="evenodd">
        <g id="icons" transform="translate(-479.000000, -386.000000)" fill="#19BED3">
            <path d="M490.938091,396.765859 L488.087968,395.588384 C489.554956,393.958986 490.405845,391.906791 490.405845,389.749559 C490.405845,387.67971 488.627276,386 486.436502,386 C484.242199,386 482.466278,387.67971 482.466278,389.749559 C482.466278,391.906791 483.317166,393.958986 484.784155,395.588384 L481.934031,396.765859 L481.223486,397.060668 C479.565842,397.744733 479.115281,399.526656 479.115281,399.526656 C478.773291,400.340361 479.219649,401 480.091397,401 L492.780725,401 C493.661809,401 494.119544,400.324726 493.756842,399.526656 C493.756842,399.526656 493.30628,397.744733 491.648636,397.060668 L490.938091,396.765859 Z" id="user"></path>
        </g>
    </g>
</svg>