<?xml version="1.0" encoding="UTF-8" standalone="no"?>
<svg width="35px" height="35px" viewBox="0 0 35 35" version="1.1" xmlns="http://www.w3.org/2000/svg" xmlns:xlink="http://www.w3.org/1999/xlink">
    <!-- Generator: sketchtool 40.3 (33839) - http://www.bohemiancoding.com/sketch -->
    <title>766B863D-7636-4B24-B0B9-56E23806DEAB</title>
    <desc>Created with sketchtool.</desc>
    <defs></defs>
    <g id="Page-1" stroke="none" stroke-width="1" fill="none" fill-rule="evenodd">
        <g id="icons" transform="translate(-305.000000, -474.000000)" fill="#34C6D9">
            <path d="M331.565991,492.190753 C331.129259,493.218068 329.00959,496.336841 328.53446,497.190455 C328.059331,498.044591 327.571141,498.779619 327.070413,499.395798 C326.569424,500.011978 326.061905,500.493638 325.548379,500.840255 C325.03433,501.186873 324.520542,501.360312 324.007015,501.360312 C323.827046,501.360312 323.669801,501.222396 323.53502,500.946043 C323.400239,500.670212 323.287399,500.297996 323.197806,499.829135 C323.107691,499.360536 323.034031,498.814881 322.976305,498.19191 C322.918318,497.569462 322.873391,496.911228 322.841524,496.217993 C322.809135,495.524497 322.78641,494.811933 322.773872,494.08004 C322.761073,493.348409 322.754543,492.635583 322.754543,491.942087 L322.195828,491.845964 C321.82309,493.245494 321.383484,494.526176 320.876227,495.688272 C320.368708,496.850368 319.826188,497.851823 319.248144,498.692638 C318.6701,499.533975 318.072988,500.188813 317.456547,500.657151 C316.839845,501.126012 316.235942,501.360312 315.64536,501.360312 C314.643643,501.360312 313.908094,500.621889 313.439233,499.145304 C313.003806,497.774768 312.777865,493.623456 312.746782,491.034927 C311.621516,491.445017 311.331841,491.450241 309.932833,491.48054 C307.141349,491.540878 306.597,487.980149 309.59353,487.595918 C312.334602,487.244599 313.072764,485.995522 314.357625,484.127393 C314.579648,483.804284 314.690399,483.551177 315.09631,483.198291 C315.64327,482.7229 318.647636,482.949625 318.535318,484.122952 L317.186723,494.542371 L317.437218,494.523042 C318.002202,493.213366 318.493526,492.016269 318.91093,490.931229 C319.328072,489.846188 319.713609,488.873727 320.067017,488.013321 C320.420165,487.153177 320.760775,486.401955 321.088063,485.759916 C321.088063,485.759916 321.547259,484.723982 321.973805,483.942722 C322.865032,482.311243 327.126049,482.871003 326.935371,484.122952 L325.35561,494.542371 L325.625434,494.523042 L330.225755,484.110153 C331.160603,482.450726 335.51278,482.900257 335.509123,484.488638 C335.508079,484.848315 335.447741,485.233591 335.32602,485.644464 C335.203515,486.055338 335.07213,486.437218 334.93108,486.790365 C334.789507,487.143774 333.969327,488.491847 333.969327,488.491847 C334.196052,491.743834 337.742938,492.125714 340,491.087429 C339.780328,481.613829 332.034852,474 322.505355,474 C312.837419,474 305,481.834546 305,491.499086 C305,501.163364 312.837419,508.99791 322.505355,508.99791 C330.90175,508.99791 337.914288,503.08713 339.614202,495.201388 C335.651741,496.561999 332.2318,494.995037 331.565991,492.190753" id="wetravel-circle-logo"></path>
        </g>
    </g>
</svg>