<?xml version="1.0" encoding="UTF-8" standalone="no"?>
<svg width="37px" height="37px" viewBox="0 0 37 37" version="1.1" xmlns="http://www.w3.org/2000/svg" xmlns:xlink="http://www.w3.org/1999/xlink">
    <!-- Generator: sketchtool 40.3 (33839) - http://www.bohemiancoding.com/sketch -->
    <title>E1A589A5-3C42-493D-94D7-FE6DA8F7989D</title>
    <desc>Created with sketchtool.</desc>
    <defs>
        <ellipse id="path-1" cx="16.5" cy="16.5739868" rx="16.5" ry="16.5"></ellipse>
        <mask id="mask-2" maskContentUnits="userSpaceOnUse" maskUnits="objectBoundingBox" x="-1.6" y="-1.6" width="36.2" height="36.2">
            <rect x="-1.6" y="-1.52601318" width="36.2" height="36.2" fill="white"></rect>
            <use xlink:href="#path-1" fill="black"></use>
        </mask>
    </defs>
    <g id="Page-1" stroke="none" stroke-width="1" fill="none" fill-rule="evenodd">
        <g id="icons" transform="translate(-346.000000, -888.000000)">
            <g id="twiter" transform="translate(348.000000, 890.000000)">
                <use id="Oval-18-Copy" stroke="#19BED3" mask="url(#mask-2)" stroke-width="3.2" xlink:href="#path-1"></use>
                <path d="M23.6280248,12.5139203 C23.3818591,12.6507125 22.6424583,12.9248994 21.9545804,12.9929942 C22.3959913,12.7525533 23.050123,11.9658477 23.2116222,11.3400386 C22.786783,11.6145268 21.8108583,12.0134538 21.3296752,12.0134538 L21.3296752,12.0143577 C20.7800961,11.435552 20.0063465,11.0739868 19.1482317,11.0739868 C17.4817174,11.0739868 16.1306687,12.4364851 16.1306687,14.1162568 C16.1306687,14.3494664 16.1571835,14.5772525 16.2068987,14.7956981 L16.2062961,14.7956981 C13.9456096,14.7357386 11.4734074,13.5934938 9.98526522,11.6380286 C9.06990261,13.2352429 9.86173043,15.0111307 10.9003265,15.6586338 C10.5447874,15.6854499 9.89035435,15.6170538 9.5824213,15.3142429 C9.56193261,16.3742316 10.06722,17.7786112 11.9106,18.2881168 C11.5556635,18.4806503 10.9271426,18.4255116 10.6538596,18.3845342 C10.7496743,19.2794081 11.9925548,20.4490716 13.3514374,20.4490716 C12.8672413,21.0140173 11.0449526,22.038452 9,21.712742 C10.3887117,22.5648307 12.0073187,23.0580659 13.7208365,23.0580659 C18.5893122,23.0580659 22.3706817,19.079342 22.167,14.1713955 C22.1660961,14.165972 22.1660961,14.1605486 22.1657948,14.1548238 C22.1660961,14.142169 22.167,14.1295142 22.167,14.1162568 C22.167,14.1011916 22.1657948,14.086729 22.1651922,14.0719651 C22.6084109,13.7661412 23.2031857,13.2256012 23.6280248,12.5139203" id="Fill-3" fill="#FFFFFF"></path>
            </g>
        </g>
    </g>
</svg>