<?xml version="1.0" encoding="UTF-8" standalone="no"?>
<svg width="42px" height="42px" viewBox="0 0 42 42" version="1.1" xmlns="http://www.w3.org/2000/svg" xmlns:xlink="http://www.w3.org/1999/xlink">
    <!-- Generator: sketchtool 40.3 (33839) - http://www.bohemiancoding.com/sketch -->
    <title>00E37230-0E8B-43BC-AD24-643016C99764</title>
    <desc>Created with sketchtool.</desc>
    <defs></defs>
    <g id="Page-1" stroke="none" stroke-width="1" fill="none" fill-rule="evenodd">
        <g id="icons-2" transform="translate(-1084.000000, -663.000000)" fill="#56BDD2">
            <g id="create" transform="translate(1084.000000, 663.000000)">
                <path d="M25.5728,9.6885 C25.0208,9.6885 24.5728,9.2415 24.5728,8.6885 L24.5728,1.0005 C24.5728,0.4475 25.0208,0.0005 25.5728,0.0005 C26.1248,0.0005 26.5728,0.4475 26.5728,1.0005 L26.5728,8.6885 C26.5728,9.2415 26.1248,9.6885 25.5728,9.6885" id="Fill-1"></path>
                <path d="M25.5728,32.7539 C25.0208,32.7539 24.5728,32.3069 24.5728,31.7539 L24.5728,24.0659 C24.5728,23.5129 25.0208,23.0659 25.5728,23.0659 C26.1248,23.0659 26.5728,23.5129 26.5728,24.0659 L26.5728,31.7539 C26.5728,32.3069 26.1248,32.7539 25.5728,32.7539" id="Fill-3"></path>
                <path d="M40.9497,17.3769 L33.2617,17.3769 C32.7087,17.3769 32.2617,16.9299 32.2617,16.3769 C32.2617,15.8239 32.7087,15.3769 33.2617,15.3769 L40.9497,15.3769 C41.5017,15.3769 41.9497,15.8239 41.9497,16.3769 C41.9497,16.9299 41.5017,17.3769 40.9497,17.3769" id="Fill-5"></path>
                <path d="M17.8838,17.3769 L10.1958,17.3769 C9.6428,17.3769 9.1958,16.9299 9.1958,16.3769 C9.1958,15.8239 9.6428,15.3769 10.1958,15.3769 L17.8838,15.3769 C18.4358,15.3769 18.8838,15.8239 18.8838,16.3769 C18.8838,16.9299 18.4358,17.3769 17.8838,17.3769" id="Fill-7"></path>
                <path d="M31.0093,11.9404 C30.7533,11.9404 30.4973,11.8424 30.3023,11.6474 C29.9113,11.2564 29.9113,10.6244 30.3023,10.2334 L35.7383,4.7964 C36.1293,4.4064 36.7623,4.4064 37.1533,4.7964 C37.5433,5.1874 37.5433,5.8204 37.1533,6.2114 L31.7163,11.6474 C31.5213,11.8424 31.2653,11.9404 31.0093,11.9404" id="Fill-9"></path>
                <path d="M36.4458,28.25 C36.1898,28.25 35.9338,28.152 35.7388,27.957 L30.3018,22.521 C29.9118,22.13 29.9118,21.497 30.3018,21.106 C30.6928,20.716 31.3258,20.716 31.7168,21.106 L37.1528,26.543 C37.5438,26.934 37.5438,27.566 37.1528,27.957 C36.9578,28.152 36.7018,28.25 36.4458,28.25" id="Fill-11"></path>
                <path d="M20.1357,11.9404 C19.8797,11.9404 19.6237,11.8424 19.4287,11.6474 L13.9917,6.2114 C13.6017,5.8204 13.6017,5.1874 13.9917,4.7964 C14.3827,4.4064 15.0157,4.4064 15.4067,4.7964 L20.8427,10.2334 C21.2337,10.6244 21.2337,11.2564 20.8427,11.6474 C20.6477,11.8424 20.3917,11.9404 20.1357,11.9404" id="Fill-13"></path>
                <path d="M1.5,41.9492 C1.116,41.9492 0.732,41.8032 0.439,41.5102 C-0.146,40.9242 -0.146,39.9742 0.439,39.3882 L19.829,19.9992 C20.415,19.4132 21.364,19.4132 21.95,19.9992 C22.536,20.5852 22.536,21.5342 21.95,22.1202 L2.561,41.5102 C2.268,41.8032 1.884,41.9492 1.5,41.9492" id="Fill-15"></path>
                <path d="M28.715,16.3769 C28.715,18.1129 27.308,19.5189 25.573,19.5189 C23.837,19.5189 22.43,18.1129 22.43,16.3769 C22.43,14.6409 23.837,13.2349 25.573,13.2349 C27.308,13.2349 28.715,14.6409 28.715,16.3769" id="Fill-17"></path>
            </g>
        </g>
    </g>
</svg>