<?xml version="1.0" encoding="UTF-8" standalone="no"?>
<svg width="17px" height="17px" viewBox="0 0 17 17" version="1.1" xmlns="http://www.w3.org/2000/svg" xmlns:xlink="http://www.w3.org/1999/xlink">
    <!-- Generator: sketchtool 40.3 (33839) - http://www.bohemiancoding.com/sketch -->
    <title>85A1A50B-3816-42A3-A77D-B91968B39FD9</title>
    <desc>Created with sketchtool.</desc>
    <defs></defs>
    <g id="Page-1" stroke="none" stroke-width="1" fill="none" fill-rule="evenodd">
        <g id="icons" transform="translate(-596.000000, -387.000000)" fill="#8C8F90">
            <g id="edit-" transform="translate(596.000000, 387.000000)">
                <path d="M0.871261512,0.871261512 C-0.128738488,1.87126151 -0.228738488,3.17126151 0.371261512,4.17126151 C0.571261512,4.47126151 0.971261512,4.47126151 1.17126151,4.27126151 L4.27126151,1.17126151 C4.37126151,0.971261512 4.37126151,0.571261512 4.07126151,0.371261512 C3.07126151,-0.228738488 1.77126151,-0.128738488 0.871261512,0.871261512 L0.871261512,0.871261512 L0.871261512,0.871261512 Z" id="Shape"></path>
                <path d="M13.725,9.825 L6.125,2.225 C5.825,1.925 5.325,1.925 5.025,2.225 L2.225,4.925 C1.925,5.225 1.925,5.725 2.225,6.025 L9.825,13.625 C10.125,13.925 10.625,13.925 10.925,13.625 L13.725,10.825 C14.025,10.625 14.025,10.125 13.725,9.825 L13.725,9.825 Z" id="Shape"></path>
                <path d="M12.209017,15.709017 L15.909017,16.309017 C16.109017,16.309017 16.209017,16.209017 16.209017,16.009017 L15.609017,12.209017 C15.609017,12.009017 15.309017,11.909017 15.209017,12.109017 L12.109017,15.309017 C11.909017,15.409017 12.009017,15.609017 12.209017,15.709017 L12.209017,15.709017 Z" id="Shape"></path>
            </g>
        </g>
    </g>
</svg>