<?xml version="1.0" encoding="UTF-8" standalone="no"?>
<svg width="175px" height="175px" viewBox="0 0 175 175" version="1.1" xmlns="http://www.w3.org/2000/svg" xmlns:xlink="http://www.w3.org/1999/xlink">
    <!-- Generator: sketchtool 40.3 (33839) - http://www.bohemiancoding.com/sketch -->
    <title>3E5D6B13-0E08-4537-B044-1090F8CD1DE1</title>
    <desc>Created with sketchtool.</desc>
    <defs></defs>
    <g id="Page-1" stroke="none" stroke-width="1" fill="none" fill-rule="evenodd">
        <g id="icons-2" transform="translate(-1007.000000, -109.000000)">
            <g id="get-money" transform="translate(1007.000000, 108.000000)">
                <path d="M43.7344,91.4788 C43.0314,91.4788 42.3484,91.1078 41.9834,90.4488 L34.0014,76.0588 C32.9804,74.2178 33.6484,71.8898 35.4874,70.8688 L103.2704,33.2688 C105.1064,32.2488 107.4364,32.9148 108.4594,34.7528 L126.0524,66.4698 C127.0734,68.3088 126.4084,70.6368 124.5684,71.6598 L113.3294,77.8938 C112.3654,78.4278 111.1464,78.0818 110.6104,77.1148 C110.0744,76.1488 110.4224,74.9318 111.3894,74.3958 L122.4664,68.2508 L105.0504,36.8558 L37.5874,74.2788 L45.4814,88.5088 C46.0174,89.4748 45.6694,90.6918 44.7024,91.2278 C44.3954,91.3978 44.0624,91.4788 43.7344,91.4788" id="Fill-1" fill="#57BED0"></path>
                <path d="M97.126,59.5696 C96.677,59.5696 96.241,59.3326 96.009,58.9116 C95.666,58.2956 95.889,57.5176 96.506,57.1756 L103.83,53.1136 C104.447,52.7696 105.224,52.9936 105.565,53.6106 C105.908,54.2266 105.686,55.0046 105.068,55.3456 L97.744,59.4086 C97.548,59.5176 97.336,59.5696 97.126,59.5696" id="Fill-3" fill="#D1D2D4"></path>
                <path d="M100.085,64.9036 C99.636,64.9036 99.2,64.6666 98.968,64.2456 C98.625,63.6296 98.848,62.8516 99.465,62.5096 L106.789,58.4476 C107.405,58.1046 108.184,58.3266 108.524,58.9446 C108.867,59.5606 108.645,60.3386 108.027,60.6796 L100.703,64.7426 C100.507,64.8516 100.295,64.9036 100.085,64.9036" id="Fill-5" fill="#D1D2D4"></path>
                <path d="M78.4307,75.2116 C79.5467,75.0856 80.7087,74.7136 81.5467,74.2496 C82.4117,73.7696 82.6677,73.0796 82.3347,72.4796 C81.9717,71.8236 81.2537,71.7476 80.1187,71.9386 C78.2037,72.2706 76.5097,72.5716 75.4647,70.6876 C74.6277,69.1806 75.2807,67.7236 76.6147,66.6736 L75.6467,64.9286 L77.1117,64.1156 L78.0567,65.8186 C78.9327,65.4236 79.8167,65.2076 80.5047,65.0996 L81.0367,67.0126 C79.9907,67.1006 78.9557,67.4736 78.4397,67.7596 C77.6017,68.2246 77.1867,68.8566 77.5587,69.5256 C77.9217,70.1826 78.8817,70.0696 79.9567,69.8376 C81.9327,69.4176 83.4947,69.7006 84.3247,71.1936 C85.1447,72.6736 84.6987,74.2716 83.3437,75.3516 L84.3117,77.0956 L82.8467,77.9086 L81.9027,76.2056 C80.8227,76.6946 79.6787,77.0016 78.8867,77.0206 L78.4307,75.2116 Z M86.2707,82.5206 C92.4877,79.0716 94.7317,71.2366 91.2827,65.0206 C87.8347,58.8046 79.9997,56.5606 73.7837,60.0086 C67.5667,63.4576 65.3227,71.2916 68.7717,77.5086 C72.2197,83.7246 80.0547,85.9686 86.2707,82.5206 L86.2707,82.5206 Z" id="Fill-7" fill="#F47F26"></path>
                <path d="M130.4502,124.5491 L52.9372,124.5491 C50.8332,124.5491 49.1202,122.8361 49.1202,120.7321 L49.1202,84.4641 C49.1202,82.3601 50.8332,80.6471 52.9372,80.6471 L130.4502,80.6471 C132.5542,80.6471 134.2672,82.3601 134.2672,84.4641 L134.2672,120.7321 C134.2672,122.8361 132.5542,124.5491 130.4502,124.5491 L130.4502,124.5491 Z M53.1202,120.5491 L130.2672,120.5491 L130.2672,84.6471 L53.1202,84.6471 L53.1202,120.5491 Z" id="Fill-9" fill="#57BED0"></path>
                <path d="M92.6123,107.7804 L92.6123,109.7754 L90.9363,109.7754 L90.9363,107.8284 C89.7553,107.7324 88.6063,107.4454 87.9043,107.0784 L88.3833,105.2754 C89.4203,105.7054 90.6173,105.9454 91.5753,105.9454 C92.5643,105.9454 93.1233,105.4664 93.1233,104.7804 C93.1233,104.0304 92.5323,103.6144 91.4473,103.2324 C89.6113,102.5934 87.9833,102.0344 87.9833,99.8804 C87.9833,98.1564 89.2603,97.1984 90.9363,96.9274 L90.9363,94.9324 L92.6123,94.9324 L92.6123,96.8794 C93.5703,96.9594 94.4473,97.1984 95.1023,97.4384 L94.6393,99.3694 C93.6813,98.9384 92.5963,98.7624 92.0063,98.7624 C91.0483,98.7624 90.3783,99.1134 90.3783,99.8804 C90.3783,100.6304 91.2713,100.9974 92.3253,101.3164 C94.2563,101.9064 95.4853,102.9124 95.4853,104.6204 C95.4853,106.3124 94.3203,107.4934 92.6123,107.7804 M91.6943,89.7264 C84.5853,89.7264 78.8223,95.4894 78.8223,102.5974 C78.8223,109.7064 84.5853,115.4694 91.6943,115.4694 C98.8023,115.4694 104.5653,109.7064 104.5653,102.5974 C104.5653,95.4894 98.8023,89.7264 91.6943,89.7264" id="Fill-11" fill="#F47F26"></path>
                <path d="M70.4492,100.8255 L62.0742,100.8255 C61.3692,100.8255 60.7972,100.2535 60.7972,99.5485 C60.7972,98.8435 61.3692,98.2705 62.0742,98.2705 L70.4492,98.2705 C71.1542,98.2705 71.7262,98.8435 71.7262,99.5485 C71.7262,100.2535 71.1542,100.8255 70.4492,100.8255" id="Fill-13" fill="#D1D2D4"></path>
                <path d="M70.4492,106.9251 L62.0742,106.9251 C61.3692,106.9251 60.7972,106.3531 60.7972,105.6481 C60.7972,104.9431 61.3692,104.3701 62.0742,104.3701 L70.4492,104.3701 C71.1542,104.3701 71.7262,104.9431 71.7262,105.6481 C71.7262,106.3531 71.1542,106.9251 70.4492,106.9251" id="Fill-15" fill="#D1D2D4"></path>
                <path d="M121.3135,100.8255 L112.9385,100.8255 C112.2335,100.8255 111.6615,100.2535 111.6615,99.5485 C111.6615,98.8435 112.2335,98.2705 112.9385,98.2705 L121.3135,98.2705 C122.0185,98.2705 122.5905,98.8435 122.5905,99.5485 C122.5905,100.2535 122.0185,100.8255 121.3135,100.8255" id="Fill-17" fill="#D1D2D4"></path>
                <path d="M121.3135,106.9251 L112.9385,106.9251 C112.2335,106.9251 111.6615,106.3531 111.6615,105.6481 C111.6615,104.9431 112.2335,104.3701 112.9385,104.3701 L121.3135,104.3701 C122.0185,104.3701 122.5905,104.9431 122.5905,105.6481 C122.5905,106.3531 122.0185,106.9251 121.3135,106.9251" id="Fill-19" fill="#D1D2D4"></path>
                <g id="Group-23" transform="translate(0.000000, 0.804000)">
                    <polygon id="Clip-22" points="174.9998 175 -5.18728669e-14 175 -5.18728669e-14 0.196 175 0.196 175 175 174.9998 0.196081599 -0.000201670855 0.196081599 -0.000201670855 175.0003 174.9998 175.0003"></polygon>
                    <path d="M81.4678,2.4023 C80.9468,2.4023 80.5078,1.9993 80.4708,1.4713 C80.4328,0.9203 80.8488,0.4423 81.3998,0.4043 C85.3338,0.1323 89.3998,0.1273 93.3368,0.3863 C93.8888,0.4233 94.3058,0.8993 94.2698,1.4503 C94.2338,2.0023 93.7548,2.3983 93.2058,2.3823 C89.3568,2.1293 85.3808,2.1323 81.5378,2.4003 C81.5148,2.4013 81.4908,2.4023 81.4678,2.4023 M116.3488,7.1233 C116.2388,7.1233 116.1248,7.1043 116.0148,7.0653 C112.3578,5.7713 108.5718,4.7193 104.7668,3.9393 C104.2258,3.8293 103.8768,3.2993 103.9888,2.7583 C104.0988,2.2183 104.6218,1.8733 105.1688,1.9803 C109.0648,2.7793 112.9378,3.8553 116.6818,5.1803 C117.2028,5.3643 117.4758,5.9353 117.2908,6.4563 C117.1468,6.8673 116.7608,7.1233 116.3488,7.1233 M58.4138,7.2073 C58.0028,7.2073 57.6178,6.9523 57.4728,6.5433 C57.2858,6.0233 57.5578,5.4513 58.0778,5.2653 C61.8188,3.9293 65.6858,2.8423 69.5718,2.0343 C70.1108,1.9253 70.6418,2.2683 70.7548,2.8103 C70.8668,3.3503 70.5198,3.8803 69.9788,3.9933 C66.1828,4.7823 62.4058,5.8433 58.7498,7.1483 C58.6398,7.1883 58.5258,7.2073 58.4138,7.2073 M137.2788,17.9453 C137.0788,17.9453 136.8778,17.8853 136.7028,17.7623 C133.5278,15.5243 130.1708,13.4863 126.7278,11.7053 C126.2368,11.4513 126.0448,10.8473 126.2978,10.3573 C126.5508,9.8673 127.1558,9.6763 127.6458,9.9273 C131.1708,11.7513 134.6058,13.8373 137.8558,16.1283 C138.3068,16.4463 138.4148,17.0703 138.0968,17.5213 C137.9028,17.7983 137.5928,17.9453 137.2788,17.9453 M37.5298,18.0803 C37.2168,18.0803 36.9078,17.9333 36.7138,17.6583 C36.3948,17.2083 36.4998,16.5843 36.9508,16.2643 C40.1948,13.9653 43.6198,11.8713 47.1348,10.0423 C47.6258,9.7853 48.2298,9.9773 48.4838,10.4663 C48.7388,10.9573 48.5488,11.5603 48.0588,11.8153 C44.6248,13.6033 41.2768,15.6493 38.1078,17.8953 C37.9318,18.0203 37.7308,18.0803 37.5298,18.0803 M154.5158,33.9993 C154.2258,33.9993 153.9388,33.8743 153.7398,33.6313 C151.2818,30.6263 148.5978,27.7613 145.7608,25.1183 C145.3568,24.7423 145.3338,24.1093 145.7108,23.7053 C146.0868,23.3023 146.7218,23.2793 147.1238,23.6553 C150.0278,26.3593 152.7748,29.2903 155.2888,32.3663 C155.6388,32.7943 155.5748,33.4233 155.1478,33.7733 C154.9618,33.9243 154.7388,33.9993 154.5158,33.9993 M20.3378,34.1783 C20.1158,34.1783 19.8938,34.1053 19.7078,33.9553 C19.2798,33.6063 19.2148,32.9763 19.5628,32.5483 C22.0658,29.4683 24.8048,26.5313 27.7048,23.8153 C28.1088,23.4383 28.7418,23.4593 29.1178,23.8613 C29.4958,24.2643 29.4758,24.8973 29.0718,25.2743 C26.2388,27.9283 23.5608,30.8003 21.1148,33.8093 C20.9168,34.0523 20.6288,34.1783 20.3378,34.1783 M166.7968,54.0813 C166.4108,54.0813 166.0438,53.8573 165.8798,53.4813 C164.3268,49.9313 162.5138,46.4533 160.4888,43.1433 C160.2008,42.6733 160.3498,42.0563 160.8218,41.7683 C161.2898,41.4793 161.9068,41.6293 162.1968,42.1003 C164.2678,45.4873 166.1228,49.0473 167.7118,52.6803 C167.9338,53.1863 167.7018,53.7763 167.1968,53.9973 C167.0668,54.0543 166.9298,54.0813 166.7968,54.0813 M8.1028,54.3123 C7.9698,54.3123 7.8348,54.2863 7.7058,54.2293 C7.1988,54.0093 6.9668,53.4213 7.1868,52.9153 C8.7658,49.2723 10.6138,45.7033 12.6788,42.3063 C12.9658,41.8353 13.5808,41.6843 14.0528,41.9713 C14.5248,42.2583 14.6748,42.8743 14.3878,43.3453 C12.3698,46.6653 10.5648,50.1523 9.0208,53.7103 C8.8578,54.0883 8.4888,54.3123 8.1028,54.3123 M173.1808,76.7493 C172.6888,76.7493 172.2598,76.3863 172.1918,75.8853 C171.6598,72.0403 170.8588,68.1983 169.8068,64.4663 C169.6568,63.9343 169.9668,63.3823 170.4978,63.2323 C171.0308,63.0853 171.5818,63.3933 171.7328,63.9233 C172.8088,67.7443 173.6288,71.6753 174.1718,75.6123 C174.2478,76.1593 173.8648,76.6643 173.3188,76.7393 C173.2718,76.7463 173.2258,76.7493 173.1808,76.7493 M1.7838,77.0053 C1.7398,77.0053 1.6948,77.0023 1.6498,76.9963 C1.1018,76.9223 0.7178,76.4183 0.7918,75.8713 C1.3248,71.9313 2.1338,67.9973 3.1978,64.1753 C3.3468,63.6433 3.8988,63.3303 4.4298,63.4813 C4.9608,63.6293 5.2728,64.1803 5.1238,64.7133 C4.0848,68.4453 3.2948,72.2903 2.7748,76.1383 C2.7058,76.6403 2.2778,77.0053 1.7838,77.0053 M173.2058,100.4703 C173.1608,100.4703 173.1158,100.4673 173.0708,100.4623 C172.5228,100.3863 172.1398,99.8823 172.2138,99.3363 C172.7358,95.5063 172.9998,91.5903 172.9998,87.6953 L172.9998,87.5233 C172.9998,86.9703 173.4468,86.5233 173.9998,86.5233 C174.5528,86.5233 174.9998,86.9703 174.9998,87.5233 L174.9998,87.6953 C174.9998,91.6803 174.7298,95.6883 174.1968,99.6053 C174.1278,100.1073 173.6978,100.4703 173.2058,100.4703 M1.8058,100.5563 C1.3138,100.5563 0.8848,100.1933 0.8168,99.6923 C0.2788,95.7763 0.0038,91.7693 -0.0002,87.7833 C-0.0012,87.2303 0.4468,86.7833 0.9988,86.7823 L0.9998,86.7823 C1.5518,86.7823 1.9988,87.2293 1.9998,87.7813 C2.0038,91.6763 2.2728,95.5923 2.7978,99.4213 C2.8718,99.9673 2.4898,100.4723 1.9428,100.5473 C1.8968,100.5533 1.8508,100.5563 1.8058,100.5563 M166.8618,123.1593 C166.7288,123.1593 166.5938,123.1323 166.4638,123.0763 C165.9568,122.8553 165.7248,122.2663 165.9458,121.7603 C167.4928,118.2023 168.8078,114.5013 169.8538,110.7593 C170.0018,110.2273 170.5568,109.9203 171.0858,110.0663 C171.6168,110.2153 171.9278,110.7663 171.7798,111.2983 C170.7098,115.1273 169.3638,118.9163 167.7798,122.5573 C167.6148,122.9343 167.2478,123.1593 166.8618,123.1593 M8.1698,123.2303 C7.7838,123.2303 7.4158,123.0063 7.2518,122.6303 C5.6658,118.9913 4.3168,115.2073 3.2428,111.3813 C3.0938,110.8493 3.4048,110.2983 3.9358,110.1483 C4.4708,110.0033 5.0198,110.3083 5.1688,110.8403 C6.2178,114.5783 7.5348,118.2753 9.0858,121.8313 C9.3068,122.3373 9.0748,122.9263 8.5688,123.1473 C8.4388,123.2043 8.3028,123.2303 8.1698,123.2303 M154.6058,143.2803 C154.3838,143.2803 154.1598,143.2073 153.9748,143.0553 C153.5468,142.7073 153.4828,142.0773 153.8308,141.6483 C156.2818,138.6393 158.5488,135.4333 160.5688,132.1193 C160.8548,131.6473 161.4698,131.4983 161.9428,131.7863 C162.4138,132.0733 162.5638,132.6883 162.2758,133.1603 C160.2088,136.5513 157.8898,139.8333 155.3818,142.9123 C155.1848,143.1543 154.8968,143.2803 154.6058,143.2803 M20.4318,143.3253 C20.1418,143.3253 19.8538,143.1993 19.6548,142.9573 C17.1438,139.8773 14.8218,136.5993 12.7578,133.2153 C12.4698,132.7453 12.6188,132.1303 13.0908,131.8413 C13.5608,131.5533 14.1768,131.7023 14.4648,132.1743 C16.4828,135.4803 18.7508,138.6823 21.2058,141.6933 C21.5548,142.1213 21.4898,142.7513 21.0628,143.1003 C20.8768,143.2523 20.6538,143.3253 20.4318,143.3253 M137.4008,159.3593 C137.0868,159.3593 136.7778,159.2123 136.5828,158.9363 C136.2638,158.4853 136.3708,157.8613 136.8218,157.5433 C139.9858,155.3063 143.0278,152.8283 145.8658,150.1743 C146.2678,149.7983 146.9018,149.8183 147.2798,150.2223 C147.6558,150.6263 147.6348,151.2583 147.2318,151.6353 C144.3268,154.3503 141.2138,156.8873 137.9768,159.1753 C137.8018,159.2993 137.5998,159.3593 137.4008,159.3593 M37.6508,159.3953 C37.4508,159.3953 37.2498,159.3363 37.0738,159.2123 C33.8318,156.9223 30.7148,154.3863 27.8118,151.6763 C27.4078,151.2993 27.3868,150.6673 27.7628,150.2623 C28.1398,149.8583 28.7728,149.8383 29.1768,150.2143 C32.0138,152.8623 35.0598,155.3403 38.2288,157.5793 C38.6798,157.8973 38.7868,158.5213 38.4678,158.9723 C38.2738,159.2483 37.9638,159.3953 37.6508,159.3953 M116.5028,170.2143 C116.0918,170.2143 115.7058,169.9593 115.5608,169.5483 C115.3758,169.0283 115.6478,168.4573 116.1678,168.2713 C119.8208,166.9713 123.4198,165.4053 126.8648,163.6143 C127.3568,163.3603 127.9578,163.5503 128.2138,164.0413 C128.4678,164.5313 128.2778,165.1343 127.7868,165.3893 C124.2608,167.2213 120.5768,168.8253 116.8378,170.1563 C116.7278,170.1953 116.6138,170.2143 116.5028,170.2143 M58.5698,170.2383 C58.4578,170.2383 58.3458,170.2193 58.2358,170.1803 C54.4958,168.8543 50.8098,167.2533 47.2788,165.4223 C46.7878,165.1683 46.5968,164.5643 46.8508,164.0743 C47.1048,163.5833 47.7098,163.3923 48.1978,163.6463 C51.6498,165.4353 55.2508,167.0003 58.9038,168.2963 C59.4238,168.4803 59.6968,169.0513 59.5118,169.5723 C59.3658,169.9823 58.9808,170.2383 58.5698,170.2383 M93.4438,174.9943 C92.9218,174.9943 92.4828,174.5893 92.4468,174.0613 C92.4088,173.5103 92.8258,173.0343 93.3768,172.9963 C97.2558,172.7333 101.1448,172.2023 104.9348,171.4163 C105.4728,171.3063 106.0038,171.6503 106.1168,172.1923 C106.2288,172.7333 105.8818,173.2623 105.3408,173.3753 C101.4608,174.1783 97.4818,174.7223 93.5118,174.9923 C93.4888,174.9933 93.4658,174.9943 93.4438,174.9943 M81.6428,175.0003 C81.6198,175.0003 81.5978,174.9993 81.5748,174.9983 C77.6068,174.7323 73.6258,174.1923 69.7438,173.3923 C69.2028,173.2813 68.8558,172.7523 68.9668,172.2113 C69.0778,171.6713 69.6028,171.3263 70.1488,171.4333 C73.9408,172.2153 77.8298,172.7433 81.7078,173.0023 C82.2598,173.0393 82.6758,173.5153 82.6398,174.0663 C82.6048,174.5943 82.1638,175.0003 81.6428,175.0003" id="Fill-21" fill="#D1D2D4"></path>
                </g>
            </g>
        </g>
    </g>
</svg>