<?xml version="1.0" encoding="UTF-8" standalone="no"?>
<svg width="175px" height="175px" viewBox="0 0 175 175" version="1.1" xmlns="http://www.w3.org/2000/svg" xmlns:xlink="http://www.w3.org/1999/xlink">
    <!-- Generator: sketchtool 40.3 (33839) - http://www.bohemiancoding.com/sketch -->
    <title>415A2F93-5A04-4B9E-ADF2-06BED9BDBFC3</title>
    <desc>Created with sketchtool.</desc>
    <defs>
        <polygon id="path-1" points="174.9998 175 0 175 0 0.197 174.9998 0.197"></polygon>
    </defs>
    <g id="Page-1" stroke="none" stroke-width="1" fill="none" fill-rule="evenodd">
        <g id="icons-2" transform="translate(-1007.000000, -337.000000)">
            <g id="travel" transform="translate(1007.000000, 336.000000)">
                <path d="M45.1963,62.886 C43.3603,62.886 41.8663,64.38 41.8663,66.216 L41.8663,116.651 C41.8663,118.487 43.3603,119.981 45.1963,119.981 L125.4993,119.981 C127.3353,119.981 128.8293,118.487 128.8293,116.651 L128.8293,66.216 C128.8293,64.38 127.3353,62.886 125.4993,62.886 L45.1963,62.886 Z M125.4993,123.981 L45.1963,123.981 C41.1543,123.981 37.8663,120.693 37.8663,116.651 L37.8663,66.216 C37.8663,62.174 41.1543,58.886 45.1963,58.886 L125.4993,58.886 C129.5413,58.886 132.8293,62.174 132.8293,66.216 L132.8293,116.651 C132.8293,120.693 129.5413,123.981 125.4993,123.981 L125.4993,123.981 Z" id="Fill-1" fill="#57BED0"></path>
                <path d="M60.5713,114.428 C59.9363,114.428 59.4223,113.913 59.4223,113.279 L59.4223,69.588 C59.4223,68.953 59.9363,68.439 60.5713,68.439 C61.2063,68.439 61.7203,68.953 61.7203,69.588 L61.7203,113.279 C61.7203,113.913 61.2063,114.428 60.5713,114.428" id="Fill-3" fill="#F47F26"></path>
                <path d="M110.125,101.4436 C109.49,101.4436 108.976,100.9286 108.976,100.2946 L108.976,69.5886 C108.976,68.9536 109.49,68.4386 110.125,68.4386 C110.76,68.4386 111.274,68.9536 111.274,69.5886 L111.274,100.2946 C111.274,100.9286 110.76,101.4436 110.125,101.4436" id="Fill-5" fill="#F47F26"></path>
                <path d="M112.2277,110.583 C112.1107,110.858 111.5437,111.693 111.4167,111.921 C111.2887,112.15 111.1587,112.347 111.0247,112.511 C110.8907,112.676 110.7547,112.805 110.6167,112.898 C110.4797,112.991 110.3417,113.037 110.2047,113.037 C110.1567,113.037 110.1147,113 110.0777,112.926 C110.0417,112.853 110.0117,112.753 109.9877,112.627 C109.9637,112.502 109.9437,112.356 109.9287,112.189 C109.9127,112.023 109.9007,111.846 109.8927,111.661 C109.8837,111.475 109.8777,111.284 109.8747,111.089 C109.8707,110.893 109.8697,110.702 109.8697,110.516 L109.7197,110.491 C109.6197,110.865 109.5027,111.208 109.3667,111.519 C109.2307,111.83 109.0857,112.098 108.9307,112.323 C108.7757,112.548 108.6157,112.724 108.4517,112.849 C108.2867,112.974 108.1247,113.037 107.9667,113.037 C107.6987,113.037 107.5017,112.84 107.3757,112.444 C107.2597,112.078 107.1987,110.966 107.1907,110.274 C106.8897,110.383 106.8117,110.385 106.4377,110.393 C105.6907,110.409 105.5447,109.456 106.3467,109.353 C107.0807,109.259 107.2777,108.925 107.6217,108.425 C107.6817,108.338 107.7107,108.271 107.8197,108.176 C107.9657,108.049 108.7697,108.11 108.7397,108.424 L108.3787,111.212 L108.4457,111.207 C108.5977,110.857 108.7287,110.536 108.8407,110.246 C108.9517,109.955 109.0557,109.695 109.1497,109.465 C109.2447,109.235 109.3357,109.034 109.4237,108.862 C109.4237,108.862 109.5457,108.584 109.6607,108.375 C109.8987,107.939 111.0397,108.088 110.9887,108.424 L110.5657,111.212 L110.6377,111.207 L111.8687,108.42 C112.1197,107.976 113.2837,108.096 113.2827,108.522 C113.2827,108.618 113.2667,108.721 113.2337,108.831 C113.2017,108.941 113.1657,109.043 113.1287,109.137 C113.0907,109.232 112.8707,109.593 112.8707,109.593 C112.9317,110.463 113.8807,110.566 114.4847,110.288 C114.4267,107.752 112.3527,105.714 109.8027,105.714 C107.2147,105.714 105.1177,107.811 105.1177,110.398 C105.1177,112.985 107.2147,115.082 109.8027,115.082 C112.0497,115.082 113.9267,113.499 114.3817,111.389 C113.3217,111.753 112.4057,111.333 112.2277,110.583" id="Fill-7" fill="#57BED0"></path>
                <path d="M97.9561,56.2844 C96.8521,56.2844 95.9561,55.3884 95.9561,54.2844 L95.9561,52.5194 C95.9561,49.7044 93.6661,47.4134 90.8511,47.4134 L79.8451,47.4134 C77.0291,47.4134 74.7391,49.7044 74.7391,52.5194 L74.7391,54.2844 C74.7391,55.3884 73.8441,56.2844 72.7391,56.2844 C71.6351,56.2844 70.7391,55.3884 70.7391,54.2844 L70.7391,52.5194 C70.7391,47.4984 74.8241,43.4134 79.8451,43.4134 L90.8511,43.4134 C95.8711,43.4134 99.9561,47.4984 99.9561,52.5194 L99.9561,54.2844 C99.9561,55.3884 99.0601,56.2844 97.9561,56.2844" id="Fill-9" fill="#57BED0"></path>
                <path d="M94.7542,107.9264 L86.1512,99.3234 C85.9562,99.1284 85.9562,98.8104 86.1512,98.6164 L94.7542,90.0134 C94.9482,89.8184 95.2672,89.8184 95.4612,90.0134 L104.0642,98.6164 C104.2592,98.8104 104.2592,99.1284 104.0642,99.3234 L95.4612,107.9264 C95.2672,108.1204 94.9482,108.1204 94.7542,107.9264" id="Fill-11" fill="#D1D2D4"></path>
                <path d="M82.7341,114.5803 L77.8281,109.6743 C77.6331,109.4793 77.6331,109.1613 77.8281,108.9663 L82.7341,104.0653 C82.9281,103.8713 83.2471,103.8713 83.4411,104.0653 L88.3471,108.9713 C88.5421,109.1663 88.5421,109.4843 88.3471,109.6793 L83.4411,114.5803 C83.2461,114.7743 82.9281,114.7743 82.7341,114.5803" id="Fill-13" fill="#F47F26"></path>
                <g id="Group-17" transform="translate(0.000000, 0.803000)">
                    <mask id="mask-2" fill="white">
                        <use xlink:href="#path-1"></use>
                    </mask>
                    <g id="Clip-16"></g>
                    <path d="M81.4678,2.4023 C80.9468,2.4023 80.5078,1.9993 80.4708,1.4713 C80.4328,0.9203 80.8488,0.4423 81.3998,0.4043 C85.3338,0.1333 89.3998,0.1273 93.3368,0.3863 C93.8888,0.4233 94.3058,0.8993 94.2698,1.4503 C94.2338,2.0033 93.7548,2.4113 93.2058,2.3823 C89.3568,2.1293 85.3808,2.1333 81.5378,2.4003 C81.5148,2.4013 81.4908,2.4023 81.4678,2.4023 M116.3488,7.1233 C116.2388,7.1233 116.1248,7.1043 116.0148,7.0653 C112.3578,5.7713 108.5718,4.7193 104.7668,3.9393 C104.2258,3.8293 103.8768,3.2993 103.9888,2.7583 C104.0988,2.2183 104.6218,1.8733 105.1688,1.9803 C109.0648,2.7793 112.9378,3.8553 116.6818,5.1803 C117.2028,5.3643 117.4758,5.9353 117.2908,6.4563 C117.1468,6.8673 116.7608,7.1233 116.3488,7.1233 M58.4138,7.2073 C58.0028,7.2073 57.6178,6.9523 57.4728,6.5433 C57.2858,6.0233 57.5578,5.4513 58.0778,5.2653 C61.8188,3.9293 65.6858,2.8423 69.5718,2.0343 C70.1108,1.9243 70.6418,2.2683 70.7548,2.8103 C70.8668,3.3503 70.5198,3.8803 69.9788,3.9933 C66.1828,4.7823 62.4058,5.8433 58.7498,7.1483 C58.6398,7.1883 58.5258,7.2073 58.4138,7.2073 M137.2788,17.9453 C137.0788,17.9453 136.8778,17.8853 136.7028,17.7623 C133.5278,15.5243 130.1708,13.4863 126.7278,11.7053 C126.2368,11.4513 126.0448,10.8473 126.2978,10.3573 C126.5508,9.8673 127.1558,9.6743 127.6458,9.9273 C131.1708,11.7513 134.6058,13.8373 137.8558,16.1283 C138.3068,16.4463 138.4148,17.0703 138.0968,17.5213 C137.9028,17.7983 137.5928,17.9453 137.2788,17.9453 M37.5298,18.0803 C37.2168,18.0803 36.9078,17.9333 36.7138,17.6583 C36.3948,17.2083 36.4998,16.5843 36.9508,16.2643 C40.1948,13.9653 43.6198,11.8713 47.1348,10.0423 C47.6258,9.7853 48.2298,9.9783 48.4838,10.4663 C48.7388,10.9573 48.5488,11.5603 48.0588,11.8153 C44.6248,13.6033 41.2768,15.6493 38.1078,17.8953 C37.9318,18.0203 37.7308,18.0803 37.5298,18.0803 M154.5158,33.9993 C154.2258,33.9993 153.9388,33.8743 153.7398,33.6313 C151.2818,30.6263 148.5978,27.7613 145.7608,25.1183 C145.3568,24.7423 145.3338,24.1093 145.7108,23.7053 C146.0868,23.3023 146.7218,23.2793 147.1238,23.6553 C150.0278,26.3593 152.7748,29.2903 155.2888,32.3663 C155.6388,32.7943 155.5748,33.4233 155.1478,33.7733 C154.9618,33.9243 154.7388,33.9993 154.5158,33.9993 M20.3378,34.1783 C20.1158,34.1783 19.8938,34.1053 19.7078,33.9553 C19.2798,33.6063 19.2148,32.9763 19.5628,32.5483 C22.0658,29.4683 24.8048,26.5313 27.7048,23.8153 C28.1088,23.4383 28.7418,23.4593 29.1178,23.8613 C29.4958,24.2643 29.4758,24.8973 29.0718,25.2743 C26.2388,27.9283 23.5608,30.8003 21.1148,33.8093 C20.9168,34.0523 20.6288,34.1783 20.3378,34.1783 M166.7968,54.0813 C166.4108,54.0813 166.0438,53.8573 165.8798,53.4813 C164.3268,49.9313 162.5138,46.4533 160.4888,43.1433 C160.2008,42.6733 160.3498,42.0563 160.8218,41.7683 C161.2898,41.4793 161.9068,41.6293 162.1968,42.1003 C164.2678,45.4873 166.1228,49.0473 167.7118,52.6803 C167.9338,53.1863 167.7018,53.7763 167.1968,53.9973 C167.0668,54.0543 166.9298,54.0813 166.7968,54.0813 M8.1028,54.3123 C7.9698,54.3123 7.8348,54.2863 7.7058,54.2293 C7.1988,54.0093 6.9668,53.4213 7.1868,52.9153 C8.7658,49.2723 10.6138,45.7033 12.6788,42.3063 C12.9658,41.8363 13.5808,41.6843 14.0528,41.9713 C14.5248,42.2583 14.6748,42.8743 14.3878,43.3453 C12.3698,46.6653 10.5648,50.1523 9.0208,53.7103 C8.8578,54.0883 8.4888,54.3123 8.1028,54.3123 M173.1808,76.7493 C172.6888,76.7493 172.2598,76.3863 172.1918,75.8853 C171.6598,72.0403 170.8588,68.1983 169.8068,64.4663 C169.6568,63.9343 169.9668,63.3823 170.4978,63.2323 C171.0308,63.0873 171.5818,63.3923 171.7328,63.9233 C172.8088,67.7443 173.6288,71.6753 174.1718,75.6123 C174.2478,76.1593 173.8648,76.6643 173.3188,76.7393 C173.2718,76.7463 173.2258,76.7493 173.1808,76.7493 M1.7838,77.0053 C1.7398,77.0053 1.6948,77.0023 1.6498,76.9963 C1.1018,76.9223 0.7178,76.4183 0.7918,75.8713 C1.3248,71.9313 2.1338,67.9973 3.1978,64.1753 C3.3468,63.6433 3.8988,63.3313 4.4298,63.4813 C4.9608,63.6293 5.2728,64.1803 5.1238,64.7133 C4.0848,68.4453 3.2948,72.2903 2.7748,76.1383 C2.7058,76.6403 2.2778,77.0053 1.7838,77.0053 M173.2058,100.4703 C173.1608,100.4703 173.1158,100.4673 173.0708,100.4623 C172.5228,100.3863 172.1398,99.8823 172.2138,99.3363 C172.7358,95.5063 172.9998,91.5903 172.9998,87.6953 L172.9998,87.5233 C172.9998,86.9703 173.4468,86.5233 173.9998,86.5233 C174.5528,86.5233 174.9998,86.9703 174.9998,87.5233 L174.9998,87.6953 C174.9998,91.6803 174.7298,95.6883 174.1968,99.6053 C174.1278,100.1073 173.6978,100.4703 173.2058,100.4703 M1.8058,100.5563 C1.3138,100.5563 0.8848,100.1933 0.8168,99.6923 C0.2788,95.7763 0.0038,91.7693 -0.0002,87.7833 C-0.0012,87.2303 0.4468,86.7833 0.9988,86.7823 L0.9998,86.7823 C1.5518,86.7823 1.9988,87.2293 1.9998,87.7813 C2.0038,91.6763 2.2728,95.5923 2.7978,99.4213 C2.8718,99.9673 2.4898,100.4723 1.9428,100.5473 C1.8968,100.5533 1.8508,100.5563 1.8058,100.5563 M166.8618,123.1593 C166.7288,123.1593 166.5938,123.1323 166.4638,123.0763 C165.9568,122.8553 165.7248,122.2663 165.9458,121.7603 C167.4928,118.2023 168.8078,114.5013 169.8538,110.7593 C170.0018,110.2273 170.5568,109.9193 171.0858,110.0663 C171.6168,110.2153 171.9278,110.7663 171.7798,111.2983 C170.7098,115.1273 169.3638,118.9163 167.7798,122.5573 C167.6148,122.9343 167.2478,123.1593 166.8618,123.1593 M8.1698,123.2303 C7.7838,123.2303 7.4158,123.0063 7.2518,122.6303 C5.6658,118.9913 4.3168,115.2073 3.2428,111.3813 C3.0938,110.8493 3.4048,110.2983 3.9358,110.1483 C4.4708,110.0023 5.0198,110.3083 5.1688,110.8403 C6.2178,114.5783 7.5348,118.2753 9.0858,121.8313 C9.3068,122.3373 9.0748,122.9263 8.5688,123.1473 C8.4388,123.2043 8.3028,123.2303 8.1698,123.2303 M154.6058,143.2803 C154.3838,143.2803 154.1598,143.2073 153.9748,143.0553 C153.5468,142.7073 153.4828,142.0773 153.8308,141.6483 C156.2818,138.6393 158.5488,135.4333 160.5688,132.1193 C160.8548,131.6483 161.4698,131.4983 161.9428,131.7863 C162.4138,132.0733 162.5638,132.6883 162.2758,133.1603 C160.2088,136.5513 157.8898,139.8333 155.3818,142.9123 C155.1848,143.1543 154.8968,143.2803 154.6058,143.2803 M20.4318,143.3253 C20.1418,143.3253 19.8538,143.1993 19.6548,142.9573 C17.1438,139.8773 14.8218,136.5993 12.7578,133.2153 C12.4698,132.7453 12.6188,132.1303 13.0908,131.8413 C13.5608,131.5523 14.1768,131.7013 14.4648,132.1743 C16.4828,135.4803 18.7508,138.6823 21.2058,141.6933 C21.5548,142.1213 21.4898,142.7513 21.0628,143.1003 C20.8768,143.2523 20.6538,143.3253 20.4318,143.3253 M137.4008,159.3593 C137.0868,159.3593 136.7778,159.2123 136.5828,158.9363 C136.2638,158.4853 136.3708,157.8613 136.8218,157.5433 C139.9858,155.3063 143.0278,152.8283 145.8658,150.1743 C146.2678,149.7983 146.9018,149.8183 147.2798,150.2223 C147.6558,150.6263 147.6348,151.2583 147.2318,151.6353 C144.3268,154.3503 141.2138,156.8873 137.9768,159.1753 C137.8018,159.2993 137.5998,159.3593 137.4008,159.3593 M37.6508,159.3953 C37.4508,159.3953 37.2498,159.3363 37.0738,159.2123 C33.8318,156.9223 30.7148,154.3863 27.8118,151.6763 C27.4078,151.2993 27.3868,150.6673 27.7628,150.2623 C28.1398,149.8583 28.7728,149.8393 29.1768,150.2143 C32.0138,152.8623 35.0598,155.3403 38.2288,157.5793 C38.6798,157.8973 38.7868,158.5213 38.4678,158.9723 C38.2738,159.2483 37.9638,159.3953 37.6508,159.3953 M116.5028,170.2143 C116.0918,170.2143 115.7058,169.9593 115.5608,169.5483 C115.3758,169.0283 115.6478,168.4573 116.1678,168.2713 C119.8208,166.9713 123.4198,165.4053 126.8648,163.6143 C127.3568,163.3603 127.9578,163.5503 128.2138,164.0413 C128.4678,164.5313 128.2778,165.1343 127.7868,165.3893 C124.2608,167.2213 120.5768,168.8253 116.8378,170.1563 C116.7278,170.1953 116.6138,170.2143 116.5028,170.2143 M58.5698,170.2383 C58.4578,170.2383 58.3458,170.2193 58.2358,170.1803 C54.4958,168.8543 50.8098,167.2533 47.2788,165.4223 C46.7878,165.1683 46.5968,164.5643 46.8508,164.0743 C47.1048,163.5823 47.7098,163.3923 48.1978,163.6463 C51.6498,165.4353 55.2508,167.0003 58.9038,168.2963 C59.4238,168.4803 59.6968,169.0513 59.5118,169.5723 C59.3658,169.9823 58.9808,170.2383 58.5698,170.2383 M93.4438,174.9943 C92.9218,174.9943 92.4828,174.5893 92.4468,174.0613 C92.4088,173.5103 92.8258,173.0343 93.3768,172.9963 C97.2558,172.7333 101.1448,172.2023 104.9348,171.4163 C105.4728,171.3083 106.0038,171.6503 106.1168,172.1923 C106.2288,172.7333 105.8818,173.2623 105.3408,173.3753 C101.4608,174.1783 97.4818,174.7223 93.5118,174.9923 C93.4888,174.9933 93.4658,174.9943 93.4438,174.9943 M81.6428,175.0003 C81.6198,175.0003 81.5978,174.9993 81.5748,174.9983 C77.6068,174.7323 73.6258,174.1923 69.7438,173.3923 C69.2028,173.2813 68.8558,172.7523 68.9668,172.2113 C69.0778,171.6713 69.6028,171.3263 70.1488,171.4333 C73.9408,172.2153 77.8298,172.7433 81.7078,173.0023 C82.2598,173.0393 82.6758,173.5153 82.6398,174.0663 C82.6048,174.5943 82.1638,175.0003 81.6428,175.0003" id="Fill-15" fill="#D1D2D4" mask="url(#mask-2)"></path>
                </g>
            </g>
        </g>
    </g>
</svg>