<?xml version="1.0" encoding="UTF-8" standalone="no"?>
<svg width="49px" height="50px" viewBox="0 0 49 50" version="1.1" xmlns="http://www.w3.org/2000/svg" xmlns:xlink="http://www.w3.org/1999/xlink">
    <!-- Generator: sketchtool 40.3 (33839) - http://www.bohemiancoding.com/sketch -->
    <title>AF8B79F6-85DF-4C96-87F6-CFD4FE6F228C</title>
    <desc>Created with sketchtool.</desc>
    <defs>
        <polygon id="path-1" points="41.845 41.6835 41.845 0.0725 0.2347 0.0725 0.2347 41.6835 41.845 41.6835"></polygon>
    </defs>
    <g id="Page-1" stroke="none" stroke-width="1" fill="none" fill-rule="evenodd">
        <g id="icons-2" transform="translate(-753.000000, -791.000000)">
            <g id="one-click" transform="translate(753.000000, 790.000000)">
                <g id="Group-3" transform="translate(7.000000, 0.927900)">
                    <mask id="mask-2" fill="white">
                        <use xlink:href="#path-1"></use>
                    </mask>
                    <g id="Clip-2"></g>
                    <path d="M21.0407,41.6835 C20.2127,41.6835 19.5407,41.0115 19.5407,40.1835 C19.5407,39.3555 20.2127,38.6835 21.0407,38.6835 C30.8577,38.6835 38.8457,30.6965 38.8457,20.8775 C38.8457,11.0595 30.8577,3.0725 21.0407,3.0725 C11.2227,3.0725 3.2347,11.0595 3.2347,20.8775 C3.2347,21.7055 2.5627,22.3775 1.7347,22.3775 C0.9067,22.3775 0.2347,21.7055 0.2347,20.8775 C0.2347,9.4055 9.5677,0.0725 21.0407,0.0725 C32.5127,0.0725 41.8457,9.4055 41.8457,20.8775 C41.8457,32.3505 32.5127,41.6835 21.0407,41.6835" id="Fill-1" fill="#56BDD2" mask="url(#mask-2)"></path>
                </g>
                <path d="M26.739,18.8155 C26.186,18.8155 25.739,18.3685 25.739,17.8155 L25.739,12.5245 C25.739,11.9715 26.186,11.5245 26.739,11.5245 C27.292,11.5245 27.739,11.9715 27.739,12.5245 L27.739,17.8155 C27.739,18.3685 27.292,18.8155 26.739,18.8155" id="Fill-4" fill="#56BDD2"></path>
                <path d="M37.322,24.1075 L32.031,24.1075 C31.478,24.1075 31.031,23.6605 31.031,23.1075 C31.031,22.5545 31.478,22.1075 32.031,22.1075 L37.322,22.1075 C37.875,22.1075 38.322,22.5545 38.322,23.1075 C38.322,23.6605 37.875,24.1075 37.322,24.1075" id="Fill-6" fill="#56BDD2"></path>
                <path d="M30.4802,20.3653 C30.2242,20.3653 29.9682,20.2673 29.7732,20.0723 C29.3822,19.6813 29.3822,19.0493 29.7732,18.6583 L33.5152,14.9173 C33.9062,14.5263 34.5392,14.5263 34.9292,14.9173 C35.3202,15.3073 35.3202,15.9403 34.9292,16.3313 L31.1872,20.0723 C30.9922,20.2673 30.7362,20.3653 30.4802,20.3653" id="Fill-8" fill="#56BDD2"></path>
                <path d="M34.2224,31.5908 C33.9664,31.5908 33.7104,31.4928 33.5154,31.2978 L29.7734,27.5568 C29.3824,27.1658 29.3824,26.5328 29.7734,26.1428 C30.1634,25.7518 30.7964,25.7518 31.1874,26.1428 L34.9294,29.8838 C35.3204,30.2748 35.3204,30.9068 34.9294,31.2978 C34.7344,31.4928 34.4784,31.5908 34.2224,31.5908" id="Fill-10" fill="#56BDD2"></path>
                <path d="M22.9968,20.3653 C22.7408,20.3653 22.4848,20.2673 22.2898,20.0723 L18.5488,16.3313 C18.1578,15.9403 18.1578,15.3073 18.5488,14.9173 C18.9388,14.5263 19.5718,14.5263 19.9628,14.9173 L23.7038,18.6583 C24.0948,19.0493 24.0948,19.6813 23.7038,20.0723 C23.5088,20.2673 23.2528,20.3653 22.9968,20.3653" id="Fill-12" fill="#56BDD2"></path>
                <path d="M17.2862,44.0676 C17.6832,45.3426 19.4992,45.3056 19.8452,44.0166 L21.7302,36.9796 L24.2092,27.7296 C24.4742,26.7386 23.5682,25.8326 22.5772,26.0976 L13.3262,28.5766 L5.9872,30.5426 C4.7242,30.8816 4.6542,32.6476 5.8872,33.0856 L11.7472,35.1636 L0.3902,46.5206 C-0.1298,47.0416 -0.1298,47.8846 0.3902,48.4056 L2.5222,50.5376 C3.0432,51.0576 3.8862,51.0576 4.4072,50.5376 L15.7642,39.1806 L17.2862,44.0676 Z" id="Fill-14" fill="#56BDD2"></path>
            </g>
        </g>
    </g>
</svg>