<?xml version="1.0" encoding="UTF-8" standalone="no"?>
<svg width="37px" height="37px" viewBox="0 0 37 37" version="1.1" xmlns="http://www.w3.org/2000/svg" xmlns:xlink="http://www.w3.org/1999/xlink">
    <!-- Generator: sketchtool 40.3 (33839) - http://www.bohemiancoding.com/sketch -->
    <title>F09F5437-8F66-49D8-8514-312FF1AE7FF2</title>
    <desc>Created with sketchtool.</desc>
    <defs>
        <ellipse id="path-1" cx="16.5" cy="16.5739868" rx="16.5" ry="16.5"></ellipse>
        <mask id="mask-2" maskContentUnits="userSpaceOnUse" maskUnits="objectBoundingBox" x="-1.6" y="-1.6" width="36.2" height="36.2">
            <rect x="-1.6" y="-1.52601318" width="36.2" height="36.2" fill="white"></rect>
            <use xlink:href="#path-1" fill="black"></use>
        </mask>
        <polygon id="path-3" points="18.4067375 6.50521808 18.4067375 13 0 13 0 6.50521808 0 0.0104361613 18.4067375 0.0104361613"></polygon>
    </defs>
    <g id="Page-1" stroke="none" stroke-width="1" fill="none" fill-rule="evenodd">
        <g id="icons" transform="translate(-396.000000, -888.000000)">
            <g id="youtube" transform="translate(398.000000, 890.000000)">
                <use id="Oval-18-Copy-2" stroke="#19BED3" mask="url(#mask-2)" stroke-width="3.2" xlink:href="#path-1"></use>
                <g transform="translate(7.000000, 10.073987)" id="Group-5">
                    <g>
                        <mask id="mask-4" fill="white">
                            <use xlink:href="#path-3"></use>
                        </mask>
                        <g id="Clip-4"></g>
                        <path d="M7.30309132,8.90077274 L7.30224437,3.71162114 L12.2758256,6.31523727 L7.30309132,8.90077274 Z M18.2229132,2.81266843 C18.2229132,2.81266843 18.0430534,1.53998832 17.4911841,0.979541864 C16.7912427,0.243947983 16.0066782,0.240313769 15.6468865,0.197245619 C13.0711301,0.0104361613 9.20736024,0.0104361613 9.20736024,0.0104361613 L9.19935926,0.0104361613 C9.19935926,0.0104361613 5.33567955,0.0104361613 2.75983301,0.197245619 C2.40002324,0.240313769 1.61574715,0.243947983 0.915553408,0.979541864 C0.363666096,1.53998832 0.184076566,2.81266843 0.184076566,2.81266843 C0.184076566,2.81266843 0,4.30719833 0,5.80174631 L0,7.20287149 C0,8.69738331 0.184076566,10.1919132 0.184076566,10.1919132 C0.184076566,10.1919132 0.363666096,11.4646114 0.915553408,12.0250579 C1.61574715,12.7606337 2.53549927,12.7373819 2.94513495,12.8144779 C4.41771143,12.956158 9.20337777,13.0000036 9.20337777,13.0000036 C9.20337777,13.0000036 13.0711301,12.9941455 15.6468865,12.807336 C16.0066782,12.764286 16.7912427,12.7606337 17.4911841,12.0250579 C18.0430534,11.4646114 18.2229132,10.1919132 18.2229132,10.1919132 C18.2229132,10.1919132 18.4067375,8.69738331 18.4067375,7.20287149 L18.4067375,5.80174631 C18.4067375,4.30719833 18.2229132,2.81266843 18.2229132,2.81266843 L18.2229132,2.81266843 Z" id="Fill-3" fill="#FFFFFF" mask="url(#mask-4)"></path>
                    </g>
                </g>
            </g>
        </g>
    </g>
</svg>