<?xml version="1.0" encoding="UTF-8" standalone="no"?>
<svg width="43px" height="39px" viewBox="0 0 43 39" version="1.1" xmlns="http://www.w3.org/2000/svg" xmlns:xlink="http://www.w3.org/1999/xlink">
    <!-- Generator: sketchtool 40.3 (33839) - http://www.bohemiancoding.com/sketch -->
    <title>81BCF6B3-A6EE-4FEE-ADD6-863013E0EA5F</title>
    <desc>Created with sketchtool.</desc>
    <defs>
        <polygon id="path-1" points="42.413 19.69725 42.413 0.395 0 0.395 0 19.69725 0 38.9995 42.413 38.9995 42.413 19.69725"></polygon>
    </defs>
    <g id="Page-1" stroke="none" stroke-width="1" fill="none" fill-rule="evenodd">
        <g id="icons-2" transform="translate(-586.000000, -667.000000)">
            <g id="images" transform="translate(586.000000, 666.000000)">
                <path d="M27.4496,11.4343 C27.4496,13.6433 25.6596,15.4333 23.4506,15.4333 C21.2416,15.4333 19.4516,13.6433 19.4516,11.4343 C19.4516,9.2253 21.2416,7.4353 23.4506,7.4353 C25.6596,7.4353 27.4496,9.2253 27.4496,11.4343" id="Fill-1" fill="#56BDD2"></path>
                <g id="Group-5" transform="translate(0.000000, 0.605500)">
                    <mask id="mask-2" fill="white">
                        <use xlink:href="#path-1"></use>
                    </mask>
                    <g id="Clip-4"></g>
                    <path d="M4.5,3.3945 C3.673,3.3945 3,4.0675 3,4.8945 L3,34.4995 C3,35.3275 3.673,35.9995 4.5,35.9995 L37.913,35.9995 C38.74,35.9995 39.413,35.3275 39.413,34.4995 L39.413,4.8945 C39.413,4.0675 38.74,3.3945 37.913,3.3945 L4.5,3.3945 Z M37.913,38.9995 L4.5,38.9995 C2.019,38.9995 0,36.9815 0,34.4995 L0,4.8945 C0,2.4135 2.019,0.3945 4.5,0.3945 L37.913,0.3945 C40.395,0.3945 42.413,2.4135 42.413,4.8945 L42.413,34.4995 C42.413,36.9815 40.395,38.9995 37.913,38.9995 L37.913,38.9995 Z" id="Fill-3" fill="#56BDD2" mask="url(#mask-2)"></path>
                </g>
                <path d="M28.2192,34.3203 C27.8352,34.3203 27.4512,34.1743 27.1582,33.8813 L12.1502,18.8723 L6.9072,24.1143 C6.3212,24.7003 5.3722,24.7003 4.7862,24.1143 C4.2002,23.5283 4.2002,22.5793 4.7862,21.9933 L11.0892,15.6903 C11.6752,15.1043 12.6242,15.1043 13.2102,15.6903 L29.2802,31.7593 C29.8652,32.3453 29.8652,33.2953 29.2802,33.8813 C28.9872,34.1743 28.6032,34.3203 28.2192,34.3203" id="Fill-6" fill="#56BDD2"></path>
                <path d="M25.9536,26.2744 C25.5696,26.2744 25.1856,26.1284 24.8926,25.8354 C24.3076,25.2494 24.3076,24.2994 24.8926,23.7134 L29.8926,18.7134 C30.1746,18.4324 30.5556,18.2744 30.9536,18.2744 C31.3516,18.2744 31.7326,18.4324 32.0146,18.7134 L36.7226,23.4224 C37.3076,24.0084 37.3076,24.9584 36.7226,25.5444 C36.1366,26.1294 35.1856,26.1294 34.6006,25.5444 L30.9536,21.8954 L27.0146,25.8354 C26.7216,26.1284 26.3376,26.2744 25.9536,26.2744" id="Fill-8" fill="#56BDD2"></path>
            </g>
        </g>
    </g>
</svg>