<?xml version="1.0" encoding="UTF-8" standalone="no"?>
<svg width="30px" height="26px" viewBox="0 0 30 26" version="1.1" xmlns="http://www.w3.org/2000/svg" xmlns:xlink="http://www.w3.org/1999/xlink">
    <!-- Generator: sketchtool 40.3 (33839) - http://www.bohemiancoding.com/sketch -->
    <title>4F5D6F5C-C60D-40FB-9A86-103ADBAFA6E2</title>
    <desc>Created with sketchtool.</desc>
    <defs>
        <polygon id="path-1" points="29.7 13.58586 29.7 26.4 0 26.4 0 13.58586 0 0.77172 29.7 0.77172 29.7 13.58586"></polygon>
    </defs>
    <g id="Page-1" stroke="none" stroke-width="1" fill="none" fill-rule="evenodd">
        <g id="icons" transform="translate(-620.000000, -624.000000)">
            <g id="active" transform="translate(620.000000, 623.000000)">
                <g id="Group-3" transform="translate(0.000000, 0.428280)">
                    <mask id="mask-2" fill="white">
                        <use xlink:href="#path-1"></use>
                    </mask>
                    <g id="Clip-2"></g>
                    <path d="M8.202,1.97172 C6,1.97172 4.2636,2.57772 3.0396,3.77292 C1.8012,4.98132 1.2,6.63132 1.2,8.81412 C1.2,9.45852 1.3164,10.13292 1.5432,10.82052 C1.7772,11.52732 2.0448,12.13452 2.3388,12.62532 C2.646,13.13532 2.994,13.63452 3.3756,14.10972 C3.7608,14.59092 4.0416,14.92572 4.2204,15.10812 C4.3812,15.27492 4.5084,15.39732 4.6008,15.47052 L14.5668,25.08252 C14.7396,25.25412 14.9688,25.24692 15.126,25.08972 L25.0416,15.54012 C27.3336,13.24692 28.5,10.98252 28.5,8.81412 C28.5,6.63012 27.8988,4.98132 26.6616,3.77292 C25.4364,2.57772 23.7,1.97172 21.498,1.97172 C20.9088,1.97172 20.2944,2.07612 19.6764,2.28252 C19.0464,2.49252 18.4512,2.77932 17.9076,3.13692 C17.3376,3.51252 16.842,3.86772 16.434,4.19412 C16.0272,4.51932 15.6372,4.86732 15.2748,5.23092 L14.85,5.65572 L14.4264,5.23092 C14.0592,4.86492 13.6692,4.51572 13.2672,4.19412 C12.8592,3.86772 12.3636,3.51252 11.7924,3.13692 C11.2488,2.77932 10.6536,2.49252 10.0248,2.28252 C9.4068,2.07612 8.7924,1.97172 8.202,1.97172 M14.85,26.40012 C14.4168,26.40012 14.028,26.24052 13.7268,25.93812 L3.81,16.37172 C3.732,16.31292 3.5688,16.15932 3.3588,15.94572 C3.1656,15.74532 2.8584,15.38292 2.4384,14.85972 C2.0256,14.34372 1.6452,13.79892 1.3104,13.24332 C0.9708,12.67572 0.666,11.98812 0.4044,11.19732 C0.1356,10.38852 0,9.58692 0,8.81412 C0,6.32532 0.7404,4.34052 2.2008,2.91492 C3.6564,1.49292 5.676,0.77172 8.202,0.77172 C8.9232,0.77172 9.6636,0.89652 10.404,1.14492 C11.1312,1.38612 11.8212,1.71972 12.4524,2.13372 C13.0536,2.52972 13.5792,2.90772 14.0172,3.25692 C14.3016,3.48492 14.58,3.72492 14.85,3.97452 C15.12,3.72612 15.3984,3.48612 15.684,3.25692 C16.122,2.90772 16.6476,2.52972 17.2476,2.13492 C17.8788,1.71972 18.5688,1.38732 19.296,1.14492 C20.0376,0.89652 20.778,0.77172 21.498,0.77172 C24.024,0.77172 26.0436,1.49292 27.5004,2.91492 C28.9596,4.34052 29.7,6.32532 29.7,8.81412 C29.7,11.31252 28.416,13.86252 25.8816,16.39692 L15.966,25.94652 C15.672,26.24052 15.2832,26.40012 14.85,26.40012" id="Fill-1" fill="#fff" mask="url(#mask-2)"></path>
                </g>
                <polygon id="Fill-4" fill="#fff" points="16.70388 17.62032 13.76868 12.13632 10.22868 12.13632 10.22868 10.93632 14.48748 10.93632 16.50228 14.70192 19.51188 6.56592 22.23348 10.86072 28.37868 10.86072 28.37868 12.06072 21.57348 12.06072 19.79508 9.25632"></polygon>
            </g>
        </g>
    </g>
</svg>