<?xml version="1.0" encoding="UTF-8" standalone="no"?>
<svg width="27px" height="30px" viewBox="0 0 27 30" version="1.1" xmlns="http://www.w3.org/2000/svg" xmlns:xlink="http://www.w3.org/1999/xlink">
    <!-- Generator: sketchtool 40.3 (33839) - http://www.bohemiancoding.com/sketch -->
    <title>CAD10DC8-DFB7-4CDD-8BE3-FE4D344D024F</title>
    <desc>Created with sketchtool.</desc>
    <defs></defs>
    <g id="Page-1" stroke="none" stroke-width="1" fill="none" fill-rule="evenodd">
        <g id="icons" transform="translate(-683.000000, -278.000000)" fill="#19BED3">
            <g id="unlocked-blue" transform="translate(683.000000, 278.000000)">
                <path d="M23.0824373,13 L3.29749104,13 L2.47311828,13 C1.10927599,13 0,14.0931995 0,15.437276 L0,26.8112306 C0,28.155307 1.10927599,29.2485066 2.47311828,29.2485066 L23.90681,29.2485066 C25.2706523,29.2485066 26.3799283,28.155307 26.3799283,26.8112306 L26.3799283,15.437276 C26.3799283,14.0931995 25.2706523,13 23.90681,13 L23.0824373,13 Z M24.7311828,26.8112306 C24.7311828,27.2590394 24.3612043,27.6236559 23.90681,27.6236559 L2.47311828,27.6236559 C2.01872401,27.6236559 1.64874552,27.2590394 1.64874552,26.8112306 L1.64874552,15.437276 C1.64874552,14.9894671 2.01872401,14.6248507 2.47311828,14.6248507 L4.1218638,14.6248507 L7.41935484,14.6248507 L18.9605735,14.6248507 L22.2580645,14.6248507 L23.90681,14.6248507 C24.3612043,14.6248507 24.7311828,14.9894671 24.7311828,15.437276 L24.7311828,26.8112306 L24.7311828,26.8112306 Z" id="Shape-Copy"></path>
                <path d="M13.6487455,18 C12.7396272,18 12,18.728908 12,19.6248507 C12,20.2234456 12.3340358,20.741773 12.8243728,21.0235221 L12.8243728,22.874552 C12.8243728,23.3233357 13.193362,23.6869773 13.6487455,23.6869773 C14.104129,23.6869773 14.4731183,23.3233357 14.4731183,22.874552 L14.4731183,21.0235221 C14.9634552,20.741773 15.297491,20.2234456 15.297491,19.6248507 C15.297491,18.728908 14.5578638,18 13.6487455,18 L13.6487455,18 Z" id="Shape-Copy-2"></path>
                <path d="M23.4719947,7.31182796 C22.3710395,3.11169087 18.4935329,0 13.8924731,0 C8.43776344,0 4,4.37344803 4,9.74910394 L4,12.9988053 L20.2401434,12.9988053 L17.3548387,12.9988053 L8.94623656,12.9988053 L8.94623656,9.74910394 C8.94623656,7.06127599 11.1651183,4.87455197 13.8924731,4.87455197 C15.5340877,4.87455197 16.9914865,5.6667853 17.8916867,6.8836749 C17.9933842,7.02114949 18.0879703,7.16404383 18.1749074,7.31182796 L20.0063167,7.31182796 C19.0260057,4.9321277 16.6548445,3.24970131 13.8924731,3.24970131 C10.256,3.24970131 7.29749104,6.16533333 7.29749104,9.74910394 L7.29749104,12.9988053 L5.64874552,12.9988053 L5.64874552,9.74910394 C5.64874552,5.26939068 9.34688172,1.62485066 13.8924731,1.62485066 C17.5768053,1.62485066 20.7043961,4.01915576 21.7573083,7.31182796 L23.4719947,7.31182796 Z" id="Combined-Shape"></path>
            </g>
        </g>
    </g>
</svg>