<?xml version="1.0" encoding="UTF-8" standalone="no"?>
<svg width="48px" height="46px" viewBox="0 0 48 46" version="1.1" xmlns="http://www.w3.org/2000/svg" xmlns:xlink="http://www.w3.org/1999/xlink">
    <!-- Generator: sketchtool 40.3 (33839) - http://www.bohemiancoding.com/sketch -->
    <title>A3C02635-7B32-455C-822A-22FF6D7E6B40</title>
    <desc>Created with sketchtool.</desc>
    <defs></defs>
    <g id="Page-1" stroke="none" stroke-width="1" fill="none" fill-rule="evenodd">
        <g id="icons-2" transform="translate(-418.000000, -795.000000)" fill="#56BDD2">
            <g id="profile" transform="translate(418.000000, 795.000000)">
                <path d="M15.1011,14.4921 C12.1781,14.4921 9.8001,16.8701 9.8001,19.7921 C9.8001,19.9171 9.8161,20.1631 9.8161,20.1631 C9.9681,23.8171 11.6511,26.9931 12.5181,27.8881 C13.8871,29.2961 16.3151,29.2971 17.6841,27.8871 C18.5521,26.9901 20.2341,23.8151 20.3841,20.1921 C20.3861,20.1571 20.4011,19.9151 20.4011,19.7921 C20.4011,16.8701 18.0231,14.4921 15.1011,14.4921 M15.1011,31.9791 C13.3021,31.9791 11.6211,31.2681 10.3661,29.9761 C8.7731,28.3351 6.9901,24.3911 6.8201,20.3171 C6.8201,20.3121 6.8001,19.9701 6.8001,19.7921 C6.8001,15.2161 10.5241,11.4921 15.1011,11.4921 C19.6781,11.4921 23.4011,15.2161 23.4011,19.7921 C23.4011,19.9771 23.3801,20.3451 23.3801,20.3451 C23.2131,24.3891 21.4301,28.3331 19.8371,29.9751 C19.8371,29.9761 19.8361,29.9761 19.8361,29.9761 C18.5811,31.2681 16.9001,31.9791 15.1011,31.9791" id="Fill-1"></path>
                <path d="M28.7021,45.5439 L1.5001,45.5439 C0.6711,45.5439 0.0001,44.8719 0.0001,44.0439 L0.0001,41.1659 C0.0001,36.0529 4.1591,31.8939 9.2721,31.8939 C10.1001,31.8939 10.7721,32.5649 10.7721,33.3939 C10.7721,34.2219 10.1001,34.8939 9.2721,34.8939 C5.8131,34.8939 3.0001,37.7069 3.0001,41.1659 L3.0001,42.5439 L27.2021,42.5439 L27.2021,41.1659 C27.2021,37.7069 24.3891,34.8939 20.9301,34.8939 C20.1011,34.8939 19.4301,34.2219 19.4301,33.3939 C19.4301,32.5649 20.1011,31.8939 20.9301,31.8939 C26.0431,31.8939 30.2021,36.0529 30.2021,41.1659 L30.2021,44.0439 C30.2021,44.8719 29.5311,45.5439 28.7021,45.5439" id="Fill-3"></path>
                <path d="M42.874,37.5439 L33.808,37.5439 C32.979,37.5439 32.308,36.8719 32.308,36.0439 C32.308,35.2159 32.979,34.5439 33.808,34.5439 L42.874,34.5439 C44.009,34.5439 44.933,33.6199 44.933,32.4849 L44.933,5.0589 C44.933,3.9239 44.009,2.9999 42.874,2.9999 L16.882,2.9999 C15.747,2.9999 14.823,3.9239 14.823,5.0589 L14.823,6.1509 C14.823,6.9799 14.152,7.6509 13.323,7.6509 C12.495,7.6509 11.823,6.9799 11.823,6.1509 L11.823,5.0589 C11.823,2.2699 14.092,-0.0001 16.882,-0.0001 L42.874,-0.0001 C45.664,-0.0001 47.933,2.2699 47.933,5.0589 L47.933,32.4849 C47.933,35.2739 45.664,37.5439 42.874,37.5439" id="Fill-5"></path>
                <path d="M39.876,9.2626 L27.423,9.2626 C26.871,9.2626 26.423,8.8156 26.423,8.2626 C26.423,7.7096 26.871,7.2626 27.423,7.2626 L39.876,7.2626 C40.428,7.2626 40.876,7.7096 40.876,8.2626 C40.876,8.8156 40.428,9.2626 39.876,9.2626" id="Fill-7"></path>
                <path d="M39.876,14.8398 L27.423,14.8398 C26.871,14.8398 26.423,14.3928 26.423,13.8398 C26.423,13.2868 26.871,12.8398 27.423,12.8398 L39.876,12.8398 C40.428,12.8398 40.876,13.2868 40.876,13.8398 C40.876,14.3928 40.428,14.8398 39.876,14.8398" id="Fill-9"></path>
                <path d="M39.876,20.4169 L27.423,20.4169 C26.871,20.4169 26.423,19.9699 26.423,19.4169 C26.423,18.8639 26.871,18.4169 27.423,18.4169 L39.876,18.4169 C40.428,18.4169 40.876,18.8639 40.876,19.4169 C40.876,19.9699 40.428,20.4169 39.876,20.4169" id="Fill-11"></path>
                <path d="M39.876,25.9941 L27.423,25.9941 C26.871,25.9941 26.423,25.5471 26.423,24.9941 C26.423,24.4411 26.871,23.9941 27.423,23.9941 L39.876,23.9941 C40.428,23.9941 40.876,24.4411 40.876,24.9941 C40.876,25.5471 40.428,25.9941 39.876,25.9941" id="Fill-13"></path>
            </g>
        </g>
    </g>
</svg>