<?xml version="1.0" encoding="UTF-8" standalone="no"?>
<svg width="16px" height="16px" viewBox="0 0 16 16" version="1.1" xmlns="http://www.w3.org/2000/svg" xmlns:xlink="http://www.w3.org/1999/xlink">
    <!-- Generator: sketchtool 40.3 (33839) - http://www.bohemiancoding.com/sketch -->
    <title>569244ED-67DD-4525-9A4C-26F1B339550A</title>
    <desc>Created with sketchtool.</desc>
    <defs></defs>
    <g id="Page-1" stroke="none" stroke-width="1" fill="none" fill-rule="evenodd">
        <g id="icons" transform="translate(-547.000000, -158.000000)" fill="#19BED3">
            <path d="M560.155317,158.5 C558.625557,158.5 557.385286,159.740271 557.385286,161.270031 C557.385286,161.390237 557.395536,161.507959 557.410445,161.623817 L551.14697,163.340255 C550.71491,162.834269 550.073498,162.512476 549.355675,162.512476 C548.054525,162.512476 547,163.567311 547,164.868462 C547,166.169612 548.054525,167.224137 549.355675,167.224137 C549.708219,167.224137 550.041505,167.144621 550.341866,167.005777 L554.359622,169.848181 C554.242522,170.154754 554.17574,170.486487 554.17574,170.834371 C554.17574,172.364132 555.4157,173.604402 556.945771,173.604402 C558.475531,173.604402 559.715802,172.364132 559.715802,170.834371 C559.715802,169.3043 558.475531,168.064341 556.945771,168.064341 C556.327965,168.064341 555.759547,168.268723 555.29891,168.610395 L551.470317,165.901865 C551.623448,165.589701 551.711662,165.239642 551.711662,164.868462 C551.711662,164.844234 551.708866,164.820938 551.707934,164.797021 L558.044092,163.060704 C558.551942,163.659252 559.308901,164.040062 560.155317,164.040062 C561.685077,164.040062 562.925348,162.799791 562.925348,161.270031 C562.925348,159.740271 561.685077,158.5 560.155317,158.5" id="share-blue"></path>
        </g>
    </g>
</svg>