<?xml version="1.0" encoding="UTF-8" standalone="no"?>
<svg width="23px" height="31px" viewBox="0 0 23 31" version="1.1" xmlns="http://www.w3.org/2000/svg" xmlns:xlink="http://www.w3.org/1999/xlink">
    <!-- Generator: sketchtool 40.3 (33839) - http://www.bohemiancoding.com/sketch -->
    <title>A4E8CEEA-9B9C-47EE-A706-31E722DC7C53</title>
    <desc>Created with sketchtool.</desc>
    <defs></defs>
    <g id="Page-1" stroke="none" stroke-width="1" fill="none" fill-rule="evenodd">
        <g id="icons" transform="translate(-365.000000, -372.000000)" fill="#34C6D9">
            <g id="hint" transform="translate(365.000000, 372.000000)">
                <path d="M7.66666667,30.008604 C7.66666667,30.5561369 8.12329197,31 8.66894945,31 L14.3310506,31 C14.884596,31 15.3333333,30.5500177 15.3333333,30.008604 L15.3333333,29.4080626 C15.3333333,28.8605298 14.876708,28.4166667 14.3310506,28.4166667 L8.66894945,28.4166667 C8.11540395,28.4166667 7.66666667,28.866649 7.66666667,29.4080626 L7.66666667,30.008604 Z" id="Shape"></path>
                <path d="M2.17620889,13.8854167 C1.22228389,17.900175 3.02212333,21.7423667 6.38639722,23.883175 L6.38107247,26.1347306 C6.37977906,26.6816413 6.81828841,27.125 7.37822398,27.125 L15.6089471,27.125 C16.1609521,27.125 16.6094829,26.6835702 16.6108042,26.1239938 C16.6108042,26.1239938 16.6135517,24.960425 16.6161072,23.8781375 C19.9751806,21.7058125 21.7998472,17.8233208 20.8063111,13.79965 C19.7384467,9.47515 15.8684283,6.43895833 11.4575778,6.45833333 C7.04651,6.47770833 3.20591889,9.55161667 2.17620889,13.8854167 Z M11.4692337,8.72972257 C14.8480713,8.71494234 17.7833783,11.0199869 18.6007624,14.3300874 C19.4205791,17.6502652 17.9240485,20.6991586 14.8727414,22.3210877 L14.1640069,22.6963713 L14.1613484,24.8536135 L8.83672068,24.8536135 L8.84203752,22.691131 L8.12031656,22.3158474 C5.05446793,20.7211946 3.59280254,17.7386779 4.38711164,14.3956578 C5.17527979,11.078436 8.09066189,8.74490591 11.4693001,8.72972257 L11.4692337,8.72972257 Z" id="Shape"></path>
                <path d="M10.2222222,2.87709121 C10.2222222,3.42822102 10.667366,3.875 11.2175844,3.875 L11.7824156,3.875 C12.332139,3.875 12.7777778,3.43048823 12.7777778,2.87709121 L12.7777778,0.997908786 C12.7777778,0.446778982 12.332634,0 11.7824156,0 L11.2175844,0 C10.667861,0 10.2222222,0.444511771 10.2222222,0.997908786 L10.2222222,2.87709121 Z" id="Shape"></path>
                <path d="M19.1783243,4.83957022 C18.792849,5.22923737 18.7950895,5.8632625 19.1841103,6.25649517 L19.583463,6.66017149 C19.9721339,7.05305039 20.5984049,7.05725703 20.9858237,6.66598689 L22.3013902,5.33734228 C22.6872217,4.94767513 22.6848337,4.31365 22.2952737,3.92041733 L21.8953675,3.51674101 C21.5061578,3.12386211 20.8797373,3.11965547 20.4926762,3.51092561 L19.1783243,4.83957022 Z" id="Shape"></path>
                <path d="M0.696759423,3.92748449 C0.311949819,4.3164603 0.310903769,4.94607214 0.697964874,5.33734228 L2.01231679,6.66598689 C2.39779215,7.05565403 3.02501392,7.05340416 3.41403753,6.66017149 L3.81339302,6.25649517 C4.20206665,5.86361627 4.20624365,5.23084036 3.81918072,4.83957022 L2.50482261,3.51092561 C2.11934544,3.12125847 1.49069722,3.12495099 1.10386756,3.51596873 L0.696759423,3.92748449 Z" id="Shape"></path>
            </g>
        </g>
    </g>
</svg>