<?xml version="1.0" encoding="UTF-8" standalone="no"?>
<svg width="15px" height="13px" viewBox="0 0 15 13" version="1.1" xmlns="http://www.w3.org/2000/svg" xmlns:xlink="http://www.w3.org/1999/xlink">
    <!-- Generator: sketchtool 40.3 (33839) - http://www.bohemiancoding.com/sketch -->
    <title>980AE78B-A86F-41A4-8424-54E12D2202BC</title>
    <desc>Created with sketchtool.</desc>
    <defs></defs>
    <g id="Page-1" stroke="none" stroke-width="1" fill="none" fill-rule="evenodd">
        <g id="icons-2" transform="translate(-1514.000000, -514.000000)">
            <g id="google+_withoutBorder" transform="translate(1512.000000, 511.000000)">
                <rect id="Rectangle-2-Copy" x="0" y="0" width="18" height="18"></rect>
                <path d="M7.92032913,6.12723783 C7.74858565,4.81174304 6.76091,3.75537 5.76690696,3.72554087 C4.77320522,3.69571174 4.1064187,4.70267087 4.27846348,6.01876826 C4.44990565,7.33516696 5.39449478,8.4264913 6.38879913,8.45632043 C7.38189826,8.48645087 8.0917713,7.44393783 7.92032913,6.12723783 L7.92032913,6.12723783 Z M6.25652652,11.01108 C4.77561565,10.9954122 3.44897261,11.9216217 3.44897261,13.0343387 C3.44897261,14.1696535 4.51860304,14.999747 5.99951391,14.999747 C8.08092435,14.999747 8.80676652,14.2278052 8.80676652,13.0924904 C8.80676652,12.9556983 8.78989348,12.8216178 8.75946174,12.6908517 C8.59675739,12.0487722 8.02036217,11.7302935 7.21618087,11.1668543 C6.92391565,11.0710396 6.60212261,11.0152983 6.25652652,11.01108 L6.25652652,11.01108 Z M8.02066348,3.92169 C8.83177478,4.38268565 9.30723304,5.13112565 9.30723304,6.10976217 C9.30723304,6.93232304 8.81279261,7.57982609 8.1749313,8.08270304 C7.55243652,8.57292522 7.43402391,8.77841478 7.43402391,9.19542 C7.43402391,9.55095913 8.10111174,10.1568822 8.44972087,10.405157 C9.46903348,11.1322043 9.77033783,11.8068248 9.77033783,12.9331004 C9.77033783,14.3383839 8.44972087,15.9078783 6.00734783,15.9078783 C3.8644713,15.9078783 2,14.8557235 2,13.4507413 C2,12.0237639 3.70598522,10.6471043 5.84856043,10.6471043 C6.0820713,10.6471043 6.29569609,10.6374626 6.51715478,10.6374626 C6.22398565,10.3500183 5.99228261,9.9920687 5.99228261,9.55728652 C5.99228261,9.2996713 6.07393609,9.04054957 6.18782913,8.81999478 C6.07122435,8.8284313 5.95251043,8.80914783 5.83018087,8.80914783 C4.07026217,8.80914783 2.89125826,7.50329478 2.89125826,5.93922391 C2.89125826,4.40889913 4.51950696,3 6.24929522,3 L10.1074974,3 L9.24395913,3.92169 L8.02066348,3.92169 Z M14.3426313,6.24082957 L14.3426313,8.53104391 L13.4281726,8.53104391 L13.4281726,6.24082957 L11.1424778,6.24082957 L11.1424778,5.30437565 L13.4281726,5.30437565 L13.4281726,3.01446261 L14.3426313,3.01446261 L14.3426313,5.30437565 L16.6283261,5.30437565 L16.6283261,6.24082957 L14.3426313,6.24082957 Z" id="Fill-5" fill="#FFFFFF"></path>
            </g>
        </g>
    </g>
</svg>