<?xml version="1.0" encoding="UTF-8" standalone="no"?>
<svg width="49px" height="39px" viewBox="0 0 49 39" version="1.1" xmlns="http://www.w3.org/2000/svg" xmlns:xlink="http://www.w3.org/1999/xlink">
    <!-- Generator: sketchtool 40.3 (33839) - http://www.bohemiancoding.com/sketch -->
    <title>4EEDA849-4623-45BD-8052-1850DD59518F</title>
    <desc>Created with sketchtool.</desc>
    <defs>
        <polygon id="path-1" points="0 38.3579 48.188 38.3579 48.188 -0.0001 0 -0.0001"></polygon>
    </defs>
    <g id="Page-1" stroke="none" stroke-width="1" fill="none" fill-rule="evenodd">
        <g id="icons-2" transform="translate(-254.000000, -665.000000)">
            <g id="secure-payment" transform="translate(254.000000, 665.000000)">
                <path d="M31.1343,32.5869 L4.9443,32.5869 C2.2173,32.5869 0.0003,30.3689 0.0003,27.6429 L0.0003,4.9429 C0.0003,2.2179 2.2173,-0.0001 4.9443,-0.0001 L36.4153,-0.0001 C39.1413,-0.0001 41.3593,2.2179 41.3593,4.9429 L41.3593,18.5789 C41.3593,19.4069 40.6873,20.0789 39.8593,20.0789 C39.0303,20.0789 38.3593,19.4069 38.3593,18.5789 L38.3593,4.9429 C38.3593,3.8719 37.4873,2.9999 36.4153,2.9999 L4.9443,2.9999 C3.8723,2.9999 3.0003,3.8719 3.0003,4.9429 L3.0003,27.6429 C3.0003,28.7149 3.8723,29.5869 4.9443,29.5869 L31.1343,29.5869 C31.9633,29.5869 32.6343,30.2589 32.6343,31.0869 C32.6343,31.9149 31.9633,32.5869 31.1343,32.5869 L31.1343,32.5869 Z" id="Fill-1" fill="#56BDD2"></path>
                <mask id="mask-2" fill="white">
                    <use xlink:href="#path-1"></use>
                </mask>
                <g id="Clip-4"></g>
                <polygon id="Fill-3" fill="#56BDD2" mask="url(#mask-2)" points="2.773 16.4489 39.031 16.4489 39.031 8.6039 2.773 8.6039"></polygon>
                <path d="M13.7751,22.572 C13.7751,24.368 12.3191,25.825 10.5221,25.825 C8.7261,25.825 7.2701,24.368 7.2701,22.572 C7.2701,20.776 8.7261,19.319 10.5221,19.319 C12.3191,19.319 13.7751,20.776 13.7751,22.572" id="Fill-5" fill="#56BDD2" mask="url(#mask-2)"></path>
                <path d="M19.0368,22.572 C19.0368,24.368 17.5808,25.825 15.7838,25.825 C13.9878,25.825 12.5318,24.368 12.5318,22.572 C12.5318,20.776 13.9878,19.319 15.7838,19.319 C17.5808,19.319 19.0368,20.776 19.0368,22.572" id="Fill-6" fill="#56BDD2" mask="url(#mask-2)"></path>
                <path d="M44.9897,27.9258 C44.4207,27.9258 43.9597,27.4648 43.9597,26.8958 L43.9597,25.9038 C43.9597,24.9388 43.1747,24.1538 42.2097,24.1538 L41.3727,24.1538 C40.4087,24.1538 39.6237,24.9388 39.6237,25.9038 L39.6237,26.8958 C39.6237,27.4648 39.1627,27.9258 38.5937,27.9258 C38.0247,27.9258 37.5637,27.4648 37.5637,26.8958 L37.5637,25.9038 C37.5637,23.8018 39.2727,22.0928 41.3727,22.0928 L42.2097,22.0928 C44.3107,22.0928 46.0197,23.8018 46.0197,25.9038 L46.0197,26.8958 C46.0197,27.4648 45.5587,27.9258 44.9897,27.9258" id="Fill-7" fill="#56BDD2" mask="url(#mask-2)"></path>
                <path d="M42.4561,33.2617 L42.4561,35.8097 L41.2071,35.8097 L41.2071,33.3157 C40.8721,33.1137 40.6371,32.7627 40.6371,32.3427 C40.6371,31.7047 41.1541,31.1877 41.7921,31.1877 C42.4291,31.1877 42.9461,31.7047 42.9461,32.3427 C42.9461,32.7277 42.7461,33.0517 42.4561,33.2617 M46.6631,28.7637 L36.9211,28.7637 C36.0821,28.7637 35.3961,29.4507 35.3961,30.2887 L35.3961,36.8327 C35.3961,37.6717 36.0821,38.3577 36.9211,38.3577 L46.6631,38.3577 C47.5011,38.3577 48.1871,37.6717 48.1871,36.8327 L48.1871,30.2887 C48.1871,29.4507 47.5011,28.7637 46.6631,28.7637" id="Fill-8" fill="#56BDD2" mask="url(#mask-2)"></path>
            </g>
        </g>
    </g>
</svg>