<?xml version="1.0" encoding="UTF-8" standalone="no"?>
<svg width="28px" height="28px" viewBox="0 0 28 28" version="1.1" xmlns="http://www.w3.org/2000/svg" xmlns:xlink="http://www.w3.org/1999/xlink">
    <!-- Generator: sketchtool 40.3 (33839) - http://www.bohemiancoding.com/sketch -->
    <title>B3FE32EA-D4A8-4FC8-961D-0AFC4A6BA31C</title>
    <desc>Created with sketchtool.</desc>
    <defs></defs>
    <g id="Page-1" stroke="none" stroke-width="1" fill="none" fill-rule="evenodd">
        <g id="icons" transform="translate(-699.000000, -722.000000)">
            <g id="city" transform="translate(699.000000, 722.000000)">
                <path d="M2.32419683,26.1182603 L10.5694667,26.1182603 L10.5694667,5.74200635 L2.41594286,5.74200635 C2.3652127,5.74200635 2.32419683,5.78194286 2.32419683,5.83267302 L2.32419683,26.1182603 L2.32419683,26.1182603 Z M11.6488317,27.1976254 L1.24483175,27.1976254 L1.24483175,5.83267302 C1.24483175,5.1872127 1.76940317,4.66264127 2.41594286,4.66264127 L11.6488317,4.66264127 L11.6488317,27.1976254 L11.6488317,27.1976254 Z" id="Fill-1" fill="#fff"></path>
                <path d="M15.2281143,26.1182603 L24.286146,26.1182603 L24.286146,10.0950857 C24.286146,10.0454349 24.2451302,10.004419 24.1944,10.004419 L15.2281143,10.004419 L15.2281143,26.1182603 Z M25.3655111,27.1976254 L14.1487492,27.1976254 L14.1487492,8.92505397 L24.1944,8.92505397 C24.8398603,8.92505397 25.3655111,9.4496254 25.3655111,10.0950857 L25.3655111,27.1976254 Z" id="Fill-3" fill="#fff"></path>
                <polygon id="Fill-5" fill="#fff" points="0 27.1976254 27.0704762 27.1976254 27.0704762 26.1182603 0 26.1182603"></polygon>
                <path d="M5.15073016,26.1182603 L7.63111111,26.1182603 L7.63111111,22.7862603 L5.15073016,22.7862603 L5.15073016,26.1182603 Z M4.07136508,27.1976254 L8.71047619,27.1976254 L8.71047619,21.7068952 L4.07136508,21.7068952 L4.07136508,27.1976254 Z" id="Fill-7" fill="#fff"></path>
                <path d="M17.2835492,9.0576 L16.2041841,9.0576 L16.2041841,1.1696 C16.2041841,1.11994921 16.1631683,1.07893333 16.1135175,1.07893333 L6.39599365,1.07893333 C6.34526349,1.07893333 6.30424762,1.11994921 6.30424762,1.1696 L6.30424762,4.98299683 L5.22488254,4.98299683 L5.22488254,1.1696 C5.22488254,0.525219048 5.74945397,-0.000431746033 6.39599365,-0.000431746033 L16.1135175,-0.000431746033 C16.7589778,-0.000431746033 17.2835492,0.525219048 17.2835492,1.1696 L17.2835492,9.0576 Z" id="Fill-8" fill="#fff"></path>
                <polygon id="Fill-9" fill="#fff" points="4.01415873 10.2116571 5.84907937 10.2116571 5.84907937 7.91800635 4.01415873 7.91800635"></polygon>
                <polygon id="Fill-10" fill="#fff" points="4.01415873 13.7875937 5.84907937 13.7875937 5.84907937 11.4939429 4.01415873 11.4939429"></polygon>
                <polygon id="Fill-11" fill="#fff" points="4.01415873 17.3624508 5.84907937 17.3624508 5.84907937 15.0688 4.01415873 15.0688"></polygon>
                <polygon id="Fill-12" fill="#fff" points="17.1629841 14.2819429 18.9979048 14.2819429 18.9979048 11.9882921 17.1629841 11.9882921"></polygon>
                <polygon id="Fill-13" fill="#fff" points="17.1629841 17.8568 18.9979048 17.8568 18.9979048 15.5631492 17.1629841 15.5631492"></polygon>
                <polygon id="Fill-14" fill="#fff" points="17.1629841 21.4327365 18.9979048 21.4327365 18.9979048 19.1390857 17.1629841 19.1390857"></polygon>
                <polygon id="Fill-15" fill="#fff" points="20.5813333 14.2819429 22.416254 14.2819429 22.416254 11.9882921 20.5813333 11.9882921"></polygon>
                <polygon id="Fill-16" fill="#fff" points="20.5813333 17.8568 22.416254 17.8568 22.416254 15.5631492 20.5813333 15.5631492"></polygon>
                <polygon id="Fill-17" fill="#fff" points="20.5813333 21.4327365 22.416254 21.4327365 22.416254 19.1390857 20.5813333 19.1390857"></polygon>
            </g>
        </g>
    </g>
</svg>