<?xml version="1.0" encoding="UTF-8" standalone="no"?>
<svg width="15px" height="14px" viewBox="0 0 15 14" version="1.1" xmlns="http://www.w3.org/2000/svg" xmlns:xlink="http://www.w3.org/1999/xlink">
    <!-- Generator: sketchtool 40.3 (33839) - http://www.bohemiancoding.com/sketch -->
    <title>0D140980-8223-4F2B-A65B-24FC28D52C06</title>
    <desc>Created with sketchtool.</desc>
    <defs></defs>
    <g id="Page-1" stroke="none" stroke-width="1" fill="none" fill-rule="evenodd">
        <g id="icons-2" transform="translate(-1556.000000, -513.000000)">
            <g id="linkedin_withoutBorder" transform="translate(1554.000000, 511.000000)">
                <rect id="Rectangle-2-Copy-2" x="0" y="0" width="18" height="18"></rect>
                <path d="M2.17897478,15.8220357 L5.38997522,15.8220357 L5.38997522,6.61417478 L2.17897478,6.61417478 L2.17897478,15.8220357 Z M3.79065174,5.24896478 C2.80116826,5.24896478 2,4.52252 2,3.62553696 C2,2.72765 2.80116826,2 3.79065174,2 C4.77893,2 5.58009826,2.72765 5.58009826,3.62553696 C5.58009826,4.52252 4.77893,5.24896478 3.79065174,5.24896478 L3.79065174,5.24896478 Z M13.1600117,15.8220357 L13.1600117,10.7932661 C13.1600117,9.76250391 12.8647335,8.72993391 11.6631317,8.72993391 C10.46153,8.72993391 9.95925565,9.76250391 9.95925565,10.8185757 L9.95925565,15.8220357 L6.75307609,15.8220357 L6.75307609,6.61417478 L9.95925565,6.61417478 L9.95925565,7.85404217 C10.8026065,6.77085304 11.53568,6.3240187 12.8647335,6.3240187 C14.1946909,6.3240187 16.3568509,6.95103304 16.3568509,10.5874752 L16.3568509,15.8220357 L13.1600117,15.8220357 Z" id="Fill-9" fill="#FFFFFF"></path>
            </g>
        </g>
    </g>
</svg>