<?xml version="1.0" encoding="UTF-8" standalone="no"?>
<svg width="45px" height="45px" viewBox="0 0 45 45" version="1.1" xmlns="http://www.w3.org/2000/svg" xmlns:xlink="http://www.w3.org/1999/xlink">
    <!-- Generator: sketchtool 40.3 (33839) - http://www.bohemiancoding.com/sketch -->
    <title>190FBCBB-2E14-4DBA-A3A6-E4AA210DD88E</title>
    <desc>Created with sketchtool.</desc>
    <defs></defs>
    <g id="Page-1" stroke="none" stroke-width="1" fill="none" fill-rule="evenodd">
        <g id="icons-2" transform="translate(-917.000000, -664.000000)">
            <g id="excel" transform="translate(917.000000, 663.000000)">
                <path d="M40.6323,39.6076 L29.6643,39.6076 C28.8353,39.6076 28.1643,38.9356 28.1643,38.1076 C28.1643,37.2796 28.8353,36.6076 29.6643,36.6076 L40.6323,36.6076 C41.0333,36.6076 41.3723,36.2686 41.3723,35.8676 L41.3723,10.7426 C41.3723,10.3406 41.0333,10.0026 40.6323,10.0026 L29.6643,10.0026 C28.8353,10.0026 28.1643,9.3306 28.1643,8.5026 C28.1643,7.6736 28.8353,7.0026 29.6643,7.0026 L40.6323,7.0026 C42.6953,7.0026 44.3723,8.6796 44.3723,10.7426 L44.3723,35.8676 C44.3723,37.9296 42.6953,39.6076 40.6323,39.6076" id="Fill-1" fill="#56BDD2"></path>
                <g id="Group-5" transform="translate(0.000000, 0.607600)">
                    <polygon id="Clip-4" points="0 45 44.373 45 44.373 0.392 0 0.392 0 22.6961781 0 45.0001 26.414 45.0001 26.414 0.392356252 0 0.392356252 0 22.6961781"></polygon>
                    <path d="M3,39.1201 L23.414,41.8521 L23.414,3.5421 L3,6.2741 L3,39.1201 Z M24.414,45.0001 C24.347,45.0001 24.281,44.9951 24.214,44.9861 L1.868,41.9961 C0.826,41.9281 0,41.0581 0,40.0001 L0,5.3941 C0,4.3361 0.826,3.4671 1.868,3.3981 L24.214,0.4081 C25.387,0.2561 26.414,1.2261 26.414,2.3941 L26.414,43.0001 C26.414,44.1021 25.517,45.0001 24.414,45.0001 L24.414,45.0001 Z" id="Fill-3" fill="#56BDD2"></path>
                </g>
                <path d="M17.625,31.5431 C17.229,31.5431 16.841,31.3491 16.61,30.9901 L7.535,16.9291 C7.173,16.3691 7.334,15.6221 7.894,15.2601 C8.454,14.9021 9.201,15.0591 9.563,15.6201 L18.638,29.6821 C19,30.2411 18.839,30.9881 18.279,31.3511 C18.076,31.4811 17.85,31.5431 17.625,31.5431" id="Fill-6" fill="#56BDD2"></path>
                <path d="M8.5479,31.5431 C8.3229,31.5431 8.0969,31.4811 7.8939,31.3511 C7.3339,30.9881 7.1729,30.2411 7.5349,29.6821 L16.6099,15.6201 C16.9719,15.0591 17.7189,14.9011 18.2789,15.2601 C18.8389,15.6221 18.9999,16.3691 18.6379,16.9291 L9.5629,30.9901 C9.3319,31.3491 8.9439,31.5431 8.5479,31.5431" id="Fill-8" fill="#56BDD2"></path>
                <path d="M37.1284,15.6818 L29.9884,15.6818 C29.4364,15.6818 28.9884,15.2348 28.9884,14.6818 C28.9884,14.1288 29.4364,13.6818 29.9884,13.6818 L37.1284,13.6818 C37.6804,13.6818 38.1284,14.1288 38.1284,14.6818 C38.1284,15.2348 37.6804,15.6818 37.1284,15.6818" id="Fill-10" fill="#56BDD2"></path>
                <path d="M37.1284,21.259 L29.9884,21.259 C29.4364,21.259 28.9884,20.812 28.9884,20.259 C28.9884,19.706 29.4364,19.259 29.9884,19.259 L37.1284,19.259 C37.6804,19.259 38.1284,19.706 38.1284,20.259 C38.1284,20.812 37.6804,21.259 37.1284,21.259" id="Fill-12" fill="#56BDD2"></path>
                <path d="M37.1284,26.8361 L29.9884,26.8361 C29.4364,26.8361 28.9884,26.3891 28.9884,25.8361 C28.9884,25.2831 29.4364,24.8361 29.9884,24.8361 L37.1284,24.8361 C37.6804,24.8361 38.1284,25.2831 38.1284,25.8361 C38.1284,26.3891 37.6804,26.8361 37.1284,26.8361" id="Fill-14" fill="#56BDD2"></path>
                <path d="M37.1284,32.4133 L29.9884,32.4133 C29.4364,32.4133 28.9884,31.9663 28.9884,31.4133 C28.9884,30.8603 29.4364,30.4133 29.9884,30.4133 L37.1284,30.4133 C37.6804,30.4133 38.1284,30.8603 38.1284,31.4133 C38.1284,31.9663 37.6804,32.4133 37.1284,32.4133" id="Fill-16" fill="#56BDD2"></path>
            </g>
        </g>
    </g>
</svg>