<?xml version="1.0" encoding="UTF-8" standalone="no"?>
<svg width="45px" height="46px" viewBox="0 0 45 46" version="1.1" xmlns="http://www.w3.org/2000/svg" xmlns:xlink="http://www.w3.org/1999/xlink">
    <!-- Generator: sketchtool 40.3 (33839) - http://www.bohemiancoding.com/sketch -->
    <title>D507C929-EA77-4E41-BDEB-249CDFD54E5B</title>
    <desc>Created with sketchtool.</desc>
    <defs>
        <polygon id="path-1" points="9.949 9.9195 9.949 0.652041992 0.275413359 0.652041992 0.275413359 9.9195 9.949 9.9195"></polygon>
    </defs>
    <g id="Page-1" stroke="none" stroke-width="1" fill="none" fill-rule="evenodd">
        <g id="icons-2" transform="translate(-256.000000, -795.000000)">
            <g id="exchange" transform="translate(256.000000, 795.000000)">
                <path d="M37.2783,38.2688 C36.8893,38.2688 36.5023,38.1148 36.2163,37.8078 C35.6673,37.2218 35.6963,36.3008 36.2833,35.7518 C39.8223,32.4368 41.7713,27.9568 41.7713,23.1398 C41.7713,18.3228 39.8223,13.8428 36.2823,10.5288 C35.6963,9.9798 35.6663,9.0588 36.2153,8.4728 C36.7633,7.8868 37.6843,7.8548 38.2723,8.4058 C42.4043,12.2758 44.6803,17.5088 44.6803,23.1398 C44.6803,28.7708 42.4043,34.0028 38.2723,37.8748 C37.9913,38.1378 37.6343,38.2688 37.2783,38.2688" id="Fill-1" fill="#56BDD2"></path>
                <path d="M7.6738,38.2688 C7.3178,38.2688 6.9608,38.1378 6.6798,37.8748 C2.5478,34.0038 0.2718,28.7708 0.2718,23.1398 C0.2718,17.5078 2.5478,12.2758 6.6798,8.4058 C7.2658,7.8548 8.1868,7.8868 8.7358,8.4728 C9.2848,9.0588 9.2558,9.9798 8.6688,10.5288 C5.1298,13.8428 3.1808,18.3218 3.1808,23.1398 C3.1808,27.9568 5.1298,32.4368 8.6688,35.7518 C9.2558,36.3008 9.2848,37.2218 8.7358,37.8078 C8.4498,38.1138 8.0628,38.2688 7.6738,38.2688" id="Fill-3" fill="#56BDD2"></path>
                <path d="M22.4439,8.9954 C21.2219,8.5704 20.1389,8.1994 20.1389,6.7654 C20.1389,5.6184 20.9889,4.9814 22.1039,4.8004 L22.1039,3.4734 L23.2189,3.4734 L23.2189,4.7684 C23.8559,4.8214 24.4399,4.9814 24.8759,5.1404 L24.5679,6.4254 C23.9299,6.1384 23.2089,6.0214 22.8159,6.0214 C22.1779,6.0214 21.7319,6.2554 21.7319,6.7654 C21.7319,7.2644 22.3269,7.5084 23.0279,7.7214 C24.3129,8.1144 25.1309,8.7834 25.1309,9.9194 C25.1309,11.0454 24.3549,11.8304 23.2189,12.0224 L23.2189,13.3494 L22.1039,13.3494 L22.1039,12.0544 C21.3179,11.9904 20.5529,11.7994 20.0859,11.5554 L20.4049,10.3544 C21.0949,10.6414 21.8909,10.8004 22.5289,10.8004 C23.1869,10.8004 23.5589,10.4824 23.5589,10.0254 C23.5589,9.5264 23.1659,9.2504 22.4439,8.9954 M22.5939,17.1324 C27.3249,17.1324 31.1609,13.2974 31.1609,8.5664 C31.1609,3.8354 27.3249,0.0004 22.5939,0.0004 C17.8629,0.0004 14.0279,3.8354 14.0279,8.5664 C14.0279,13.2974 17.8629,17.1324 22.5939,17.1324" id="Fill-5" fill="#56BDD2"></path>
                <path d="M25.231,40.2288 L20.133,40.2288 L20.133,39.1668 C21.185,38.6358 21.206,37.7438 21.227,37.0208 C20.919,36.9788 20.505,36.9158 20.271,36.8728 L20.271,36.0338 L21.057,36.0338 C20.961,35.6728 20.877,35.3328 20.877,35.0038 C20.877,33.7188 21.96,33.0068 23.203,33.0068 C23.872,33.0068 24.551,33.2088 25.04,33.4208 L24.764,34.6008 C24.19,34.3558 23.627,34.2818 23.288,34.2818 C22.778,34.2818 22.31,34.5468 22.31,35.1208 C22.31,35.5238 22.417,35.6618 22.523,36.0338 L24.402,36.0338 L24.402,37.0428 L22.682,37.0428 C22.682,37.9028 22.523,38.5408 21.981,39.0608 L25.231,39.0608 L25.231,40.2288 Z M22.594,28.2618 C17.863,28.2618 14.028,32.0968 14.028,36.8278 C14.028,41.5588 17.863,45.3938 22.594,45.3938 C27.325,45.3938 31.161,41.5588 31.161,36.8278 C31.161,32.0968 27.325,28.2618 22.594,28.2618 L22.594,28.2618 Z" id="Fill-7" fill="#56BDD2"></path>
                <path d="M8.1724,17.2395 C7.3984,17.2395 6.7414,16.6445 6.6784,15.8595 L6.2964,11.0875 L1.6194,11.4615 C0.7954,11.5165 0.0714,10.9115 0.0054,10.0865 C-0.0616,9.2605 0.5544,8.5375 1.3804,8.4705 L7.5524,7.9765 C8.3744,7.9115 9.1004,8.5255 9.1674,9.3515 L9.6694,15.6195 C9.7354,16.4455 9.1194,17.1685 8.2934,17.2345 C8.2534,17.2375 8.2124,17.2395 8.1724,17.2395" id="Fill-9" fill="#56BDD2"></path>
                <g id="Group-13" transform="translate(35.000000, 28.394200)">
                    <mask id="mask-2" fill="white">
                        <use xlink:href="#path-1"></use>
                    </mask>
                    <g id="Clip-12"></g>
                    <path d="M2.2764,9.9195 C1.5024,9.9195 0.8454,9.3245 0.7824,8.5395 L0.2804,2.2725 C0.2134,1.4455 0.8294,0.7235 1.6554,0.6565 C2.4764,0.5935 3.2044,1.2055 3.2704,2.0315 L3.6534,6.8045 L8.3294,6.4305 C9.1504,6.3635 9.8784,6.9805 9.9444,7.8055 C10.0104,8.6315 9.3944,9.3545 8.5684,9.4205 L2.3974,9.9145 C2.3574,9.9175 2.3164,9.9195 2.2764,9.9195" id="Fill-11" fill="#56BDD2" mask="url(#mask-2)"></path>
                </g>
            </g>
        </g>
    </g>
</svg>