<?xml version="1.0" encoding="UTF-8" standalone="no"?>
<svg width="175px" height="175px" viewBox="0 0 175 175" version="1.1" xmlns="http://www.w3.org/2000/svg" xmlns:xlink="http://www.w3.org/1999/xlink">
    <!-- Generator: sketchtool 40.3 (33839) - http://www.bohemiancoding.com/sketch -->
    <title>9B469916-A403-4A70-A709-5442A28CE4AF</title>
    <desc>Created with sketchtool.</desc>
    <defs>
        <polygon id="path-1" points="0.000298325417 175 174.9993 175 174.9993 0.196081599 0.000298325417 0.196081599"></polygon>
    </defs>
    <g id="Page-1" stroke="none" stroke-width="1" fill="none" fill-rule="evenodd">
        <g id="icons-2" transform="translate(-181.000000, -109.000000)">
            <g id="create-page" transform="translate(181.000000, 108.000000)">
                <path d="M43.4966,49.1106 C41.6606,49.1106 40.1666,50.6046 40.1666,52.4406 L40.1666,114.5566 C40.1666,116.3926 41.6606,117.8866 43.4966,117.8866 L131.5026,117.8866 C133.3386,117.8866 134.8326,116.3926 134.8326,114.5566 L134.8326,52.4406 C134.8326,50.6046 133.3386,49.1106 131.5026,49.1106 L43.4966,49.1106 Z M131.5026,121.8866 L43.4966,121.8866 C39.4546,121.8866 36.1666,118.5986 36.1666,114.5566 L36.1666,52.4406 C36.1666,48.3986 39.4546,45.1106 43.4966,45.1106 L131.5026,45.1106 C135.5446,45.1106 138.8326,48.3986 138.8326,52.4406 L138.8326,114.5566 C138.8326,118.5986 135.5446,121.8866 131.5026,121.8866 L131.5026,121.8866 Z" id="Fill-1" fill="#57BED0"></path>
                <path d="M136.833,101.221 L38.166,101.221 C37.062,101.221 36.166,100.325 36.166,99.221 C36.166,98.117 37.062,97.221 38.166,97.221 L136.833,97.221 C137.937,97.221 138.833,98.117 138.833,99.221 C138.833,100.325 137.937,101.221 136.833,101.221" id="Fill-3" fill="#57BED0"></path>
                <path d="M92.1664,109.3874 C92.1664,111.6884 90.3014,113.5544 87.9994,113.5544 C85.6984,113.5544 83.8334,111.6884 83.8334,109.3874 C83.8334,107.0864 85.6984,105.2204 87.9994,105.2204 C90.3014,105.2204 92.1664,107.0864 92.1664,109.3874" id="Fill-5" fill="#D1D2D4"></path>
                <path d="M116.833,134.887 L58.166,134.887 C57.062,134.887 56.166,133.991 56.166,132.887 C56.166,131.783 57.062,130.887 58.166,130.887 L116.833,130.887 C117.937,130.887 118.833,131.783 118.833,132.887 C118.833,133.991 117.937,134.887 116.833,134.887" id="Fill-7" fill="#57BED0"></path>
                <path d="M87.9995,134.887 C86.8955,134.887 85.9995,133.991 85.9995,132.887 L85.9995,120.762 C85.9995,119.658 86.8955,118.762 87.9995,118.762 C89.1035,118.762 89.9995,119.658 89.9995,120.762 L89.9995,132.887 C89.9995,133.991 89.1035,134.887 87.9995,134.887" id="Fill-9" fill="#57BED0"></path>
                <path d="M75.6822,62.7569 C75.6822,64.6699 74.1312,66.2209 72.2182,66.2209 C70.3052,66.2209 68.7542,64.6699 68.7542,62.7569 C68.7542,60.8439 70.3052,59.2929 72.2182,59.2929 C74.1312,59.2929 75.6822,60.8439 75.6822,62.7569" id="Fill-11" fill="#F47F26"></path>
                <path d="M71.833,81.1712 C71.5,81.1712 71.168,81.0452 70.915,80.7912 L57.915,67.7912 L53.374,72.3332 C52.867,72.8412 52.043,72.8412 51.537,72.3332 C51.029,71.8252 51.029,71.0032 51.537,70.4952 L56.997,65.0352 C57.503,64.5272 58.327,64.5272 58.833,65.0352 L72.751,78.9532 C73.259,79.4612 73.259,80.2832 72.751,80.7912 C72.498,81.0452 72.166,81.1712 71.833,81.1712" id="Fill-13" fill="#F47F26"></path>
                <path d="M84.6162,79.8538 C84.2832,79.8538 83.9512,79.7278 83.6982,79.4738 L76.9632,72.7398 L73.5512,76.1518 C73.0432,76.6578 72.2202,76.6598 71.7142,76.1518 C71.2062,75.6438 71.2062,74.8218 71.7132,74.3138 L76.0442,69.9828 C76.5312,69.4968 77.3942,69.4968 77.8812,69.9828 L85.5342,77.6358 C86.0422,78.1438 86.0422,78.9658 85.5342,79.4738 C85.2812,79.7278 84.9492,79.8538 84.6162,79.8538" id="Fill-15" fill="#F47F26"></path>
                <path d="M118.9951,63.1282 L95.5521,63.1282 C94.9991,63.1282 94.5521,62.6812 94.5521,62.1282 C94.5521,61.5752 94.9991,61.1282 95.5521,61.1282 L118.9951,61.1282 C119.5471,61.1282 119.9951,61.5752 119.9951,62.1282 C119.9951,62.6812 119.5471,63.1282 118.9951,63.1282" id="Fill-17" fill="#D1D2D4"></path>
                <path d="M118.9951,68.7054 L95.5521,68.7054 C94.9991,68.7054 94.5521,68.2584 94.5521,67.7054 C94.5521,67.1524 94.9991,66.7054 95.5521,66.7054 L118.9951,66.7054 C119.5471,66.7054 119.9951,67.1524 119.9951,67.7054 C119.9951,68.2584 119.5471,68.7054 118.9951,68.7054" id="Fill-19" fill="#D1D2D4"></path>
                <path d="M118.9951,74.2825 L95.5521,74.2825 C94.9991,74.2825 94.5521,73.8355 94.5521,73.2825 C94.5521,72.7295 94.9991,72.2825 95.5521,72.2825 L118.9951,72.2825 C119.5471,72.2825 119.9951,72.7295 119.9951,73.2825 C119.9951,73.8355 119.5471,74.2825 118.9951,74.2825" id="Fill-21" fill="#D1D2D4"></path>
                <path d="M118.9951,79.8587 L95.5521,79.8587 C94.9991,79.8587 94.5521,79.4117 94.5521,78.8587 C94.5521,78.3057 94.9991,77.8587 95.5521,77.8587 L118.9951,77.8587 C119.5471,77.8587 119.9951,78.3057 119.9951,78.8587 C119.9951,79.4117 119.5471,79.8587 118.9951,79.8587" id="Fill-23" fill="#D1D2D4"></path>
                <g id="Group-27" transform="translate(0.000000, 0.804000)">
                    <mask id="mask-2" fill="white">
                        <use xlink:href="#path-1"></use>
                    </mask>
                    <g id="Clip-26"></g>
                    <path d="M81.4673,2.4023 C80.9463,2.4023 80.5073,1.9993 80.4703,1.4713 C80.4323,0.9203 80.8483,0.4423 81.3993,0.4043 C85.3333,0.1323 89.3983,0.1273 93.3373,0.3863 C93.8883,0.4233 94.3053,0.8993 94.2693,1.4503 C94.2333,2.0023 93.7653,2.4143 93.2053,2.3823 C89.3563,2.1293 85.3823,2.1323 81.5373,2.4003 C81.5133,2.4013 81.4903,2.4023 81.4673,2.4023 M116.3493,7.1233 C116.2383,7.1233 116.1263,7.1043 116.0163,7.0653 C112.3583,5.7713 108.5733,4.7193 104.7673,3.9393 C104.2263,3.8293 103.8783,3.2993 103.9883,2.7583 C104.0993,2.2183 104.6303,1.8733 105.1693,1.9803 C109.0653,2.7793 112.9393,3.8553 116.6833,5.1803 C117.2033,5.3643 117.4763,5.9353 117.2923,6.4563 C117.1473,6.8673 116.7613,7.1233 116.3493,7.1233 M58.4143,7.2073 C58.0043,7.2073 57.6183,6.9523 57.4723,6.5433 C57.2873,6.0233 57.5583,5.4513 58.0783,5.2653 C61.8193,3.9293 65.6873,2.8423 69.5733,2.0343 C70.1133,1.9253 70.6433,2.2683 70.7563,2.8103 C70.8683,3.3503 70.5213,3.8803 69.9803,3.9933 C66.1843,4.7823 62.4053,5.8433 58.7513,7.1483 C58.6393,7.1883 58.5263,7.2073 58.4143,7.2073 M137.2773,17.9453 C137.0783,17.9453 136.8773,17.8853 136.7023,17.7623 C133.5273,15.5243 130.1713,13.4863 126.7263,11.7043 C126.2363,11.4513 126.0443,10.8473 126.2983,10.3563 C126.5513,9.8673 127.1543,9.6733 127.6453,9.9283 C131.1703,11.7523 134.6053,13.8383 137.8543,16.1283 C138.3053,16.4463 138.4143,17.0703 138.0953,17.5213 C137.9013,17.7983 137.5923,17.9453 137.2773,17.9453 M37.5303,18.0803 C37.2173,18.0803 36.9083,17.9333 36.7133,17.6583 C36.3943,17.2083 36.5003,16.5843 36.9513,16.2643 C40.1953,13.9653 43.6213,11.8713 47.1343,10.0423 C47.6253,9.7853 48.2293,9.9773 48.4833,10.4663 C48.7383,10.9573 48.5483,11.5603 48.0583,11.8153 C44.6253,13.6033 41.2773,15.6493 38.1073,17.8953 C37.9323,18.0203 37.7303,18.0803 37.5303,18.0803 M154.5143,33.9993 C154.2243,33.9993 153.9373,33.8743 153.7393,33.6313 C151.2843,30.6283 148.6003,27.7623 145.7613,25.1183 C145.3573,24.7423 145.3343,24.1093 145.7113,23.7053 C146.0883,23.3023 146.7203,23.2793 147.1243,23.6553 C150.0303,26.3613 152.7763,29.2923 155.2883,32.3663 C155.6373,32.7943 155.5743,33.4233 155.1463,33.7733 C154.9603,33.9243 154.7373,33.9993 154.5143,33.9993 M20.3383,34.1783 C20.1163,34.1783 19.8933,34.1053 19.7083,33.9553 C19.2793,33.6063 19.2143,32.9763 19.5633,32.5483 C22.0663,29.4683 24.8053,26.5303 27.7043,23.8153 C28.1073,23.4383 28.7403,23.4593 29.1173,23.8613 C29.4953,24.2643 29.4743,24.8973 29.0713,25.2743 C26.2383,27.9283 23.5613,30.7993 21.1143,33.8093 C20.9173,34.0523 20.6293,34.1783 20.3383,34.1783 M166.7963,54.0813 C166.4113,54.0813 166.0443,53.8573 165.8793,53.4813 C164.3283,49.9333 162.5143,46.4553 160.4893,43.1433 C160.2013,42.6733 160.3493,42.0573 160.8203,41.7683 C161.2923,41.4793 161.9063,41.6293 162.1953,42.1003 C164.2683,45.4893 166.1243,49.0483 167.7123,52.6803 C167.9333,53.1863 167.7023,53.7763 167.1963,53.9973 C167.0663,54.0543 166.9303,54.0813 166.7963,54.0813 M8.1023,54.3123 C7.9693,54.3123 7.8353,54.2863 7.7053,54.2293 C7.1983,54.0103 6.9663,53.4223 7.1853,52.9153 C8.7643,49.2733 10.6123,45.7043 12.6773,42.3063 C12.9643,41.8353 13.5783,41.6843 14.0513,41.9713 C14.5233,42.2583 14.6743,42.8743 14.3863,43.3453 C12.3683,46.6663 10.5633,50.1523 9.0203,53.7103 C8.8573,54.0883 8.4883,54.3123 8.1023,54.3123 M173.1793,76.7493 C172.6883,76.7493 172.2593,76.3863 172.1903,75.8853 C171.6583,72.0373 170.8563,68.1943 169.8063,64.4663 C169.6563,63.9343 169.9663,63.3823 170.4983,63.2323 C171.0283,63.0853 171.5823,63.3933 171.7313,63.9233 C172.8063,67.7403 173.6273,71.6733 174.1723,75.6123 C174.2473,76.1593 173.8653,76.6643 173.3183,76.7393 C173.2713,76.7463 173.2253,76.7493 173.1793,76.7493 M1.7843,77.0053 C1.7393,77.0053 1.6943,77.0023 1.6493,76.9963 C1.1013,76.9223 0.7173,76.4183 0.7913,75.8713 C1.3233,71.9323 2.1333,67.9983 3.1963,64.1753 C3.3443,63.6433 3.8983,63.3313 4.4283,63.4813 C4.9603,63.6293 5.2713,64.1803 5.1233,64.7133 C4.0843,68.4463 3.2933,72.2913 2.7743,76.1383 C2.7063,76.6403 2.2773,77.0053 1.7843,77.0053 M173.2063,100.4703 C173.1613,100.4703 173.1163,100.4673 173.0703,100.4623 C172.5233,100.3863 172.1393,99.8823 172.2143,99.3363 C172.7353,95.5063 172.9993,91.5903 172.9993,87.6953 L172.9993,87.5233 C172.9993,86.9703 173.4473,86.5233 173.9993,86.5233 C174.5513,86.5233 174.9993,86.9703 174.9993,87.5233 L174.9993,87.6953 C174.9993,91.6793 174.7293,95.6863 174.1963,99.6053 C174.1283,100.1073 173.6983,100.4703 173.2063,100.4703 M1.8043,100.5553 C1.3133,100.5553 0.8843,100.1923 0.8153,99.6913 C0.2783,95.7733 0.0043,91.7663 0.0003,87.7823 C-0.0007,87.2293 0.4463,86.7823 0.9993,86.7813 L1.0003,86.7813 C1.5513,86.7813 1.9993,87.2283 2.0003,87.7803 C2.0043,91.6743 2.2723,95.5903 2.7973,99.4203 C2.8723,99.9663 2.4893,100.4713 1.9423,100.5463 C1.8963,100.5523 1.8503,100.5553 1.8043,100.5553 M166.8613,123.1593 C166.7283,123.1593 166.5923,123.1323 166.4633,123.0763 C165.9563,122.8563 165.7243,122.2663 165.9453,121.7603 C167.4933,118.1993 168.8083,114.4983 169.8533,110.7593 C170.0013,110.2283 170.5543,109.9163 171.0853,110.0663 C171.6173,110.2153 171.9273,110.7663 171.7793,111.2983 C170.7103,115.1243 169.3643,118.9123 167.7793,122.5573 C167.6153,122.9343 167.2473,123.1593 166.8613,123.1593 M8.1693,123.2303 C7.7833,123.2303 7.4163,123.0063 7.2523,122.6303 C5.6653,118.9903 4.3173,115.2063 3.2433,111.3823 C3.0943,110.8503 3.4043,110.2983 3.9363,110.1493 C4.4673,110.0003 5.0203,110.3093 5.1693,110.8413 C6.2173,114.5783 7.5353,118.2753 9.0853,121.8313 C9.3063,122.3373 9.0743,122.9263 8.5693,123.1473 C8.4383,123.2043 8.3023,123.2303 8.1693,123.2303 M154.6053,143.2803 C154.3833,143.2803 154.1603,143.2073 153.9743,143.0553 C153.5463,142.7073 153.4823,142.0773 153.8303,141.6483 C156.2823,138.6383 158.5493,135.4313 160.5683,132.1193 C160.8543,131.6483 161.4693,131.4963 161.9423,131.7863 C162.4143,132.0733 162.5633,132.6883 162.2763,133.1603 C160.2103,136.5493 157.8903,139.8313 155.3813,142.9123 C155.1833,143.1543 154.8953,143.2803 154.6053,143.2803 M20.4313,143.3253 C20.1413,143.3253 19.8533,143.1993 19.6553,142.9573 C17.1463,139.8793 14.8253,136.6023 12.7583,133.2163 C12.4703,132.7453 12.6183,132.1303 13.0903,131.8413 C13.5613,131.5533 14.1763,131.7023 14.4653,132.1733 C16.4853,135.4823 18.7533,138.6853 21.2053,141.6933 C21.5543,142.1213 21.4903,142.7513 21.0623,143.1003 C20.8773,143.2523 20.6533,143.3253 20.4313,143.3253 M137.4003,159.3593 C137.0863,159.3593 136.7783,159.2123 136.5833,158.9363 C136.2643,158.4863 136.3713,157.8613 136.8213,157.5433 C139.9853,155.3063 143.0273,152.8273 145.8653,150.1743 C146.2693,149.7983 146.9023,149.8193 147.2793,150.2223 C147.6563,150.6263 147.6343,151.2583 147.2313,151.6353 C144.3273,154.3503 141.2133,156.8863 137.9773,159.1753 C137.8013,159.2993 137.6003,159.3593 137.4003,159.3593 M37.6493,159.3953 C37.4503,159.3953 37.2493,159.3363 37.0733,159.2123 C33.8303,156.9223 30.7143,154.3863 27.8113,151.6763 C27.4073,151.2993 27.3853,150.6673 27.7623,150.2623 C28.1393,149.8583 28.7733,149.8383 29.1753,150.2143 C32.0123,152.8623 35.0583,155.3403 38.2273,157.5793 C38.6783,157.8973 38.7853,158.5213 38.4673,158.9723 C38.2723,159.2483 37.9633,159.3953 37.6493,159.3953 M116.5043,170.2143 C116.0923,170.2143 115.7073,169.9593 115.5623,169.5483 C115.3763,169.0293 115.6483,168.4573 116.1683,168.2713 C119.8223,166.9713 123.4213,165.4043 126.8653,163.6143 C127.3543,163.3603 127.9583,163.5503 128.2133,164.0413 C128.4683,164.5313 128.2773,165.1343 127.7873,165.3893 C124.2623,167.2213 120.5783,168.8253 116.8393,170.1563 C116.7283,170.1953 116.6153,170.2143 116.5043,170.2143 M58.5683,170.2383 C58.4573,170.2383 58.3443,170.2193 58.2343,170.1803 C54.4963,168.8543 50.8093,167.2543 47.2763,165.4223 C46.7853,165.1683 46.5933,164.5643 46.8483,164.0743 C47.1023,163.5833 47.7053,163.3913 48.1963,163.6463 C51.6493,165.4363 55.2513,167.0003 58.9033,168.2963 C59.4233,168.4803 59.6953,169.0513 59.5103,169.5723 C59.3653,169.9823 58.9803,170.2383 58.5683,170.2383 M93.4433,174.9943 C92.9223,174.9943 92.4823,174.5893 92.4463,174.0613 C92.4093,173.5103 92.8253,173.0343 93.3773,172.9963 C97.2553,172.7333 101.1443,172.2023 104.9343,171.4163 C105.4773,171.3053 106.0043,171.6503 106.1163,172.1923 C106.2293,172.7333 105.8813,173.2623 105.3413,173.3753 C101.4613,174.1783 97.4813,174.7223 93.5113,174.9923 C93.4883,174.9933 93.4663,174.9943 93.4433,174.9943 M81.6423,175.0003 C81.6203,175.0003 81.5973,174.9993 81.5753,174.9983 C77.6063,174.7323 73.6253,174.1923 69.7443,173.3923 C69.2033,173.2813 68.8553,172.7523 68.9673,172.2113 C69.0783,171.6703 69.6053,171.3273 70.1483,171.4333 C73.9403,172.2153 77.8293,172.7433 81.7083,173.0023 C82.2593,173.0393 82.6763,173.5153 82.6393,174.0663 C82.6043,174.5943 82.1643,175.0003 81.6423,175.0003" id="Fill-25" fill="#D1D2D4" mask="url(#mask-2)"></path>
                </g>
            </g>
        </g>
    </g>
</svg>