<?xml version="1.0" encoding="UTF-8" standalone="no"?>
<svg width="153px" height="39px" viewBox="0 0 153 39" version="1.1" xmlns="http://www.w3.org/2000/svg" xmlns:xlink="http://www.w3.org/1999/xlink">
    <!-- Generator: Sketch 39.1 (31720) - http://www.bohemiancoding.com/sketch -->
    <title>Group</title>
    <desc>Created with Sketch.</desc>
    <defs></defs>
    <g id="Page-1" stroke="none" stroke-width="1" fill="none" fill-rule="evenodd">
        <g id="colors" transform="translate(-1082.000000, -196.000000)" fill="#FFFFFF">
            <g id="Group" transform="translate(1082.000000, 196.000000)">
                <path d="M141.689867,38.404794 C140.967585,38.404794 140.294804,38.0756532 139.672651,37.4185183 C139.050499,36.7613833 138.508224,36.2453088 138.046953,35.136322 C137.964825,34.9402136 137.890571,34.7314902 137.815193,34.5239135 C137.560932,34.7681888 137.330296,34.9895274 137.146913,35.1684333 C136.572012,35.5835866 135.598843,36.3588452 134.936189,36.7602365 C134.274659,37.1616278 133.578253,37.5182927 132.84922,37.830231 C132.120187,38.1421694 131.364153,38.3921789 130.581118,38.5779657 C129.799208,38.7648994 129.006047,38.8589396 128.203886,38.8589396 C126.94608,38.8589396 125.84578,38.623839 124.901863,38.1524909 C123.959071,37.6822897 123.17266,37.0480914 122.543757,36.251043 C122.065611,35.6443687 121.678593,34.965444 121.382705,34.2154156 C120.484915,35.4792248 119.04035,36.3015036 117.409027,36.3015036 C115.408687,36.3015036 113.690735,35.0663652 112.917825,33.2945093 C112.898699,33.2578107 112.878448,33.221112 112.860447,33.1844134 C112.664688,32.7543513 112.555559,32.3070867 112.522932,31.8437664 C112.516182,31.7898653 112.507181,31.7359642 112.502681,31.6820631 C112.115664,32.5077823 111.676894,33.3552914 111.185247,34.2222966 C110.690225,35.095036 110.178327,35.8840566 109.649553,36.5905053 C109.120779,37.296954 108.593131,37.8749575 108.064357,38.3245158 C107.535583,38.7752209 107.037186,39 106.569165,39 C105.79288,39 105.190978,38.7958638 104.763459,38.3875915 C104.334814,37.9793192 104.016425,37.4632447 103.809416,36.8393679 C103.725037,36.585918 103.655284,36.3198529 103.595656,36.0469068 C103.287392,36.3542579 102.961128,36.6535811 102.615737,36.9437297 C101.973333,37.4838877 101.284802,37.940327 100.549019,38.3153411 C99.8132363,38.6880616 99.0763282,38.8749953 98.3405452,38.8749953 C97.4573805,38.8749953 96.7215974,38.5814062 96.133196,37.9930812 C95.5447946,37.4036094 95.0362718,36.5492194 94.6087526,35.4264705 C94.2869881,35.8152467 93.8920954,36.209757 93.4240744,36.6111483 C92.9560533,37.0125396 92.4441553,37.3772323 91.8883804,37.7029327 C91.3337305,38.0274862 90.7554545,38.2935513 90.1524274,38.5022748 C89.5505254,38.7087046 88.9486234,38.8142132 88.3467213,38.8142132 C87.7043175,38.8142132 87.0787894,38.678887 86.470137,38.4082345 C85.8614847,38.1387289 85.3225855,37.7510996 84.8545645,37.2453466 C84.3865435,36.7395935 84.0119016,36.1237446 83.730639,35.3966529 C83.4493764,34.6695612 83.3098701,33.8484293 83.3098701,32.9344039 C83.3098701,32.7107716 83.3188705,32.4836988 83.3323711,32.2577729 C83.1343622,32.3747498 82.9374784,32.4722305 82.7574703,32.5295721 C82.2151959,32.7027438 81.6639212,32.7887562 81.1013959,32.7887562 C76.9870861,32.7887562 74.7561109,30.2611378 74.0214529,27.7197575 C73.754816,26.7977043 72.9717808,26.8825699 72.9425295,27.4341962 C72.8727764,28.7289699 72.6151398,32.7187995 72.2393729,34.4344606 C72.0526145,35.2842633 71.706099,36.9540512 71.5384664,37.3072755 C71.371959,37.6604999 71.2009513,37.9483548 71.0276935,38.1685466 C70.8533107,38.3921789 70.6665523,38.5470012 70.4651682,38.6364542 C70.2649092,38.7270539 70.0443993,38.7717804 69.8036385,38.7717804 C69.2546139,38.7717804 68.812469,38.651363 68.478329,38.4082345 C68.144189,38.1662529 67.8865524,37.8405525 67.7054193,37.4322802 C67.5254112,37.0240079 67.4050308,36.5595409 67.3442781,36.0400258 C67.2869005,35.5411538 67.2587742,35.0239324 67.2565241,34.4918022 C66.2226027,35.1122385 65.2820604,35.6684522 64.4450229,36.1547091 C63.4414778,36.736153 62.5481877,37.2212631 61.7651525,37.6088924 C60.9832424,37.9965217 60.2868361,38.2866703 59.6781838,38.4816318 C59.0695314,38.6754465 58.5171316,38.7717804 58.0232344,38.7717804 C57.0061888,38.7717804 56.1095235,38.452961 55.3332386,37.8153222 C54.5569538,37.1788303 53.9089247,36.2625113 53.3869012,35.0640715 C52.8648778,33.8656318 52.4733602,32.4148889 52.2123485,30.7118429 C51.9524618,29.008797 51.8219559,27.0901465 51.8219559,24.9581853 C51.8219559,24.1267319 51.8545824,23.2413773 51.9220854,22.299828 C51.9884634,21.3571318 52.0818426,20.4224635 52.202223,19.4946762 C51.801705,19.4407751 51.490066,19.3880208 51.2695561,19.338707 C51.0490462,19.29054 50.8150357,19.2423731 50.5675246,19.1942061 C50.3188884,19.1448923 50.0049993,19.0932849 49.6236072,19.0382369 C49.2422151,18.983189 48.6909403,18.9132322 47.9686579,18.8306603 C47.6468934,18.7893743 47.3993823,18.709096 47.2261245,18.5909723 C47.0517417,18.4739954 46.924611,18.3352287 46.8447324,18.175819 C46.7637288,18.0164093 46.7176017,17.8501187 46.7041011,17.676947 C46.6906005,17.5037753 46.6838502,17.3546871 46.6838502,17.2308292 C46.6838502,16.9532958 46.814356,16.7422786 47.0753678,16.5977778 C47.3363795,16.4521301 47.6705195,16.3443278 48.0789128,16.2755179 C48.4873062,16.2055611 48.9350763,16.1688625 49.4233482,16.1608347 C49.9116201,16.1539537 50.3796412,16.1573942 50.8285363,16.1711562 C51.2763064,16.1849181 51.6779495,16.1963865 52.0323404,16.2021206 C52.3867313,16.2101485 52.6308673,16.1986801 52.7647483,16.1711562 C53.1258895,14.3018195 55.5604988,4.81522268 58.2639953,2.78418267 C59.1854116,2.09034913 62.0902921,2.06970615 61.977787,4.17529026 C61.8551565,6.4311094 57.9996084,16.2502876 58.2302437,16.5541981 C58.5328823,16.952149 61.4343876,16.8810454 61.7156503,16.8879263 C61.9969129,16.8959542 62.3209275,16.9051288 62.688819,16.9188908 C63.0567105,16.9326528 63.4549784,16.9510021 63.8824976,16.9716451 C64.3111418,16.9922881 64.7251604,17.0094906 65.1268035,17.0232526 C65.5284465,17.0370145 65.9030883,17.0519234 66.250729,17.0645385 C66.5983696,17.0783005 66.8863825,17.0920625 67.1136427,17.1058245 C67.3814047,17.1207333 67.5760385,17.2583532 67.6964189,17.5221246 C67.8167993,17.7847492 67.876427,18.1161837 67.876427,18.5187219 C67.876427,19.0038319 67.742546,19.3983423 67.4747839,19.7033997 C67.2070219,20.0073102 66.9133837,20.1598389 66.5916193,20.1598389 L58.8861482,20.1598389 C56.4526639,20.1598389 56.6180463,23.2333495 56.6180463,23.2333495 C56.5640439,24.0923269 56.5179168,24.9375423 56.477415,25.7689957 C56.4639144,26.1291011 56.4504138,26.4995279 56.4369132,26.8791294 C56.4234126,27.2598777 56.409912,27.6371855 56.3975364,28.0121997 C56.3840358,28.386067 56.3739104,28.7461724 56.3671601,29.0913689 C56.3604098,29.4377122 56.3570346,29.7565316 56.3570346,30.047827 C56.3570346,30.7955617 56.4234126,31.4263195 56.5572936,31.9378067 C56.6911746,32.4492939 56.8858084,32.8690345 57.1400698,33.193588 C57.3932061,33.5192884 57.7048451,33.7555359 58.0727367,33.9011836 C58.4406282,34.0456844 58.8523967,34.1190817 59.3069171,34.1190817 C59.5881797,34.1190817 59.9391955,34.0502718 60.3610894,33.9103582 C60.7818583,33.7727384 61.2431291,33.5823642 61.7449016,33.3392357 C62.2477992,33.0972541 62.7754479,32.8105461 63.3312228,32.4779647 C63.8858727,32.1453833 64.4348974,31.7818375 64.9760467,31.3873272 C65.5183211,30.9928169 66.0369694,30.5765167 66.5319916,30.1407205 C66.9707613,29.754238 67.3667791,29.3585808 67.7324205,28.9548958 C67.8212995,28.3057888 67.9169288,27.6498007 68.0271837,26.9834911 C68.1801906,26.0488228 68.344448,25.1588809 68.5188308,24.3136655 C68.6920886,23.4695969 68.8664714,22.6931915 69.0408543,21.9878896 C69.214112,21.2814409 69.3884949,20.6999969 69.5628777,20.2424108 C69.6697575,19.9385003 69.7766373,19.6953718 69.8835171,19.5153192 C69.9903969,19.3364133 70.1141525,19.1942061 70.2547838,19.0898444 C70.3954151,18.9866295 70.5686729,18.9166727 70.7768072,18.8822677 C70.9838165,18.8478628 71.2414531,18.8306603 71.5497169,18.8306603 C71.8973576,18.8306603 72.1673697,18.8478628 72.3620034,18.8822677 C72.5555121,18.9166727 72.6995186,19.0003915 72.7928978,19.1311303 C72.886277,19.2641629 72.9436545,19.4522434 72.9639055,19.7033997 C72.9841564,19.9522623 72.9942818,20.2917246 72.9942818,20.7206399 L72.9942818,22.5796551 C72.9942818,23.3067468 73.8234441,23.5556094 74.1575841,22.8698036 C74.4917241,22.1851448 74.8809916,21.5452123 75.3220114,20.9488595 C75.7641562,20.3536536 76.2659288,19.851341 76.827329,19.4430687 C77.3887292,19.0347964 78.0378833,18.8306603 78.7736664,18.8306603 C79.0279278,18.8306603 79.2754389,18.8753867 79.5161997,18.9648397 C79.7569605,19.0554394 79.96847,19.1827378 80.1484781,19.3501753 C80.3296113,19.5153192 80.4724927,19.7194553 80.5804975,19.9625838 C80.6873773,20.2045654 80.7402547,20.4786583 80.7402547,20.7825689 C80.7402547,21.0188163 80.7065032,21.3479572 80.6401252,21.7699915 C80.5737472,22.1920258 80.4994939,22.6358499 80.4196153,23.0991701 C80.3397367,23.5636372 80.2654834,24.0131955 80.1991054,24.4489917 C80.1316024,24.8859348 80.0989759,25.2483338 80.0989759,25.5396292 C80.0989759,26.0385013 80.145103,26.4536546 80.2384822,26.786236 C80.3318614,27.1176705 80.4556169,27.3848824 80.6097488,27.5855781 C80.7638808,27.7862737 80.9382636,27.9284809 81.1317723,28.0121997 C81.325281,28.0947716 81.5300402,28.1372044 81.7437998,28.1372044 C82.3457018,28.1372044 82.6674663,28.1177083 83.3098701,27.8401749 C83.9511489,27.5626414 84.7296839,26.888304 85.132452,26.0465291 C85.1369522,26.040795 85.1403273,26.0327671 85.1448275,26.027033 C85.4879679,25.3572829 85.868235,24.7116163 86.2867538,24.09118 C86.3542568,23.9845246 86.4217599,23.8824566 86.491513,23.7895632 L86.491513,23.7964441 C86.5455154,23.7196064 86.5961427,23.6416218 86.6512702,23.5659309 C87.3263005,22.6392904 88.0654587,21.8284799 88.8687448,21.1357932 C89.6709058,20.4431065 90.5169438,19.892627 91.4068588,19.4843547 C92.2967737,19.0772292 93.2035644,18.8822677 94.1261059,18.8719462 C97.8218969,18.8306603 98.8085662,20.624306 98.9435722,20.7630727 C99.0763282,20.9006926 99.1809579,21.0945072 99.2540862,21.3433698 C99.3272145,21.5922325 99.3643411,21.9328417 99.3643411,22.3617569 C99.3643411,23.0269197 99.2968381,23.763186 99.1640821,24.5739964 C99.0302011,25.3848069 98.8828195,26.2139666 98.7219373,27.066063 C98.5621801,27.9181594 98.4147985,28.7702558 98.2809175,29.6223523 C98.1470365,30.4744487 98.0806585,31.2806718 98.0806585,32.0410216 C98.0806585,32.6924223 98.136911,33.2016159 98.2505411,33.5686022 C98.3641712,33.9355885 98.6083072,34.1190817 98.982949,34.1190817 C99.2642116,34.1190817 99.5578498,34.0456844 99.8661137,33.9011836 C100.174378,33.7555359 100.484891,33.5651617 100.799906,33.3289143 C101.113795,33.0938136 101.427684,32.8277485 101.742698,32.5295721 C102.056587,32.2325426 102.354725,31.9240447 102.635988,31.6052253 C102.814871,31.4010892 102.993754,31.1877783 103.173762,30.9698802 C103.149011,30.3700869 103.123135,29.8207542 103.097259,29.3310568 C103.056757,28.5626792 103.01963,27.866552 102.987004,27.2426752 C102.953252,26.6199453 102.929626,26.0453823 102.916126,25.5189863 C102.902625,24.9925902 102.897,24.4524322 102.897,23.8996591 C102.897,22.4729997 102.960003,21.3617192 103.087133,20.5646707 C103.214264,19.7687691 103.492152,19.3364133 103.919671,19.2664565 L106.328404,18.8719462 C106.394782,18.8581842 106.45891,18.8478628 106.518537,18.8398349 C106.57929,18.8341008 106.642293,18.8306603 106.709796,18.8306603 C107.164316,18.8306603 107.515332,18.969427 107.762843,19.2458136 C108.010354,19.523347 108.14086,19.8410195 108.154361,20.2011249 L107.372451,33.3507041 L107.652588,33.3289143 L112.931325,20.3054866 C112.970702,20.1105251 113.058456,19.9235915 113.192337,19.7435388 C113.325093,19.5646329 113.499476,19.4086638 113.713236,19.2779249 C113.926995,19.1448923 114.165506,19.0382369 114.426518,18.9545182 C114.687529,18.8719462 114.964292,18.8306603 115.259055,18.8306603 C116.034215,18.8306603 116.657493,18.9935105 117.125514,19.318064 C117.593535,19.6449112 117.827545,20.0623582 117.827545,20.5749922 C117.827545,20.9626215 117.778043,21.3307547 117.676789,21.6759512 C117.576659,22.0222946 117.436028,22.3996024 117.25602,22.8078747 C117.074887,23.2172938 116.861127,23.6702926 116.613616,24.1691646 C116.366105,24.6668899 116.094968,25.2552148 115.800204,25.9341396 C115.706825,26.184149 115.626947,26.4398926 115.560569,26.7025172 C115.493066,26.9387647 115.435688,27.2048298 115.389561,27.5030062 C115.38056,27.5592009 115.377185,27.6165426 115.36931,27.6738842 C115.302932,27.9204531 115.26468,28.180784 115.26468,28.4502896 C115.26468,28.8688834 115.352434,29.2656874 115.507691,29.6257927 C115.590945,29.8574529 115.70795,30.0707637 115.860957,30.2657252 C115.934085,30.3586186 116.020714,30.4434842 116.114093,30.5226156 C116.616991,31.0272218 117.301022,31.340307 118.057056,31.340307 C119.207982,31.340307 120.194652,30.6200964 120.622171,29.5913878 C120.641297,29.569598 120.658172,29.5512486 120.676173,29.5306057 C120.70655,28.9548958 120.772928,28.3573962 120.878682,27.7346663 C121.024939,26.8699547 121.249949,26.0212988 121.550338,25.1898454 C121.851851,24.3595388 122.229868,23.5670777 122.684388,22.8113152 C123.138909,22.0566995 123.671058,21.3926836 124.27971,20.8169738 C124.888362,20.2424108 125.578018,19.8020272 126.327302,19.4465092 C128.089131,18.6116153 130.353858,19.0875507 130.933259,19.311183 C131.574538,19.5611924 132.133688,19.9109763 132.608459,20.3616814 C133.083231,20.8112397 133.454497,21.3548382 133.722259,21.9913301 C133.990021,22.627822 134.123902,23.3411517 134.123902,24.1301723 C134.123902,24.9902966 133.919143,25.8481271 133.511875,26.7071045 C133.103481,27.5649351 132.538706,28.3757455 131.815299,29.1372422 C131.093016,29.8987388 130.233478,30.5776636 129.236683,31.1728695 C128.239888,31.7692223 127.159839,32.2325426 125.995412,32.5651239 C126.196796,32.9378444 126.39368,33.2497828 126.587189,33.4986454 C126.781823,33.747508 126.979831,33.9436164 127.18009,34.0812362 C127.380349,34.2188561 127.591859,34.3163369 127.812369,34.3713848 C128.032879,34.4264328 128.270264,34.4539567 128.524526,34.4539567 C129.326687,34.4539567 130.172725,34.2888129 131.06264,33.9562315 C131.952555,33.6236502 132.818844,33.2084969 133.662632,32.7096248 C134.191405,32.3965396 135.598843,31.1029128 136.75427,29.8219011 C136.63614,28.8069545 136.572012,27.7633371 136.572012,26.6818742 C136.572012,25.4501763 137.454052,20.2596133 137.74319,18.8318071 C139.005496,12.5987735 141.569487,6.32904133 142.251267,5.08931561 C142.934173,3.85073672 144.20548,1.51005198 145.174149,0.841448752 C148.008151,-1.11504716 150.488887,0.657955583 150.488887,2.91836205 C150.488887,4.75673424 147.692012,11.5173107 146.134942,16.1883586 C144.145852,22.1518866 141.98238,30.2622847 141.941878,30.5386713 L141.941878,30.9022171 C141.941878,31.2623224 141.998131,31.2370921 142.071259,31.5765545 C142.145513,31.9160169 142.127512,31.7657818 142.271518,32.0157913 C142.4144,32.2623602 142.587657,32.4492939 142.731664,32.5846201 C142.886921,32.7302678 143.136682,32.8873838 143.235686,32.9321103 C143.455071,33.0307379 143.76896,33.1695046 144.114351,33.1729451 C144.515994,33.1775324 144.868135,33.1373933 145.236026,32.9504596 C145.603918,32.7635259 145.696172,32.6889818 146.084314,32.4470002 C146.472457,32.2038718 146.847099,31.9584497 147.20824,31.7084402 C147.824768,31.2829654 148.463796,30.8081769 149.124201,30.2863682 C149.282833,30.1120496 149.875735,29.7416228 149.875735,29.7416228 C150.145747,29.6223523 150.44276,29.555836 150.755524,29.555836 C151.99533,29.555836 153,30.594866 153,31.8781714 C153,34.3759722 145.219151,38.404794 141.689867,38.404794 L141.689867,38.404794 Z M94.8967655,23.5613435 C94.7572592,22.2906533 93.9337222,22.4879085 92.8300477,23.0613246 C91.4068588,23.8010315 88.1284615,27.9823821 87.9315777,30.7416606 C87.7965716,32.6281997 87.6233138,33.9688467 89.4290199,34.2635826 C91.1615977,34.5445565 92.7872958,33.378228 93.1664378,31.6316024 L93.1675628,31.6327493 C93.1675628,31.6327493 95.0610229,25.0705748 94.8967655,23.5613435 L94.8967655,23.5613435 Z M126.194546,29.0214121 C126.485934,28.9571895 126.790823,28.8551214 127.109212,28.7117674 C127.678488,28.454877 128.206136,28.1257361 128.695533,27.7243448 C129.183805,27.3229535 129.594449,26.8871572 129.929714,26.4158091 C130.263854,25.9456079 130.551867,25.3767791 130.591244,24.9352486 C130.73075,23.3881718 129.119677,22.3009748 127.812369,23.23679 C127.433227,23.5085892 126.17992,24.727672 125.481264,26.6554971 C124.659977,28.9147567 125.966161,29.0707259 126.194546,29.0214121 L126.194546,29.0214121 Z M38.3562262,33.994077 C38.5576102,34.1328437 38.7679947,34.2291776 38.9885046,34.2853724 C39.2101395,34.3404203 39.4475252,34.3679443 39.7017866,34.3679443 C40.5039476,34.3679443 41.4523652,34.4103771 42.2399006,33.8690723 C43.2141943,33.1993222 43.6180875,32.3999801 45.0862784,32.3999801 C46.1820776,32.3999801 47.0686175,33.3197396 47.0686175,34.4516631 C47.0686175,34.8748442 46.9437368,35.6042295 46.6838502,35.8909376 C46.1359506,36.4953182 44.7555136,37.4322802 44.0264808,37.7442186 C43.296323,38.0550102 42.5414141,38.3038728 41.758379,38.4919533 C40.9753438,38.678887 40.1833082,38.7717804 39.3800221,38.7717804 C38.1222157,38.7717804 37.0219162,38.5366797 36.0791239,38.0664785 C35.1352065,37.5951304 33.9235271,36.640966 33.3407509,35.8072189 C31.4709169,33.1362464 31.6610505,31.381593 31.6610505,31.381593 C28.132892,33.0422062 25.706158,30.5925724 24.9850006,28.5397426 C24.5293552,29.6475826 22.322006,33.3610256 21.8269838,34.2819319 C21.3319616,35.2028382 20.8234387,35.9941525 20.3014153,36.6593153 C19.7805169,37.324478 19.2517432,37.843993 18.7162191,38.2190072 C18.1806951,38.5917277 17.6462961,38.7786614 17.110772,38.7786614 C16.9228886,38.7786614 16.7597562,38.63072 16.6191249,38.3313968 C16.4784936,38.0343672 16.3614884,37.6329759 16.2681092,37.1272228 C16.17473,36.6214698 16.0971015,36.0342917 16.0374738,35.3611011 C15.9767211,34.6902042 15.930594,33.980315 15.8968425,33.2325803 C15.863091,32.4848457 15.8394649,31.716468 15.8270893,30.9274474 C15.8135887,30.13728 15.8068384,29.3689023 15.8068384,28.6211676 L15.2240623,28.5168059 C14.8359198,30.0271841 14.3780243,31.4079701 13.8503756,32.6614579 C13.3216018,33.9149456 12.7557014,34.9952616 12.1537994,35.9012591 C11.5518973,36.8095503 10.9297444,37.5148522 10.2873406,38.0206052 C9.6449367,38.5263583 9.01603345,38.7786614 8.40063082,38.7786614 C7.35770898,38.7786614 6.59154957,37.9816129 6.10327764,36.3898097 C5.64988228,34.9115428 5.41474671,30.4343095 5.38212025,27.6429197 C4.2098176,28.0844501 3.90830406,28.0901843 2.45023857,28.1222956 C-0.45689199,28.187665 -1.02391746,24.3469237 2.09697271,23.9329172 C4.95235095,23.5544625 5.72188551,22.2069346 7.05957059,20.1919502 C7.291331,19.8433132 7.40608615,19.5703671 7.82910515,19.1896188 C8.39950577,18.6769847 11.5282713,18.9224069 11.411266,20.1873629 L10.007203,31.4251726 L10.2670896,31.4045297 C10.8566161,29.9916323 11.3673891,28.7014459 11.8027836,27.5293833 C12.2370531,26.3607612 12.6386962,25.3114096 13.0065877,24.3836223 C13.3744792,23.455835 13.7288701,22.6461713 14.0708855,21.9523378 C14.0708855,21.9523378 14.5490319,20.83647 14.9934269,19.9924014 C15.9215936,18.2331606 20.3599179,18.8375413 20.161909,20.1873629 L18.5159601,31.4251726 L18.7972227,31.4045297 L23.5888129,20.1736009 C24.5631067,18.3845425 29.0959353,18.8685057 29.0914351,20.5818732 C29.0914351,20.9695025 29.0284322,21.3858026 28.9013015,21.8284799 C28.7741708,22.272304 28.6369147,22.6840168 28.489533,23.0647651 C28.3421514,23.4455135 27.4882381,24.89855 27.4882381,24.89855 C27.4882381,27.887195 30.2288612,27.9032506 31.7690553,27.3722673 C31.7690553,27.3722673 32.2021998,24.8675855 33.6850164,22.7046598 C34.1834138,21.9798618 34.8471936,21.3066712 35.456971,20.7309614 C36.0656233,20.1563984 36.7541542,19.7160148 37.5034379,19.35935 C39.265267,18.524456 41.5311188,19.0003915 42.1093947,19.2251706 C42.7517986,19.4740332 43.3098236,19.823817 43.78572,20.2745221 C44.2604913,20.7240804 44.631758,21.2676789 44.89952,21.9041708 C45.166157,22.5418096 45.300038,23.2539925 45.300038,24.0441599 C45.300038,24.9031373 45.0964039,25.7621147 44.6880105,26.6199453 C44.2796172,27.4789227 43.7148418,28.2885863 42.9925594,29.0500829 C42.270277,29.8115796 41.4107384,30.4916511 40.4139436,31.0857103 C39.4171488,31.6820631 38.3371003,32.1453833 37.172673,32.4779647 C37.372932,32.851832 37.5709409,33.1637704 37.7644496,33.412633 C37.9579583,33.6614956 38.1559672,33.8564571 38.3562262,33.994077 L38.3562262,33.994077 Z M37.371807,28.9342529 C37.663195,28.8711771 37.9680837,28.7679622 38.286473,28.6246081 C38.8546236,28.3677177 39.3833973,28.0397237 39.8716692,27.6371855 C40.3599412,27.2357942 40.7717097,26.799998 41.1058497,26.3297967 C41.4399897,25.8584486 41.7280026,25.2896198 41.7685044,24.8480894 C41.9080107,23.3021594 40.2958133,22.2138156 38.9885046,23.1507776 C38.6093625,23.4225768 37.3571813,24.6405127 36.6573999,26.5683378 C35.837238,28.8287443 37.1434217,28.9835667 37.371807,28.9342529 L37.371807,28.9342529 Z" id="Shape"></path>
            </g>
        </g>
    </g>
</svg>