<?xml version="1.0" encoding="UTF-8" standalone="no"?>
<svg width="29px" height="25px" viewBox="0 0 29 25" version="1.1" xmlns="http://www.w3.org/2000/svg" xmlns:xlink="http://www.w3.org/1999/xlink">
    <!-- Generator: sketchtool 40.3 (33839) - http://www.bohemiancoding.com/sketch -->
    <title>14D831AD-DB5E-4316-B029-D3C860617C94</title>
    <desc>Created with sketchtool.</desc>
    <defs></defs>
    <g id="Page-1" stroke="none" stroke-width="1" fill="none" fill-rule="evenodd">
        <g id="icons" transform="translate(-535.000000, -623.000000)">
            <g id="spiritual" transform="translate(535.000000, 623.000000)">
                <path d="M23.0924762,15.1522349 L23.0849206,15.1522349 C22.790254,15.1489968 22.5527937,14.9136952 22.5527937,14.6190286 C22.5527937,14.6060762 22.5560317,14.5369968 22.5571111,14.5240444 C22.5581905,10.0511556 18.9358413,6.42880635 14.4834603,6.42880635 C10.0310794,6.42880635 6.40873016,10.0511556 6.40873016,14.5035365 C6.40873016,14.8014413 6.17019048,15.1015048 5.87228571,15.1015048 C5.57438095,15.1015048 5.33584127,14.9169333 5.33584127,14.6190286 L5.32936508,14.5035365 C5.32936508,9.4564254 9.43634921,5.34944127 14.4834603,5.34944127 C19.5305714,5.34944127 23.6375556,9.4564254 23.6375556,14.5035365 C23.6375556,14.507854 23.6321587,14.6157905 23.6321587,14.6201079 C23.6246032,14.9136952 23.3849841,15.1522349 23.0924762,15.1522349" id="Fill-1" fill="#fff"></path>
                <path d="M22.7551746,7.57034286 C22.6170159,7.57034286 22.4788571,7.51745397 22.3730794,7.41275556 C22.1626032,7.2012 22.1626032,6.86012063 22.3730794,6.64856508 L24.3753016,4.64742222 C24.5857778,4.43694603 24.9279365,4.43694603 25.1384127,4.64742222 C25.3488889,4.85789841 25.3488889,5.20005714 25.1384127,5.41053333 L23.1372698,7.41275556 C23.0314921,7.51745397 22.8933333,7.57034286 22.7551746,7.57034286" id="Fill-3" fill="#fff"></path>
                <path d="M14.5513524,4.17250159 C14.2534476,4.17250159 14.0116698,3.93072381 14.0116698,3.63281905 L14.0116698,0.53935873 C14.0116698,0.241453968 14.2534476,-0.000323809525 14.5513524,-0.000323809525 C14.8492571,-0.000323809525 15.0910349,0.241453968 15.0910349,0.53935873 L15.0910349,3.63281905 C15.0910349,3.93072381 14.8492571,4.17250159 14.5513524,4.17250159" id="Fill-5" fill="#fff"></path>
                <path d="M6.3476381,7.57034286 C6.20947937,7.57034286 6.07132063,7.51745397 5.96554286,7.41275556 L3.9644,5.41053333 C3.75392381,5.20005714 3.75392381,4.85789841 3.9644,4.64742222 C4.17487619,4.43694603 4.51703492,4.43694603 4.72751111,4.64742222 L6.72973333,6.64856508 C6.94020952,6.86012063 6.94020952,7.2012 6.72973333,7.41275556 C6.62395556,7.51745397 6.48579683,7.57034286 6.3476381,7.57034286" id="Fill-8" fill="#fff"></path>
                <path d="M28.4271302,18.3766222 L0.539574603,18.3766222 C0.241669841,18.3766222 -0.000107936507,18.1348444 -0.000107936507,17.8369397 C-0.000107936507,17.5390349 0.241669841,17.2972571 0.539574603,17.2972571 L28.4271302,17.2972571 C28.7250349,17.2972571 28.9668127,17.5390349 28.9668127,17.8369397 C28.9668127,18.1348444 28.7250349,18.3766222 28.4271302,18.3766222" id="Fill-10" fill="#fff"></path>
                <path d="M24.7714286,21.6010095 L3.77777778,21.6010095 C3.47879365,21.6010095 3.23809524,21.3592317 3.23809524,21.061327 C3.23809524,20.7634222 3.47879365,20.5216444 3.77777778,20.5216444 L24.7714286,20.5216444 C25.0693333,20.5216444 25.3111111,20.7634222 25.3111111,21.061327 C25.3111111,21.3592317 25.0693333,21.6010095 24.7714286,21.6010095" id="Fill-13" fill="#fff"></path>
                <path d="M21.612127,24.8253968 L7.01587302,24.8253968 C6.71688889,24.8253968 6.47619048,24.583619 6.47619048,24.2857143 C6.47619048,23.9878095 6.71688889,23.7460317 7.01587302,23.7460317 L21.612127,23.7460317 C21.9100317,23.7460317 22.1518095,23.9878095 22.1518095,24.2857143 C22.1518095,24.583619 21.9100317,24.8253968 21.612127,24.8253968" id="Fill-15" fill="#fff"></path>
            </g>
        </g>
    </g>
</svg>