<?xml version="1.0" encoding="UTF-8" standalone="no"?>
<svg width="24px" height="28px" viewBox="0 0 24 28" version="1.1" xmlns="http://www.w3.org/2000/svg" xmlns:xlink="http://www.w3.org/1999/xlink">
    <!-- Generator: sketchtool 40.3 (33839) - http://www.bohemiancoding.com/sketch -->
    <title>CE6F31A1-EC08-4B98-81E3-B970EACCAAB5</title>
    <desc>Created with sketchtool.</desc>
    <defs></defs>
    <g id="Page-1" stroke="none" stroke-width="1" fill="none" fill-rule="evenodd">
        <g id="icons" transform="translate(-702.000000, -673.000000)">
            <g id="food&amp;wine" transform="translate(702.000000, 673.000000)">
                <g id="Group-31">
                    <path d="M16.8348571,25.9989905 C16.5369524,25.9989905 16.2951746,25.7572127 16.2951746,25.4593079 L16.2951746,17.5648317 C16.2951746,17.266927 16.5369524,17.0251492 16.8348571,17.0251492 C17.1327619,17.0251492 17.3745397,17.266927 17.3745397,17.5648317 L17.3745397,25.4593079 C17.3745397,25.7572127 17.1327619,25.9989905 16.8348571,25.9989905" id="Fill-1" fill="#fff"></path>
                    <path d="M21.8870413,25.9989905 L11.7831048,25.9989905 C11.4841206,25.9989905 11.2434222,25.7572127 11.2434222,25.4593079 C11.2434222,25.1614032 11.4841206,24.9196254 11.7831048,24.9196254 L21.8870413,24.9196254 C22.184946,24.9196254 22.4267238,25.1614032 22.4267238,25.4593079 C22.4267238,25.7572127 22.184946,25.9989905 21.8870413,25.9989905" id="Fill-3" fill="#fff"></path>
                    <path d="M22.4720571,8.63373333 L11.2401841,8.63373333 C10.9412,8.63373333 10.7005016,8.39195556 10.7005016,8.09405079 C10.7005016,7.79614603 10.9412,7.55436825 11.2401841,7.55436825 L22.4720571,7.55436825 C22.7699619,7.55436825 23.0117397,7.79614603 23.0117397,8.09405079 C23.0117397,8.39195556 22.7699619,8.63373333 22.4720571,8.63373333" id="Fill-8" fill="#fff"></path>
                    <path d="M13.7064254,1.10300317 C12.5007746,1.10300317 11.4786159,3.87697143 11.1850286,6.55811429 C10.7662349,10.380146 15.437727,15.3991937 16.8355048,16.8056063 C18.2332825,15.3981143 22.9047746,10.3758286 22.4881397,6.55811429 C22.193473,3.87697143 21.1702349,1.10300317 19.9656635,1.10300317 L13.7064254,1.10300317 Z M16.8549333,18.120273 C16.6746794,18.120273 16.4965841,18.0306857 16.3929651,17.8860508 C15.5337905,17.0624952 9.59296508,11.1788762 10.1121397,6.44154286 C10.3722667,4.0572254 11.4224889,0.0236380952 13.7064254,0.0236380952 L19.9656635,0.0236380952 C22.7763302,0.0236380952 23.4887111,5.78420952 23.5610286,6.44046349 C24.0694095,11.0946857 18.3466159,16.8541778 17.3287746,17.8374794 C17.2370286,18.0101778 17.0556952,18.120273 16.8549333,18.120273 L16.8549333,18.120273 Z" id="Fill-5" fill="#fff"></path>
                    <path d="M3.808,12.8066667 L4.17822222,26.1087619 C4.19225397,26.623619 3.7864127,27.052127 3.27155556,27.0672381 C2.75669841,27.0812698 2.32819048,26.6754286 2.31307937,26.1605714 L2.31307937,26.1076825 L2.68869841,12.8066667 C2.69733333,12.4979683 2.95530159,12.2540317 3.264,12.2626667 C3.56190476,12.2713016 3.79936508,12.5130794 3.808,12.8066667" id="Fill-10" fill="#fff"></path>
                    <path d="M3.39244444,11.0164317 L3.39244444,11.0164317 C1.41828571,11.0164317 -0.13815873,9.33693968 0.00971428571,7.36925714 L0.563428571,0.000431746033 L1.57803175,0.000431746033 L1.57695238,5.97579683 C1.57695238,6.33738413 1.86946032,6.62989206 2.23104762,6.63097143 L2.23104762,6.63097143 C2.59263492,6.63097143 2.88622222,6.33738413 2.88622222,5.97579683 L2.88730159,0.000431746033 L3.90190476,0.000431746033 L3.9008254,5.97579683 C3.9008254,6.33738413 4.19333333,6.63097143 4.55492063,6.63097143 L4.55492063,6.63097143 C4.91650794,6.63097143 5.21009524,6.33738413 5.21009524,5.97579683 L5.2111746,0.000431746033 L6.22469841,0.00151111111 L6.77625397,7.37033651 C6.92412698,9.33909841 5.36660317,11.0164317 3.39244444,11.0164317" id="Fill-13" fill="#fff"></path>
                </g>
            </g>
        </g>
    </g>
</svg>