<?xml version="1.0" encoding="UTF-8" standalone="no"?>
<svg width="175px" height="175px" viewBox="0 0 175 175" version="1.1" xmlns="http://www.w3.org/2000/svg" xmlns:xlink="http://www.w3.org/1999/xlink">
    <!-- Generator: sketchtool 40.3 (33839) - http://www.bohemiancoding.com/sketch -->
    <title>9025C0EC-71AC-48DD-A32A-8B1922C405A4</title>
    <desc>Created with sketchtool.</desc>
    <defs>
        <polygon id="path-1" points="0.000298325417 175 174.9993 175 174.9993 0.196081599 0.000298325417 0.196081599"></polygon>
    </defs>
    <g id="Page-1" stroke="none" stroke-width="1" fill="none" fill-rule="evenodd">
        <g id="icons-2" transform="translate(-594.000000, -109.000000)">
            <g id="share" transform="translate(594.000000, 108.000000)">
                <path d="M128.8989,130.8782 L46.1089,130.8782 C42.3899,130.8782 39.3649,127.8532 39.3649,124.1332 L39.3559,75.8412 C39.3559,74.7362 40.2509,73.8412 41.3549,73.8412 C42.4599,73.8412 43.3559,74.7362 43.3559,75.8412 L43.3649,124.1332 C43.3649,125.6472 44.5959,126.8782 46.1089,126.8782 L128.8989,126.8782 C130.4119,126.8782 131.6439,125.6472 131.6439,124.1332 L131.6439,75.8372 C131.6439,74.7322 132.5389,73.8372 133.6439,73.8372 C134.7479,73.8372 135.6439,74.7322 135.6439,75.8372 L135.6439,124.1332 C135.6439,127.8532 132.6179,130.8782 128.8989,130.8782" id="Fill-1" fill="#57BED0"></path>
                <path d="M100.5137,51.6185 C100.0797,51.6185 99.6427,51.4775 99.2757,51.1875 L88.0197,42.3005 C87.7137,42.0595 87.2887,42.0585 86.9857,42.2995 L75.7827,51.1715 C74.9157,51.8535 73.6577,51.7105 72.9727,50.8445 C72.2877,49.9785 72.4337,48.7215 73.2997,48.0345 L84.5027,39.1625 C86.2697,37.7655 88.7347,37.7655 90.4997,39.1625 L101.7547,48.0495 C102.6217,48.7335 102.7697,49.9905 102.0847,50.8575 C101.6897,51.3575 101.1047,51.6185 100.5137,51.6185" id="Fill-3" fill="#57BED0"></path>
                <path d="M87.4946,113.5257 C86.4366,113.5257 85.3796,113.1767 84.4966,112.4787 L40.1166,77.4117 C39.6366,77.0317 39.3556,76.4547 39.3556,75.8417 C39.3546,75.2307 39.6346,74.6517 40.1146,74.2727 L52.2576,64.6697 C53.1246,63.9827 54.3816,64.1297 55.0676,64.9977 C55.7526,65.8637 55.6056,67.1217 54.7396,67.8057 L44.5816,75.8387 L86.9786,109.3417 C87.2826,109.5827 87.7066,109.5827 88.0106,109.3417 L130.4166,75.8357 L120.0006,67.5967 C119.1346,66.9127 118.9876,65.6547 119.6726,64.7887 C120.3586,63.9217 121.6166,63.7737 122.4816,64.4607 L134.8846,74.2687 C135.3646,74.6477 135.6436,75.2267 135.6436,75.8377 C135.6426,76.4507 135.3626,77.0287 134.8826,77.4077 L90.4926,112.4787 C89.6096,113.1767 88.5526,113.5257 87.4946,113.5257" id="Fill-5" fill="#57BED0"></path>
                <path d="M53.7705,78.929 C52.8215,78.929 52.0525,78.16 52.0525,77.211 L52.0525,50.003 C52.0525,49.054 52.8215,48.285 53.7705,48.285 L120.8225,48.283 C121.2775,48.283 121.7145,48.463 122.0375,48.785 C122.3595,49.108 122.5405,49.544 122.5405,50 L122.5405,77 C122.5405,77.95 121.7705,78.718 120.8225,78.718 C119.8735,78.718 119.1045,77.95 119.1045,77 L119.1045,51.718 L55.4885,51.721 L55.4885,77.211 C55.4885,78.16 54.7195,78.929 53.7705,78.929" id="Fill-7" fill="#D1D2D4"></path>
                <path d="M69.8595,63.9427 C69.7425,64.2177 69.1755,65.0527 69.0485,65.2807 C68.9215,65.5097 68.7905,65.7067 68.6565,65.8707 C68.5225,66.0357 68.3865,66.1647 68.2485,66.2577 C68.1115,66.3507 67.9735,66.3967 67.8365,66.3967 C67.7885,66.3967 67.7465,66.3597 67.7095,66.2857 C67.6735,66.2127 67.6435,66.1127 67.6195,65.9867 C67.5955,65.8617 67.5755,65.7157 67.5605,65.5487 C67.5445,65.3827 67.5325,65.2057 67.5245,65.0207 C67.5155,64.8347 67.5095,64.6437 67.5065,64.4487 C67.5025,64.2527 67.5015,64.0617 67.5015,63.8757 L67.3515,63.8507 C67.2515,64.2247 67.1345,64.5677 66.9985,64.8787 C66.8625,65.1897 66.7175,65.4577 66.5625,65.6827 C66.4075,65.9077 66.2475,66.0837 66.0835,66.2087 C65.9185,66.3337 65.7565,66.3967 65.5985,66.3967 C65.3305,66.3967 65.1335,66.1997 65.0075,65.8037 C64.8915,65.4377 64.8305,64.3257 64.8225,63.6337 C64.5215,63.7427 64.4435,63.7447 64.0695,63.7527 C63.3225,63.7687 63.1765,62.8157 63.9785,62.7127 C64.7125,62.6187 64.9095,62.2847 65.2535,61.7847 C65.3135,61.6977 65.3425,61.6307 65.4515,61.5357 C65.5975,61.4087 66.4015,61.4697 66.3715,61.7837 L66.0105,64.5717 L66.0775,64.5667 C66.2295,64.2167 66.3605,63.8957 66.4725,63.6057 C66.5835,63.3147 66.6875,63.0547 66.7815,62.8247 C66.8765,62.5947 66.9675,62.3937 67.0555,62.2217 C67.0555,62.2217 67.1775,61.9437 67.2925,61.7347 C67.5305,61.2987 68.6715,61.4477 68.6205,61.7837 L68.1975,64.5717 L68.2695,64.5667 L69.5005,61.7797 C69.7515,61.3357 70.9155,61.4557 70.9145,61.8817 C70.9145,61.9777 70.8985,62.0807 70.8655,62.1907 C70.8335,62.3007 70.7975,62.4027 70.7605,62.4967 C70.7225,62.5917 70.5025,62.9527 70.5025,62.9527 C70.5635,63.8227 71.5125,63.9247 72.1175,63.6477 C72.0585,61.1117 69.9845,59.0737 67.4345,59.0737 C64.8465,59.0737 62.7495,61.1707 62.7495,63.7577 C62.7495,66.3447 64.8465,68.4417 67.4345,68.4417 C69.6815,68.4417 71.5585,66.8587 72.0135,64.7487 C70.9535,65.1127 70.0375,64.6927 69.8595,63.9427" id="Fill-9" fill="#F47F26"></path>
                <path d="M110.2974,63.2308 L79.1554,63.2308 C78.6034,63.2308 78.1554,62.7838 78.1554,62.2308 C78.1554,61.6778 78.6034,61.2308 79.1554,61.2308 L110.2974,61.2308 C110.8494,61.2308 111.2974,61.6778 111.2974,62.2308 C111.2974,62.7838 110.8494,63.2308 110.2974,63.2308" id="Fill-11" fill="#F47F26"></path>
                <path d="M110.2974,68.8079 L79.1554,68.8079 C78.6034,68.8079 78.1554,68.3609 78.1554,67.8079 C78.1554,67.2549 78.6034,66.8079 79.1554,66.8079 L110.2974,66.8079 C110.8494,66.8079 111.2974,67.2549 111.2974,67.8079 C111.2974,68.3609 110.8494,68.8079 110.2974,68.8079" id="Fill-13" fill="#F47F26"></path>
                <path d="M110.2974,74.3851 L79.1554,74.3851 C78.6034,74.3851 78.1554,73.9381 78.1554,73.3851 C78.1554,72.8321 78.6034,72.3851 79.1554,72.3851 L110.2974,72.3851 C110.8494,72.3851 111.2974,72.8321 111.2974,73.3851 C111.2974,73.9381 110.8494,74.3851 110.2974,74.3851" id="Fill-15" fill="#F47F26"></path>
                <path d="M110.2974,79.9622 L79.1554,79.9622 C78.6034,79.9622 78.1554,79.5152 78.1554,78.9622 C78.1554,78.4092 78.6034,77.9622 79.1554,77.9622 L110.2974,77.9622 C110.8494,77.9622 111.2974,78.4092 111.2974,78.9622 C111.2974,79.5152 110.8494,79.9622 110.2974,79.9622" id="Fill-17" fill="#F47F26"></path>
                <path d="M44.7471,128.2063 C44.1561,128.2063 43.5721,127.9463 43.1771,127.4473 C42.4921,126.5803 42.6391,125.3223 43.5051,124.6383 L67.6041,105.5743 C68.4711,104.8883 69.7291,105.0353 70.4141,105.9013 C71.0991,106.7683 70.9521,108.0253 70.0861,108.7113 L45.9861,127.7743 C45.6191,128.0653 45.1821,128.2063 44.7471,128.2063" id="Fill-19" fill="#57BED0"></path>
                <path d="M130.2461,128.2044 C129.8111,128.2044 129.3741,128.0634 129.0061,127.7724 L104.9171,108.7134 C104.0511,108.0284 103.9041,106.7704 104.5891,105.9034 C105.2741,105.0374 106.5331,104.8904 107.3981,105.5764 L131.4891,124.6364 C132.3551,125.3214 132.5011,126.5794 131.8161,127.4454 C131.4211,127.9444 130.8361,128.2044 130.2461,128.2044" id="Fill-21" fill="#57BED0"></path>
                <g id="Group-25" transform="translate(0.000000, 0.804000)">
                    <mask id="mask-2" fill="white">
                        <use xlink:href="#path-1"></use>
                    </mask>
                    <g id="Clip-24"></g>
                    <path d="M81.4673,2.4023 C80.9463,2.4023 80.5073,1.9993 80.4703,1.4713 C80.4323,0.9203 80.8483,0.4423 81.3993,0.4043 C85.3343,0.1323 89.3983,0.1273 93.3373,0.3863 C93.8883,0.4233 94.3053,0.8993 94.2693,1.4503 C94.2333,2.0023 93.7713,2.4143 93.2053,2.3823 C89.3563,2.1293 85.3813,2.1323 81.5373,2.4003 C81.5133,2.4013 81.4903,2.4023 81.4673,2.4023 M116.3493,7.1233 C116.2383,7.1233 116.1263,7.1043 116.0163,7.0653 C112.3583,5.7713 108.5733,4.7193 104.7673,3.9393 C104.2263,3.8293 103.8783,3.2993 103.9883,2.7583 C104.0993,2.2183 104.6293,1.8733 105.1693,1.9803 C109.0653,2.7793 112.9393,3.8553 116.6833,5.1803 C117.2033,5.3643 117.4763,5.9353 117.2923,6.4563 C117.1473,6.8673 116.7613,7.1233 116.3493,7.1233 M58.4143,7.2073 C58.0043,7.2073 57.6183,6.9523 57.4723,6.5433 C57.2873,6.0233 57.5583,5.4513 58.0783,5.2653 C61.8193,3.9293 65.6873,2.8423 69.5733,2.0343 C70.1143,1.9253 70.6433,2.2683 70.7563,2.8103 C70.8683,3.3503 70.5213,3.8803 69.9803,3.9933 C66.1843,4.7823 62.4053,5.8433 58.7513,7.1483 C58.6393,7.1883 58.5263,7.2073 58.4143,7.2073 M137.2773,17.9453 C137.0783,17.9453 136.8773,17.8853 136.7023,17.7623 C133.5273,15.5243 130.1713,13.4863 126.7263,11.7043 C126.2363,11.4513 126.0443,10.8473 126.2983,10.3563 C126.5513,9.8673 127.1543,9.6733 127.6453,9.9283 C131.1703,11.7523 134.6053,13.8383 137.8543,16.1283 C138.3053,16.4463 138.4143,17.0703 138.0953,17.5213 C137.9013,17.7983 137.5923,17.9453 137.2773,17.9453 M37.5303,18.0803 C37.2173,18.0803 36.9083,17.9333 36.7133,17.6583 C36.3943,17.2083 36.5003,16.5843 36.9513,16.2643 C40.1953,13.9653 43.6213,11.8713 47.1343,10.0423 C47.6263,9.7853 48.2293,9.9773 48.4833,10.4663 C48.7383,10.9573 48.5483,11.5603 48.0583,11.8153 C44.6253,13.6033 41.2773,15.6493 38.1073,17.8953 C37.9323,18.0203 37.7303,18.0803 37.5303,18.0803 M154.5143,33.9993 C154.2243,33.9993 153.9373,33.8743 153.7393,33.6313 C151.2843,30.6283 148.6003,27.7623 145.7613,25.1183 C145.3573,24.7423 145.3343,24.1093 145.7113,23.7053 C146.0893,23.3023 146.7203,23.2793 147.1243,23.6553 C150.0303,26.3613 152.7763,29.2923 155.2883,32.3663 C155.6373,32.7943 155.5743,33.4233 155.1463,33.7733 C154.9603,33.9243 154.7373,33.9993 154.5143,33.9993 M20.3383,34.1783 C20.1163,34.1783 19.8933,34.1053 19.7083,33.9553 C19.2793,33.6063 19.2143,32.9763 19.5633,32.5483 C22.0663,29.4683 24.8053,26.5303 27.7043,23.8153 C28.1073,23.4383 28.7393,23.4593 29.1173,23.8613 C29.4953,24.2643 29.4743,24.8973 29.0713,25.2743 C26.2383,27.9283 23.5613,30.7993 21.1143,33.8093 C20.9173,34.0523 20.6293,34.1783 20.3383,34.1783 M166.7963,54.0813 C166.4113,54.0813 166.0443,53.8573 165.8793,53.4813 C164.3283,49.9333 162.5143,46.4553 160.4893,43.1433 C160.2013,42.6733 160.3493,42.0573 160.8203,41.7683 C161.2933,41.4793 161.9063,41.6293 162.1953,42.1003 C164.2683,45.4893 166.1243,49.0483 167.7123,52.6803 C167.9333,53.1863 167.7023,53.7763 167.1963,53.9973 C167.0663,54.0543 166.9303,54.0813 166.7963,54.0813 M8.1023,54.3123 C7.9693,54.3123 7.8353,54.2863 7.7053,54.2293 C7.1983,54.0103 6.9663,53.4223 7.1853,52.9153 C8.7643,49.2733 10.6123,45.7043 12.6773,42.3063 C12.9643,41.8353 13.5773,41.6843 14.0513,41.9713 C14.5233,42.2583 14.6743,42.8743 14.3863,43.3453 C12.3683,46.6663 10.5633,50.1523 9.0203,53.7103 C8.8573,54.0883 8.4883,54.3123 8.1023,54.3123 M173.1793,76.7493 C172.6883,76.7493 172.2593,76.3863 172.1903,75.8853 C171.6583,72.0373 170.8563,68.1943 169.8063,64.4663 C169.6563,63.9343 169.9663,63.3823 170.4983,63.2323 C171.0303,63.0853 171.5823,63.3933 171.7313,63.9233 C172.8063,67.7403 173.6273,71.6733 174.1723,75.6123 C174.2473,76.1593 173.8653,76.6643 173.3183,76.7393 C173.2713,76.7463 173.2253,76.7493 173.1793,76.7493 M1.7843,77.0053 C1.7393,77.0053 1.6943,77.0023 1.6493,76.9963 C1.1013,76.9223 0.7173,76.4183 0.7913,75.8713 C1.3233,71.9323 2.1333,67.9983 3.1963,64.1753 C3.3443,63.6433 3.8983,63.3313 4.4283,63.4813 C4.9603,63.6293 5.2713,64.1803 5.1233,64.7133 C4.0843,68.4463 3.2933,72.2913 2.7743,76.1383 C2.7063,76.6403 2.2773,77.0053 1.7843,77.0053 M173.2063,100.4703 C173.1613,100.4703 173.1163,100.4673 173.0703,100.4623 C172.5233,100.3863 172.1393,99.8823 172.2143,99.3363 C172.7353,95.5063 172.9993,91.5903 172.9993,87.6953 L172.9993,87.5233 C172.9993,86.9703 173.4463,86.5233 173.9993,86.5233 C174.5513,86.5233 174.9993,86.9703 174.9993,87.5233 L174.9993,87.6863 C174.9993,91.6793 174.7293,95.6863 174.1963,99.6053 C174.1283,100.1073 173.6983,100.4703 173.2063,100.4703 M1.8043,100.5553 C1.3133,100.5553 0.8843,100.1923 0.8153,99.6913 C0.2783,95.7733 0.0043,91.7663 0.0003,87.7823 C-0.0007,87.2293 0.4463,86.7823 0.9993,86.7813 L0.9993,86.7813 C1.5513,86.7813 1.9993,87.2283 2.0003,87.7803 C2.0043,91.6743 2.2723,95.5903 2.7973,99.4203 C2.8723,99.9663 2.4893,100.4713 1.9423,100.5463 C1.8963,100.5523 1.8503,100.5553 1.8043,100.5553 M166.8613,123.1593 C166.7283,123.1593 166.5923,123.1323 166.4633,123.0763 C165.9563,122.8563 165.7243,122.2663 165.9453,121.7603 C167.4933,118.1993 168.8083,114.4983 169.8533,110.7593 C170.0013,110.2283 170.5523,109.9163 171.0853,110.0663 C171.6173,110.2153 171.9273,110.7663 171.7793,111.2983 C170.7103,115.1243 169.3643,118.9123 167.7793,122.5573 C167.6153,122.9343 167.2473,123.1593 166.8613,123.1593 M8.1693,123.2303 C7.7833,123.2303 7.4163,123.0063 7.2523,122.6303 C5.6653,118.9903 4.3173,115.2063 3.2433,111.3823 C3.0943,110.8503 3.4043,110.2983 3.9363,110.1493 C4.4683,110.0003 5.0203,110.3093 5.1693,110.8413 C6.2173,114.5783 7.5353,118.2753 9.0853,121.8313 C9.3063,122.3373 9.0743,122.9263 8.5693,123.1473 C8.4383,123.2043 8.3023,123.2303 8.1693,123.2303 M154.6053,143.2803 C154.3833,143.2803 154.1603,143.2073 153.9743,143.0553 C153.5463,142.7073 153.4823,142.0773 153.8303,141.6483 C156.2823,138.6383 158.5493,135.4313 160.5683,132.1193 C160.8553,131.6483 161.4693,131.4963 161.9423,131.7863 C162.4143,132.0733 162.5633,132.6883 162.2763,133.1603 C160.2103,136.5493 157.8903,139.8313 155.3813,142.9123 C155.1833,143.1543 154.8953,143.2803 154.6053,143.2803 M20.4313,143.3253 C20.1413,143.3253 19.8533,143.1993 19.6553,142.9573 C17.1463,139.8793 14.8253,136.6023 12.7583,133.2163 C12.4703,132.7453 12.6183,132.1303 13.0903,131.8413 C13.5603,131.5533 14.1773,131.7023 14.4653,132.1733 C16.4853,135.4823 18.7533,138.6853 21.2053,141.6933 C21.5543,142.1213 21.4903,142.7513 21.0623,143.1003 C20.8773,143.2523 20.6533,143.3253 20.4313,143.3253 M137.4003,159.3593 C137.0863,159.3593 136.7783,159.2123 136.5833,158.9363 C136.2643,158.4863 136.3713,157.8613 136.8213,157.5433 C139.9853,155.3063 143.0273,152.8273 145.8653,150.1743 C146.2693,149.7983 146.9023,149.8193 147.2793,150.2223 C147.6563,150.6263 147.6343,151.2583 147.2313,151.6353 C144.3273,154.3503 141.2133,156.8863 137.9773,159.1753 C137.8013,159.2993 137.6003,159.3593 137.4003,159.3593 M37.6493,159.3953 C37.4503,159.3953 37.2493,159.3363 37.0733,159.2123 C33.8303,156.9223 30.7143,154.3863 27.8113,151.6763 C27.4073,151.2993 27.3853,150.6673 27.7623,150.2623 C28.1393,149.8583 28.7723,149.8383 29.1753,150.2143 C32.0123,152.8623 35.0583,155.3403 38.2273,157.5793 C38.6783,157.8973 38.7853,158.5213 38.4673,158.9723 C38.2723,159.2483 37.9633,159.3953 37.6493,159.3953 M116.5043,170.2143 C116.0923,170.2143 115.7073,169.9593 115.5623,169.5483 C115.3763,169.0293 115.6483,168.4573 116.1683,168.2713 C119.8223,166.9713 123.4213,165.4043 126.8653,163.6143 C127.3553,163.3603 127.9593,163.5503 128.2133,164.0413 C128.4683,164.5313 128.2773,165.1343 127.7873,165.3893 C124.2623,167.2213 120.5783,168.8253 116.8393,170.1563 C116.7283,170.1953 116.6153,170.2143 116.5043,170.2143 M58.5683,170.2383 C58.4573,170.2383 58.3443,170.2193 58.2343,170.1803 C54.4963,168.8543 50.8093,167.2543 47.2763,165.4223 C46.7853,165.1683 46.5933,164.5643 46.8483,164.0743 C47.1023,163.5833 47.7053,163.3913 48.1963,163.6463 C51.6493,165.4363 55.2513,167.0003 58.9033,168.2963 C59.4233,168.4803 59.6953,169.0513 59.5103,169.5723 C59.3653,169.9823 58.9803,170.2383 58.5683,170.2383 M93.4433,174.9943 C92.9223,174.9943 92.4823,174.5893 92.4463,174.0613 C92.4093,173.5103 92.8253,173.0343 93.3773,172.9963 C97.2553,172.7333 101.1443,172.2023 104.9343,171.4163 C105.4763,171.3053 106.0053,171.6503 106.1163,172.1923 C106.2293,172.7333 105.8813,173.2623 105.3413,173.3753 C101.4613,174.1783 97.4813,174.7223 93.5113,174.9923 C93.4883,174.9933 93.4663,174.9943 93.4433,174.9943 M81.6423,175.0003 C81.6203,175.0003 81.5973,174.9993 81.5753,174.9983 C77.6063,174.7323 73.6253,174.1923 69.7443,173.3923 C69.2033,173.2813 68.8553,172.7523 68.9673,172.2113 C69.0783,171.6703 69.6053,171.3273 70.1483,171.4333 C73.9403,172.2153 77.8293,172.7433 81.7083,173.0023 C82.2593,173.0393 82.6763,173.5153 82.6393,174.0663 C82.6043,174.5943 82.1643,175.0003 81.6423,175.0003" id="Fill-23" fill="#D1D2D4" mask="url(#mask-2)"></path>
                </g>
            </g>
        </g>
    </g>
</svg>