<?xml version="1.0" encoding="UTF-8" standalone="no"?>
<svg width="52px" height="49px" viewBox="0 0 52 49" version="1.1" xmlns="http://www.w3.org/2000/svg" xmlns:xlink="http://www.w3.org/1999/xlink">
    <!-- Generator: sketchtool 40.3 (33839) - http://www.bohemiancoding.com/sketch -->
    <title>13007175-52F1-4259-91DA-D46FA5752333</title>
    <desc>Created with sketchtool.</desc>
    <defs></defs>
    <g id="Page-1" stroke="none" stroke-width="1" fill="none" fill-rule="evenodd">
        <g id="icons-2" transform="translate(-584.000000, -792.000000)" fill="#56BDD2">
            <g id="bank" transform="translate(584.000000, 791.000000)">
                <g id="Group-3" transform="translate(0.000000, 0.205100)">
                    <path d="M50.2887,19.1895 C50.0157,19.1895 49.7387,19.1155 49.4897,18.9585 L25.8947,4.0685 L2.3007,18.9585 C1.6007,19.4015 0.6737,19.1915 0.2317,18.4905 C-0.2103,17.7895 -0.0013,16.8635 0.6997,16.4205 L25.0947,1.0265 C25.5827,0.7175 26.2067,0.7175 26.6957,1.0265 L51.0907,16.4205 C51.7907,16.8635 52.0007,17.7895 51.5587,18.4905 C51.2737,18.9425 50.7867,19.1895 50.2887,19.1895" id="Fill-1"></path>
                </g>
                <path d="M46.8951,43.1387 L4.8951,43.1387 C4.0661,43.1387 3.3951,42.4667 3.3951,41.6387 C3.3951,40.8107 4.0661,40.1387 4.8951,40.1387 L46.8951,40.1387 C47.7241,40.1387 48.3951,40.8107 48.3951,41.6387 C48.3951,42.4667 47.7241,43.1387 46.8951,43.1387" id="Fill-4"></path>
                <path d="M41.8951,49.2051 L9.8951,49.2051 C9.0661,49.2051 8.3951,48.5331 8.3951,47.7051 C8.3951,46.8771 9.0661,46.2051 9.8951,46.2051 L41.8951,46.2051 C42.7241,46.2051 43.3951,46.8771 43.3951,47.7051 C43.3951,48.5331 42.7241,49.2051 41.8951,49.2051" id="Fill-6"></path>
                <path d="M43.8951,37.4307 C43.0661,37.4307 42.3951,36.7587 42.3951,35.9307 L42.3951,21.0137 C42.3951,20.1857 43.0661,19.5137 43.8951,19.5137 C44.7241,19.5137 45.3951,20.1857 45.3951,21.0137 L45.3951,35.9307 C45.3951,36.7587 44.7241,37.4307 43.8951,37.4307" id="Fill-8"></path>
                <path d="M7.8951,37.4307 C7.0661,37.4307 6.3951,36.7587 6.3951,35.9307 L6.3951,21.0137 C6.3951,20.1857 7.0661,19.5137 7.8951,19.5137 C8.7241,19.5137 9.3951,20.1857 9.3951,21.0137 L9.3951,35.9307 C9.3951,36.7587 8.7241,37.4307 7.8951,37.4307" id="Fill-10"></path>
                <path d="M26.5196,27.8451 L26.5196,29.1721 L25.4046,29.1721 L25.4046,27.8771 C24.6186,27.8131 23.8536,27.6221 23.3866,27.3781 L23.7056,26.1781 C24.3956,26.4641 25.1916,26.6231 25.8296,26.6231 C26.4876,26.6231 26.8596,26.3051 26.8596,25.8481 C26.8596,25.3491 26.4666,25.0731 25.7446,24.8181 C24.5226,24.3931 23.4396,24.0221 23.4396,22.5881 C23.4396,21.4411 24.2896,20.8041 25.4046,20.6231 L25.4046,19.2961 L26.5196,19.2961 L26.5196,20.5911 C27.1566,20.6441 27.7406,20.8041 28.1766,20.9631 L27.8686,22.2481 C27.2306,21.9611 26.5096,21.8451 26.1166,21.8451 C25.4786,21.8451 25.0326,22.0781 25.0326,22.5881 C25.0326,23.0871 25.6276,23.3311 26.3286,23.5441 C27.6136,23.9371 28.4316,24.6061 28.4316,25.7421 C28.4316,26.8681 27.6556,27.6541 26.5196,27.8451 M25.8946,15.8231 C21.1646,15.8231 17.3286,19.6581 17.3286,24.3891 C17.3286,29.1201 21.1636,32.9551 25.8946,32.9551 C30.6256,32.9551 34.4616,29.1201 34.4616,24.3891 C34.4616,19.6581 30.6266,15.8231 25.8946,15.8231" id="Fill-12"></path>
            </g>
        </g>
    </g>
</svg>